NSW ACT Foundation-NSW ACT Foundation ExtraBold.ufo
<glyph name="exclam" format="2">
  <advance width="270"/>
  <unicode hex="0021"/>
  <outline>
    <contour>
      <point x="215" y="605" type="line" smooth="yes"/>
      <point x="218" y="632"/>
      <point x="190" y="650"/>
      <point x="166" y="650" type="curve" smooth="yes"/>
      <point x="144" y="650"/>
      <point x="116" y="635"/>
      <point x="113" y="611" type="curve" smooth="yes"/>
      <point x="71" y="226" type="line" smooth="yes"/>
      <point x="68" y="197"/>
      <point x="94" y="177"/>
      <point x="119" y="175" type="curve" smooth="yes"/>
      <point x="142" y="173"/>
      <point x="170" y="191"/>
      <point x="173" y="220" type="curve" smooth="yes"/>
    </contour>
    <contour>
      <point x="103" y="-24" type="curve" smooth="yes"/>
      <point x="133" y="-24"/>
      <point x="159" y="2"/>
      <point x="157" y="31" type="curve" smooth="yes"/>
      <point x="155" y="60"/>
      <point x="125" y="86"/>
      <point x="95" y="86" type="curve" smooth="yes"/>
      <point x="64" y="86"/>
      <point x="45" y="58"/>
      <point x="47" y="31" type="curve" smooth="yes"/>
      <point x="49" y="4"/>
      <point x="72" y="-24"/>
    </contour>
  </outline>
</glyph>
<glyph name="quotedbl" format="2">
	<advance width="340"/>
	<unicode hex="0022"/>
	<outline>
		<contour>
			<point x="344" y="595" type="line" smooth="yes"/>
			<point x="348" y="629"/>
			<point x="321" y="650"/>
			<point x="293" y="650" type="curve" smooth="yes"/>
			<point x="270" y="650"/>
			<point x="247" y="635"/>
			<point x="243" y="610" type="curve" smooth="yes"/>
			<point x="232" y="510" type="line" smooth="yes"/>
			<point x="228" y="472"/>
			<point x="260" y="456"/>
			<point x="284" y="456" type="curve" smooth="yes"/>
			<point x="306" y="456"/>
			<point x="332" y="470"/>
			<point x="334" y="496" type="curve" smooth="yes"/>
		</contour>
		<contour>
			<point x="185" y="594" type="line" smooth="yes"/>
			<point x="189" y="628"/>
			<point x="164" y="650"/>
			<point x="136" y="650" type="curve" smooth="yes"/>
			<point x="113" y="650"/>
			<point x="88" y="634"/>
			<point x="85" y="606" type="curve" smooth="yes"/>
			<point x="74" y="510" type="line" smooth="yes"/>
			<point x="71" y="477"/>
			<point x="97" y="456"/>
			<point x="125" y="456" type="curve" smooth="yes"/>
			<point x="148" y="456"/>
			<point x="172" y="471"/>
			<point x="175" y="498" type="curve" smooth="yes"/>
		</contour>
	</outline>
</glyph>
<glyph name="numbersign" format="2">
  <advance width="771"/>
  <unicode hex="0023"/>
  <outline>
    <contour>
      <point x="574" y="523" type="line" smooth="yes"/>
      <point x="578" y="555"/>
      <point x="553" y="568"/>
      <point x="530" y="568" type="curve" smooth="yes"/>
      <point x="506" y="568"/>
      <point x="479" y="558"/>
      <point x="476" y="531" type="curve" smooth="yes"/>
      <point x="425" y="47" type="line" smooth="yes"/>
      <point x="421" y="13"/>
      <point x="448" y="0"/>
      <point x="475" y="0" type="curve" smooth="yes"/>
      <point x="499" y="0"/>
      <point x="520" y="11"/>
      <point x="523" y="39" type="curve" smooth="yes"/>
    </contour>
    <contour>
      <point x="627" y="133" type="line" smooth="yes"/>
      <point x="656" y="133"/>
      <point x="674" y="153"/>
      <point x="673" y="177" type="curve" smooth="yes"/>
      <point x="671" y="200"/>
      <point x="651" y="218"/>
      <point x="621" y="218" type="curve" smooth="yes"/>
      <point x="109" y="218" type="line" smooth="yes"/>
      <point x="79" y="218"/>
      <point x="60" y="200"/>
      <point x="62" y="177" type="curve" smooth="yes"/>
      <point x="63" y="153"/>
      <point x="86" y="133"/>
      <point x="115" y="133" type="curve" smooth="yes"/>
    </contour>
    <contour>
      <point x="333" y="523" type="line" smooth="yes"/>
      <point x="336" y="552"/>
      <point x="311" y="568"/>
      <point x="284" y="568" type="curve" smooth="yes"/>
      <point x="259" y="568"/>
      <point x="239" y="557"/>
      <point x="236" y="530" type="curve" smooth="yes"/>
      <point x="184" y="47" type="line" smooth="yes"/>
      <point x="180" y="16"/>
      <point x="201" y="0"/>
      <point x="227" y="0" type="curve" smooth="yes"/>
      <point x="251" y="0"/>
      <point x="279" y="10"/>
      <point x="282" y="39" type="curve" smooth="yes"/>
    </contour>
    <contour>
      <point x="649" y="357" type="line" smooth="yes"/>
      <point x="679" y="357"/>
      <point x="699" y="375"/>
      <point x="697" y="399" type="curve" smooth="yes"/>
      <point x="695" y="422"/>
      <point x="673" y="442"/>
      <point x="643" y="442" type="curve" smooth="yes"/>
      <point x="132" y="442" type="line" smooth="yes"/>
      <point x="102" y="442"/>
      <point x="83" y="422"/>
      <point x="85" y="399" type="curve" smooth="yes"/>
      <point x="87" y="375"/>
      <point x="108" y="357"/>
      <point x="138" y="357" type="curve" smooth="yes"/>
    </contour>
  </outline>
</glyph>
<glyph name="dollar" format="2">
  <advance width="542"/>
  <unicode hex="0024"/>
  <outline>
    <contour>
      <point x="200" y="-4" type="line" smooth="yes"/>
      <point x="295" y="-4"/>
      <point x="480" y="13"/>
      <point x="470" y="161" type="curve" smooth="yes"/>
      <point x="463" y="253"/>
      <point x="388" y="282"/>
      <point x="305" y="329" type="curve" smooth="yes"/>
      <point x="240" y="365"/>
      <point x="190" y="388"/>
      <point x="188" y="417" type="curve" smooth="yes"/>
      <point x="185" y="455"/>
      <point x="266" y="477"/>
      <point x="334" y="477" type="curve" smooth="yes"/>
      <point x="468" y="477" type="line" smooth="yes"/>
      <point x="495" y="477"/>
      <point x="513" y="498"/>
      <point x="511" y="523" type="curve" smooth="yes"/>
      <point x="510" y="548"/>
      <point x="488" y="568"/>
      <point x="457" y="568" type="curve" smooth="yes"/>
      <point x="328" y="568" type="line" smooth="yes"/>
      <point x="193" y="568"/>
      <point x="85" y="504"/>
      <point x="91" y="412" type="curve" smooth="yes"/>
      <point x="97" y="331"/>
      <point x="184" y="294"/>
      <point x="260" y="251" type="curve" smooth="yes"/>
      <point x="336" y="209"/>
      <point x="370" y="197"/>
      <point x="373" y="160" type="curve" smooth="yes"/>
      <point x="378" y="92"/>
      <point x="254" y="87"/>
      <point x="194" y="87" type="curve" smooth="yes"/>
      <point x="98" y="87" type="line" smooth="yes"/>
      <point x="70" y="87"/>
      <point x="48" y="66"/>
      <point x="50" y="41" type="curve" smooth="yes"/>
      <point x="52" y="16"/>
      <point x="73" y="-4"/>
      <point x="104" y="-4" type="curve" smooth="yes"/>
    </contour>
    <contour>
      <point x="368" y="594" type="line" smooth="yes"/>
      <point x="372" y="629"/>
      <point x="348" y="650"/>
      <point x="322" y="650" type="curve" smooth="yes"/>
      <point x="300" y="650"/>
      <point x="276" y="635"/>
      <point x="273" y="606" type="curve" smooth="yes"/>
      <point x="206" y="-28" type="line" smooth="yes"/>
      <point x="202" y="-61"/>
      <point x="227" y="-80"/>
      <point x="252" y="-80" type="curve" smooth="yes"/>
      <point x="274" y="-80"/>
      <point x="298" y="-65"/>
      <point x="301" y="-38" type="curve" smooth="yes"/>
    </contour>
  </outline>
</glyph>
<glyph name="percent" format="2">
  <advance width="644"/>
  <unicode hex="0025"/>
  <outline>
    <contour>
      <point x="179" y="0" type="curve" smooth="yes"/>
      <point x="193" y="0"/>
      <point x="204" y="10"/>
      <point x="215" y="30" type="curve" smooth="yes"/>
      <point x="478" y="487" type="line" smooth="yes"/>
      <point x="499" y="524"/>
      <point x="475" y="562"/>
      <point x="436" y="562" type="curve" smooth="yes"/>
      <point x="424" y="562"/>
      <point x="408" y="550"/>
      <point x="395" y="528" type="curve" smooth="yes"/>
      <point x="135" y="67" type="line" smooth="yes"/>
      <point x="118" y="37"/>
      <point x="133" y="0"/>
    </contour>
    <contour>
      <point x="457" y="-5" type="curve" smooth="yes"/>
      <point x="546" y="-5"/>
      <point x="609" y="105"/>
      <point x="605" y="174" type="curve" smooth="yes"/>
      <point x="601" y="222"/>
      <point x="557" y="251"/>
      <point x="501" y="251" type="curve" smooth="yes"/>
      <point x="452" y="251"/>
      <point x="413" y="218"/>
      <point x="399" y="190" type="curve" smooth="yes"/>
      <point x="388" y="170"/>
      <point x="374" y="125"/>
      <point x="378" y="75" type="curve" smooth="yes"/>
      <point x="382" y="7"/>
      <point x="429" y="-5"/>
    </contour>
    <contour>
      <point x="471" y="73" type="curve" smooth="yes"/>
      <point x="466" y="73"/>
      <point x="460" y="89"/>
      <point x="459" y="101" type="curve" smooth="yes"/>
      <point x="458" y="121"/>
      <point x="463" y="140"/>
      <point x="473" y="159" type="curve"/>
      <point x="481" y="174"/>
      <point x="493" y="177"/>
      <point x="507" y="177" type="curve" smooth="yes"/>
      <point x="521" y="176"/>
      <point x="523" y="167"/>
      <point x="525" y="151" type="curve" smooth="yes"/>
      <point x="528" y="119"/>
      <point x="495" y="73"/>
    </contour>
    <contour>
      <point x="114" y="307" type="curve" smooth="yes"/>
      <point x="203" y="307"/>
      <point x="266" y="417"/>
      <point x="262" y="486" type="curve" smooth="yes"/>
      <point x="258" y="534"/>
      <point x="214" y="563"/>
      <point x="158" y="563" type="curve" smooth="yes"/>
      <point x="109" y="563"/>
      <point x="70" y="530"/>
      <point x="56" y="502" type="curve" smooth="yes"/>
      <point x="45" y="482"/>
      <point x="31" y="437"/>
      <point x="35" y="387" type="curve" smooth="yes"/>
      <point x="39" y="319"/>
      <point x="86" y="307"/>
    </contour>
    <contour>
      <point x="128" y="385" type="curve" smooth="yes"/>
      <point x="123" y="385"/>
      <point x="117" y="401"/>
      <point x="116" y="413" type="curve" smooth="yes"/>
      <point x="115" y="433"/>
      <point x="120" y="452"/>
      <point x="130" y="471" type="curve"/>
      <point x="138" y="486"/>
      <point x="150" y="489"/>
      <point x="164" y="489" type="curve" smooth="yes"/>
      <point x="178" y="488"/>
      <point x="180" y="479"/>
      <point x="182" y="463" type="curve" smooth="yes"/>
      <point x="185" y="431"/>
      <point x="152" y="385"/>
    </contour>
  </outline>
</glyph>
<glyph name="ampersand" format="2">
	<advance width="494"/>
	<unicode hex="0026"/>
	<outline>
		<contour>
			<point x="359" y="23" type="line" smooth="yes"/>
			<point x="374" y="3"/>
			<point x="411" y="-9"/>
			<point x="433" y="8" type="curve" smooth="yes"/>
			<point x="457" y="27"/>
			<point x="450" y="52"/>
			<point x="435" y="73" type="curve" smooth="yes"/>
			<point x="238" y="335" type="line"/>
			<point x="150" y="344" type="line"/>
			<point x="89" y="297"/>
			<point x="48" y="243"/>
			<point x="42" y="190" type="curve" smooth="yes"/>
			<point x="32" y="108"/>
			<point x="100" y="-4"/>
			<point x="227" y="-4" type="curve" smooth="yes"/>
			<point x="326" y="-4"/>
			<point x="364" y="63"/>
			<point x="418" y="168" type="curve" smooth="yes"/>
			<point x="431" y="190"/>
			<point x="421" y="213"/>
			<point x="399" y="225" type="curve" smooth="yes"/>
			<point x="376" y="238"/>
			<point x="345" y="231"/>
			<point x="331" y="209" type="curve" smooth="yes"/>
			<point x="280" y="120"/>
			<point x="268" y="86"/>
			<point x="221" y="86" type="curve" smooth="yes"/>
			<point x="165" y="86"/>
			<point x="131" y="123"/>
			<point x="137" y="169" type="curve" smooth="yes"/>
			<point x="140" y="197"/>
			<point x="158" y="225"/>
			<point x="187" y="251" type="curve"/>
		</contour>
		<contour>
			<point x="242" y="325" type="line"/>
			<point x="208" y="369"/>
			<point x="168" y="419"/>
			<point x="166" y="441" type="curve" smooth="yes"/>
			<point x="165" y="460"/>
			<point x="189" y="478"/>
			<point x="234" y="478" type="curve" smooth="yes"/>
			<point x="261" y="478"/>
			<point x="268" y="473"/>
			<point x="270" y="465" type="curve" smooth="yes"/>
			<point x="278" y="438"/>
			<point x="217" y="386"/>
			<point x="127" y="333" type="curve"/>
			<point x="233" y="284" type="line"/>
			<point x="315" y="344"/>
			<point x="387" y="409"/>
			<point x="359" y="489" type="curve" smooth="yes"/>
			<point x="340" y="543"/>
			<point x="284" y="568"/>
			<point x="227" y="568" type="curve" smooth="yes"/>
			<point x="132" y="568"/>
			<point x="66" y="504"/>
			<point x="70" y="439" type="curve" smooth="yes"/>
			<point x="74" y="386"/>
			<point x="127" y="325"/>
			<point x="164" y="276" type="curve"/>
		</contour>
	</outline>
</glyph>
<glyph name="quotesingle" format="2">
	<advance width="261"/>
	<unicode hex="0027"/>
	<outline>
		<contour>
			<point x="225" y="595" type="line" smooth="yes"/>
			<point x="228" y="629"/>
			<point x="202" y="650"/>
			<point x="174" y="650" type="curve" smooth="yes"/>
			<point x="151" y="650"/>
			<point x="129" y="635"/>
			<point x="124" y="610" type="curve" smooth="yes"/>
			<point x="113" y="510" type="line" smooth="yes"/>
			<point x="110" y="472"/>
			<point x="141" y="456"/>
			<point x="165" y="456" type="curve" smooth="yes"/>
			<point x="187" y="456"/>
			<point x="213" y="470"/>
			<point x="215" y="496" type="curve" smooth="yes"/>
		</contour>
	</outline>
</glyph>
<glyph name="parenleft" format="2">
	<advance width="427"/>
	<unicode hex="0028"/>
	<outline>
		<contour>
			<point x="286" y="-295" type="curve" smooth="yes"/>
			<point x="300" y="-283"/>
			<point x="303" y="-264"/>
			<point x="289" y="-235" type="curve"/>
			<point x="197" y="-66"/>
			<point x="174" y="80"/>
			<point x="189" y="213" type="curve" smooth="yes"/>
			<point x="202" y="333"/>
			<point x="263" y="456"/>
			<point x="373" y="574" type="curve" smooth="yes"/>
			<point x="402" y="605"/>
			<point x="395" y="628"/>
			<point x="380" y="643" type="curve" smooth="yes"/>
			<point x="364" y="658"/>
			<point x="331" y="659"/>
			<point x="302" y="631" type="curve" smooth="yes"/>
			<point x="179" y="505"/>
			<point x="96" y="330"/>
			<point x="85" y="221" type="curve" smooth="yes"/>
			<point x="72" y="96"/>
			<point x="111" y="-95"/>
			<point x="212" y="-275" type="curve" smooth="yes"/>
			<point x="229" y="-303"/>
			<point x="266" y="-310"/>
		</contour>
	</outline>
</glyph>
<glyph name="parenright" format="2">
  <advance width="396"/>
  <unicode hex="0029"/>
  <outline>
    <contour>
      <point x="100" y="-270" type="curve" smooth="yes"/>
      <point x="236" y="-132"/>
      <point x="313" y="41"/>
      <point x="328" y="164" type="curve" smooth="yes"/>
      <point x="338" y="274"/>
      <point x="296" y="469"/>
      <point x="205" y="631" type="curve" smooth="yes"/>
      <point x="181" y="669"/>
      <point x="152" y="679"/>
      <point x="130" y="669" type="curve" smooth="yes"/>
      <point x="113" y="660"/>
      <point x="102" y="640"/>
      <point x="122" y="601" type="curve" smooth="yes"/>
      <point x="204" y="448"/>
      <point x="237" y="309"/>
      <point x="225" y="190" type="curve" smooth="yes"/>
      <point x="211" y="56"/>
      <point x="159" y="-76"/>
      <point x="36" y="-207" type="curve" smooth="yes"/>
      <point x="18" y="-225"/>
      <point x="9" y="-249"/>
      <point x="26" y="-267" type="curve" smooth="yes"/>
      <point x="43" y="-289"/>
      <point x="80" y="-291"/>
    </contour>
  </outline>
</glyph>
<glyph name="asterisk" format="2">
  <advance width="373"/>
  <unicode hex="002A"/>
  <outline>
    <contour>
      <point x="294" y="554" type="line" smooth="yes"/>
      <point x="319" y="570"/>
      <point x="327" y="594"/>
      <point x="311" y="617" type="curve" smooth="yes"/>
      <point x="299" y="633"/>
      <point x="270" y="639"/>
      <point x="246" y="625" type="curve" smooth="yes"/>
      <point x="119" y="543" type="line"/>
      <point x="98" y="527"/>
      <point x="88" y="504"/>
      <point x="102" y="483" type="curve" smooth="yes"/>
      <point x="114" y="464"/>
      <point x="145" y="458"/>
      <point x="171" y="474" type="curve" smooth="yes"/>
    </contour>
    <contour>
      <point x="236" y="477" type="line"/>
      <point x="262" y="460"/>
      <point x="291" y="464"/>
      <point x="303" y="481" type="curve" smooth="yes"/>
      <point x="315" y="499"/>
      <point x="312" y="521"/>
      <point x="288" y="538" type="curve" smooth="yes"/>
      <point x="178" y="621" type="line" smooth="yes"/>
      <point x="154" y="638"/>
      <point x="126" y="634"/>
      <point x="114" y="617" type="curve" smooth="yes"/>
      <point x="100" y="599"/>
      <point x="104" y="576"/>
      <point x="129" y="558" type="curve" smooth="yes"/>
    </contour>
    <contour>
      <point x="259" y="616" type="line" smooth="yes"/>
      <point x="262" y="648"/>
      <point x="240" y="668"/>
      <point x="216" y="668" type="curve" smooth="yes"/>
      <point x="195" y="668"/>
      <point x="173" y="651"/>
      <point x="170" y="624" type="curve" smooth="yes"/>
      <point x="155" y="482" type="line" smooth="yes"/>
      <point x="152" y="453"/>
      <point x="170" y="436"/>
      <point x="191" y="431" type="curve" smooth="yes"/>
      <point x="213" y="426"/>
      <point x="240" y="443"/>
      <point x="244" y="474" type="curve" smooth="yes"/>
    </contour>
  </outline>
</glyph>
<glyph name="plus" format="2">
	<advance width="400"/>
	<unicode hex="002B"/>
	<outline>
		<contour>
			<point x="260" y="296" type="line" smooth="yes"/>
			<point x="263" y="329"/>
			<point x="239" y="350"/>
			<point x="212" y="350" type="curve" smooth="yes"/>
			<point x="192" y="350"/>
			<point x="170" y="337"/>
			<point x="167" y="310" type="curve" smooth="yes"/>
			<point x="145" y="95" type="line" smooth="yes"/>
			<point x="143" y="62"/>
			<point x="167" y="41"/>
			<point x="194" y="41" type="curve" smooth="yes"/>
			<point x="214" y="41"/>
			<point x="235" y="54"/>
			<point x="238" y="81" type="curve" smooth="yes"/>
		</contour>
		<contour>
			<point x="314" y="154" type="line" smooth="yes"/>
			<point x="345" y="154"/>
			<point x="364" y="174"/>
			<point x="362" y="198" type="curve" smooth="yes"/>
			<point x="361" y="221"/>
			<point x="339" y="241"/>
			<point x="308" y="241" type="curve" smooth="yes"/>
			<point x="91" y="241" type="line" smooth="yes"/>
			<point x="60" y="241"/>
			<point x="42" y="221"/>
			<point x="43" y="198" type="curve" smooth="yes"/>
			<point x="45" y="174"/>
			<point x="66" y="154"/>
			<point x="97" y="154" type="curve" smooth="yes"/>
		</contour>
	</outline>
</glyph>
<glyph name="comma" format="2">
	<advance width="262"/>
	<unicode hex="002C"/>
	<outline>
		<contour>
			<point x="168" y="39" type="line" smooth="yes"/>
			<point x="171" y="71"/>
			<point x="149" y="91"/>
			<point x="121" y="94" type="curve" smooth="yes"/>
			<point x="96" y="97"/>
			<point x="70" y="83"/>
			<point x="67" y="54" type="curve" smooth="yes"/>
			<point x="57" y="-45" type="line" smooth="yes"/>
			<point x="54" y="-76"/>
			<point x="76" y="-97"/>
			<point x="101" y="-101" type="curve" smooth="yes"/>
			<point x="125" y="-105"/>
			<point x="154" y="-90"/>
			<point x="157" y="-60" type="curve" smooth="yes"/>
		</contour>
	</outline>
</glyph>
<glyph name="hyphen" format="2">
	<advance width="333"/>
	<unicode hex="002D"/>
	<outline>
		<contour>
			<point x="246" y="153" type="line" smooth="yes"/>
			<point x="277" y="153"/>
			<point x="297" y="173"/>
			<point x="295" y="198" type="curve" smooth="yes"/>
			<point x="293" y="222"/>
			<point x="271" y="242"/>
			<point x="240" y="242" type="curve" smooth="yes"/>
			<point x="92" y="242" type="line" smooth="yes"/>
			<point x="59" y="242"/>
			<point x="40" y="220"/>
			<point x="43" y="194" type="curve" smooth="yes"/>
			<point x="47" y="171"/>
			<point x="69" y="153"/>
			<point x="98" y="153" type="curve" smooth="yes"/>
		</contour>
	</outline>
</glyph>
<glyph name="period" format="2">
	<advance width="231"/>
	<unicode hex="002E"/>
	<outline>
		<contour>
			<point x="104" y="-30" type="curve" smooth="yes"/>
			<point x="133" y="-30"/>
			<point x="157" y="-4"/>
			<point x="155" y="26" type="curve" smooth="yes"/>
			<point x="153" y="55"/>
			<point x="125" y="80"/>
			<point x="96" y="80" type="curve" smooth="yes"/>
			<point x="65" y="80"/>
			<point x="43" y="55"/>
			<point x="45" y="26" type="curve" smooth="yes"/>
			<point x="47" y="-3"/>
			<point x="73" y="-30"/>
		</contour>
	</outline>
</glyph>
<glyph name="slash" format="2">
  <advance width="406"/>
  <unicode hex="002F"/>
  <outline>
    <contour>
      <point x="351" y="588" type="line" smooth="yes"/>
      <point x="364" y="624"/>
      <point x="332" y="650"/>
      <point x="302" y="650" type="curve" smooth="yes"/>
      <point x="282" y="650"/>
      <point x="260" y="639"/>
      <point x="251" y="614" type="curve" smooth="yes"/>
      <point x="50" y="60" type="line" smooth="yes"/>
      <point x="37" y="25"/>
      <point x="68" y="0"/>
      <point x="100" y="0" type="curve" smooth="yes"/>
      <point x="119" y="0"/>
      <point x="140" y="10"/>
      <point x="149" y="32" type="curve" smooth="yes"/>
    </contour>
  </outline>
</glyph>
<glyph name="zero" format="2">
  <advance width="495"/>
  <unicode hex="0030"/>
  <outline>
    <contour>
      <point x="176" y="-4" type="curve" smooth="yes"/>
      <point x="311" y="-3"/>
      <point x="460" y="223"/>
      <point x="448" y="395" type="curve" smooth="yes"/>
      <point x="443" y="471"/>
      <point x="404" y="568"/>
      <point x="284" y="568" type="curve" smooth="yes"/>
      <point x="84" y="568"/>
      <point x="29" y="290"/>
      <point x="37" y="172" type="curve" smooth="yes"/>
      <point x="43" y="91"/>
      <point x="86" y="-4"/>
    </contour>
    <contour>
      <point x="170" y="88" type="curve" smooth="yes"/>
      <point x="154" y="88"/>
      <point x="141" y="107"/>
      <point x="136" y="168" type="curve" smooth="yes"/>
      <point x="128" y="281"/>
      <point x="183" y="476"/>
      <point x="293" y="476" type="curve" smooth="yes"/>
      <point x="335" y="476"/>
      <point x="346" y="449"/>
      <point x="349" y="398" type="curve" smooth="yes"/>
      <point x="361" y="225"/>
      <point x="220" y="88"/>
    </contour>
  </outline>
</glyph>
<glyph name="one" format="2">
	<advance width="495"/>
	<unicode hex="0031"/>
	<outline>
		<contour>
			<point x="324" y="518" type="line" smooth="yes"/>
			<point x="327" y="548"/>
			<point x="301" y="568"/>
			<point x="274" y="568" type="curve" smooth="yes"/>
			<point x="251" y="568"/>
			<point x="226" y="554"/>
			<point x="223" y="526" type="curve" smooth="yes"/>
			<point x="172" y="51" type="line" smooth="yes"/>
			<point x="169" y="18"/>
			<point x="196" y="0"/>
			<point x="223" y="0" type="curve" smooth="yes"/>
			<point x="245" y="0"/>
			<point x="269" y="12"/>
			<point x="272" y="39" type="curve" smooth="yes"/>
		</contour>
	</outline>
</glyph>
<glyph name="two" format="2">
  <advance width="495"/>
  <unicode hex="0032"/>
  <outline>
    <contour>
      <point x="123" y="0" type="line"/>
      <point x="162" y="49" type="line"/>
      <point x="212" y="112"/>
      <point x="322" y="251"/>
      <point x="333" y="264" type="curve" smooth="yes"/>
      <point x="447" y="417"/>
      <point x="456" y="491"/>
      <point x="361" y="547" type="curve" smooth="yes"/>
      <point x="283" y="593"/>
      <point x="157" y="558"/>
      <point x="97" y="504" type="curve" smooth="yes"/>
      <point x="65" y="476"/>
      <point x="72" y="454"/>
      <point x="91" y="434" type="curve" smooth="yes"/>
      <point x="104" y="421"/>
      <point x="134" y="413"/>
      <point x="170" y="443" type="curve" smooth="yes"/>
      <point x="213" y="479"/>
      <point x="285" y="493"/>
      <point x="318" y="473" type="curve" smooth="yes"/>
      <point x="346" y="457"/>
      <point x="313" y="398"/>
      <point x="270" y="343" type="curve" smooth="yes"/>
      <point x="246" y="313"/>
      <point x="157" y="205"/>
      <point x="41" y="65" type="curve" smooth="yes"/>
      <point x="13" y="29"/>
      <point x="40" y="0"/>
      <point x="80" y="0" type="curve" smooth="yes"/>
    </contour>
    <contour>
      <point x="79" y="0" type="line"/>
      <point x="335" y="0" type="line" smooth="yes"/>
      <point x="365" y="0"/>
      <point x="384" y="14"/>
      <point x="382" y="41" type="curve" smooth="yes"/>
      <point x="380" y="65"/>
      <point x="361" y="86"/>
      <point x="329" y="86" type="curve" smooth="yes"/>
      <point x="73" y="86" type="line"/>
    </contour>
  </outline>
</glyph>
<glyph name="three" format="2">
	<advance width="495"/>
	<unicode hex="0033"/>
	<outline>
		<contour>
			<point x="160" y="250" type="line"/>
			<point x="214" y="279"/>
			<point x="233" y="282"/>
			<point x="261" y="282" type="curve" smooth="yes"/>
			<point x="300" y="282"/>
			<point x="318" y="262"/>
			<point x="314" y="228" type="curve" smooth="yes"/>
			<point x="305" y="145"/>
			<point x="219" y="86"/>
			<point x="144" y="86" type="curve" smooth="yes"/>
			<point x="126" y="86"/>
			<point x="113" y="90"/>
			<point x="99" y="100" type="curve" smooth="yes"/>
			<point x="66" y="124"/>
			<point x="32" y="113"/>
			<point x="22" y="93" type="curve" smooth="yes"/>
			<point x="13" y="76"/>
			<point x="12" y="54"/>
			<point x="47" y="28" type="curve" smooth="yes"/>
			<point x="75" y="7"/>
			<point x="112" y="-4"/>
			<point x="149" y="-4" type="curve" smooth="yes"/>
			<point x="269" y="-4"/>
			<point x="397" y="96"/>
			<point x="411" y="229" type="curve" smooth="yes"/>
			<point x="420" y="313"/>
			<point x="357" y="379"/>
			<point x="265" y="379" type="curve" smooth="yes"/>
			<point x="222" y="379"/>
			<point x="172" y="366"/>
			<point x="121" y="339" type="curve"/>
		</contour>
		<contour>
			<point x="169" y="256" type="curve" smooth="yes"/>
			<point x="277" y="334"/>
			<point x="382" y="410"/>
			<point x="390" y="481" type="curve" smooth="yes"/>
			<point x="397" y="535"/>
			<point x="334" y="568"/>
			<point x="266" y="568" type="curve" smooth="yes"/>
			<point x="212" y="568"/>
			<point x="153" y="550"/>
			<point x="95" y="510" type="curve" smooth="yes"/>
			<point x="64" y="489"/>
			<point x="67" y="463"/>
			<point x="80" y="445" type="curve" smooth="yes"/>
			<point x="93" y="423"/>
			<point x="122" y="424"/>
			<point x="144" y="439" type="curve" smooth="yes"/>
			<point x="197" y="476"/>
			<point x="246" y="488"/>
			<point x="277" y="488" type="curve" smooth="yes"/>
			<point x="284" y="488"/>
			<point x="294" y="487"/>
			<point x="293" y="481" type="curve" smooth="yes"/>
			<point x="291" y="465"/>
			<point x="183" y="381"/>
			<point x="110" y="333" type="curve" smooth="yes"/>
			<point x="84" y="316"/>
			<point x="85" y="290"/>
			<point x="96" y="270" type="curve" smooth="yes"/>
			<point x="109" y="249"/>
			<point x="143" y="237"/>
		</contour>
	</outline>
</glyph>
<glyph name="four" format="2">
  <advance width="495"/>
  <unicode hex="0034"/>
  <outline>
    <contour>
      <point x="189" y="519" type="line" smooth="yes"/>
      <point x="192" y="551"/>
      <point x="165" y="568"/>
      <point x="139" y="568" type="curve" smooth="yes"/>
      <point x="116" y="568"/>
      <point x="91" y="555"/>
      <point x="88" y="527" type="curve" smooth="yes"/>
      <point x="50" y="170" type="line" smooth="yes"/>
      <point x="48" y="145"/>
      <point x="70" y="122"/>
      <point x="102" y="122" type="curve" smooth="yes"/>
      <point x="128" y="122"/>
      <point x="148" y="140"/>
      <point x="151" y="164" type="curve" smooth="yes"/>
    </contour>
    <contour>
      <point x="300" y="279" type="line" smooth="yes"/>
      <point x="303" y="308"/>
      <point x="291" y="326"/>
      <point x="267" y="331" type="curve" smooth="yes"/>
      <point x="243" y="335"/>
      <point x="224" y="320"/>
      <point x="221" y="292" type="curve" smooth="yes"/>
      <point x="195" y="59" type="line" smooth="yes"/>
      <point x="191" y="26"/>
      <point x="203" y="0"/>
      <point x="229" y="0" type="curve" smooth="yes"/>
      <point x="257" y="0"/>
      <point x="272" y="16"/>
      <point x="275" y="44" type="curve" smooth="yes"/>
    </contour>
    <contour>
      <point x="101" y="122" type="line"/>
      <point x="384" y="122" type="line" smooth="yes"/>
      <point x="412" y="122"/>
      <point x="432" y="143"/>
      <point x="430" y="168" type="curve" smooth="yes"/>
      <point x="429" y="192"/>
      <point x="406" y="212"/>
      <point x="378" y="212" type="curve" smooth="yes"/>
      <point x="95" y="212" type="line"/>
    </contour>
  </outline>
</glyph>
<glyph name="five" format="2">
	<advance width="495"/>
	<unicode hex="0035"/>
	<outline>
		<contour>
			<point x="145" y="265" type="line"/>
			<point x="196" y="281"/>
			<point x="200" y="281"/>
			<point x="227" y="281" type="curve" smooth="yes"/>
			<point x="287" y="281"/>
			<point x="308" y="248"/>
			<point x="310" y="215" type="curve" smooth="yes"/>
			<point x="314" y="164"/>
			<point x="262" y="83"/>
			<point x="184" y="83" type="curve" smooth="yes"/>
			<point x="166" y="83"/>
			<point x="151" y="86"/>
			<point x="140" y="93" type="curve" smooth="yes"/>
			<point x="128" y="101"/>
			<point x="118" y="110"/>
			<point x="105" y="110" type="curve" smooth="yes"/>
			<point x="80" y="110"/>
			<point x="58" y="97"/>
			<point x="60" y="72" type="curve" smooth="yes"/>
			<point x="61" y="58"/>
			<point x="68" y="45"/>
			<point x="83" y="31" type="curve" smooth="yes"/>
			<point x="108" y="8"/>
			<point x="148" y="-3"/>
			<point x="189" y="-3" type="curve" smooth="yes"/>
			<point x="329" y="-3"/>
			<point x="416" y="125"/>
			<point x="410" y="216" type="curve" smooth="yes"/>
			<point x="404" y="298"/>
			<point x="329" y="372"/>
			<point x="218" y="372" type="curve" smooth="yes"/>
			<point x="184" y="372"/>
			<point x="148" y="364"/>
			<point x="108" y="348" type="curve"/>
		</contour>
		<contour>
			<point x="210" y="529" type="line"/>
			<point x="179" y="571" type="line"/>
			<point x="157" y="571"/>
			<point x="136" y="571"/>
			<point x="126" y="562" type="curve" smooth="yes"/>
			<point x="116" y="554"/>
			<point x="111" y="543"/>
			<point x="109" y="528" type="curve" smooth="yes"/>
			<point x="85" y="312" type="line" smooth="yes"/>
			<point x="81" y="281"/>
			<point x="112" y="264"/>
			<point x="136" y="264" type="curve" smooth="yes"/>
			<point x="158" y="264"/>
			<point x="184" y="281"/>
			<point x="187" y="304" type="curve" smooth="yes"/>
		</contour>
		<contour>
			<point x="168" y="487" type="line"/>
			<point x="399" y="487" type="line" smooth="yes"/>
			<point x="431" y="487"/>
			<point x="447" y="505"/>
			<point x="445" y="529" type="curve" smooth="yes"/>
			<point x="443" y="556"/>
			<point x="423" y="571"/>
			<point x="393" y="571" type="curve" smooth="yes"/>
			<point x="177" y="571" type="line"/>
		</contour>
	</outline>
</glyph>
<glyph name="six" format="2">
  <advance width="495"/>
  <unicode hex="0036"/>
  <outline>
    <contour>
      <point x="165" y="114" type="line"/>
      <point x="145" y="195"/>
      <point x="189" y="274"/>
      <point x="250" y="371" type="curve" smooth="yes"/>
      <point x="274" y="407"/>
      <point x="312" y="447"/>
      <point x="375" y="494" type="curve" smooth="yes"/>
      <point x="392" y="506"/>
      <point x="399" y="521"/>
      <point x="397" y="537" type="curve" smooth="yes"/>
      <point x="395" y="559"/>
      <point x="374" y="576"/>
      <point x="349" y="576" type="curve" smooth="yes"/>
      <point x="339" y="576"/>
      <point x="328" y="573"/>
      <point x="317" y="568" type="curve"/>
      <point x="271" y="540"/>
      <point x="195" y="467"/>
      <point x="166" y="421" type="curve" smooth="yes"/>
      <point x="101" y="319"/>
      <point x="72" y="279"/>
      <point x="70" y="118" type="curve"/>
    </contour>
    <contour>
      <point x="70" y="126" type="line" smooth="yes"/>
      <point x="62" y="84"/>
      <point x="125" y="-1"/>
      <point x="206" y="-1" type="curve" smooth="yes"/>
      <point x="313" y="-1"/>
      <point x="405" y="143"/>
      <point x="398" y="247" type="curve" smooth="yes"/>
      <point x="393" y="316"/>
      <point x="345" y="354"/>
      <point x="269" y="354" type="curve" smooth="yes"/>
      <point x="178" y="354"/>
      <point x="104" y="308"/>
      <point x="92" y="243" type="curve" smooth="yes"/>
    </contour>
    <contour>
      <point x="198" y="87" type="curve" smooth="yes"/>
      <point x="180" y="87"/>
      <point x="166" y="99"/>
      <point x="163" y="140" type="curve" smooth="yes"/>
      <point x="159" y="204"/>
      <point x="196" y="266"/>
      <point x="273" y="266" type="curve" smooth="yes"/>
      <point x="296" y="266"/>
      <point x="303" y="260"/>
      <point x="304" y="242" type="curve" smooth="yes"/>
      <point x="308" y="180"/>
      <point x="246" y="87"/>
    </contour>
  </outline>
</glyph>
<glyph name="seven" format="2">
  <advance width="495"/>
  <unicode hex="0037"/>
  <outline>
    <contour>
      <point x="375" y="524" type="line" smooth="yes"/>
      <point x="378" y="551"/>
      <point x="368" y="568"/>
      <point x="325" y="568" type="curve" smooth="yes"/>
      <point x="303" y="568"/>
      <point x="281" y="558"/>
      <point x="278" y="537" type="curve" smooth="yes"/>
      <point x="227" y="50" type="line" smooth="yes"/>
      <point x="224" y="20"/>
      <point x="247" y="0"/>
      <point x="274" y="0" type="curve" smooth="yes"/>
      <point x="297" y="0"/>
      <point x="321" y="15"/>
      <point x="324" y="42" type="curve" smooth="yes"/>
    </contour>
    <contour>
      <point x="332" y="488" type="line"/>
      <point x="326" y="568" type="line"/>
      <point x="93" y="568" type="line" smooth="yes"/>
      <point x="63" y="568"/>
      <point x="44" y="551"/>
      <point x="46" y="527" type="curve" smooth="yes"/>
      <point x="48" y="503"/>
      <point x="69" y="488"/>
      <point x="99" y="488" type="curve" smooth="yes"/>
    </contour>
  </outline>
</glyph>
<glyph name="eight" format="2">
  <advance width="495"/>
  <unicode hex="0038"/>
  <outline>
    <contour>
      <point x="245" y="341" type="line"/>
      <point x="164" y="344" type="line"/>
      <point x="71" y="275"/>
      <point x="48" y="197"/>
      <point x="52" y="141" type="curve" smooth="yes"/>
      <point x="56" y="80"/>
      <point x="96" y="-4"/>
      <point x="207" y="-4" type="curve" smooth="yes"/>
      <point x="322" y="-4"/>
      <point x="376" y="87"/>
      <point x="371" y="157" type="curve" smooth="yes"/>
      <point x="367" y="219"/>
      <point x="316" y="280"/>
      <point x="269" y="321" type="curve" smooth="yes"/>
    </contour>
    <contour>
      <point x="212" y="249" type="line" smooth="yes"/>
      <point x="225" y="236"/>
      <point x="271" y="191"/>
      <point x="274" y="148" type="curve" smooth="yes"/>
      <point x="276" y="114"/>
      <point x="247" y="81"/>
      <point x="206" y="81" type="curve" smooth="yes"/>
      <point x="173" y="81"/>
      <point x="151" y="108"/>
      <point x="149" y="148" type="curve" smooth="yes"/>
      <point x="147" y="177"/>
      <point x="157" y="213"/>
      <point x="206" y="254" type="curve"/>
    </contour>
    <contour>
      <point x="247" y="287" type="line"/>
      <point x="325" y="343"/>
      <point x="410" y="405"/>
      <point x="405" y="472" type="curve" smooth="yes"/>
      <point x="400" y="539"/>
      <point x="310" y="569"/>
      <point x="248" y="569" type="curve" smooth="yes"/>
      <point x="171" y="569"/>
      <point x="75" y="526"/>
      <point x="82" y="428" type="curve" smooth="yes"/>
      <point x="87" y="355"/>
      <point x="148" y="312"/>
      <point x="171" y="292" type="curve"/>
      <point x="251" y="341" type="line"/>
      <point x="231" y="362"/>
      <point x="183" y="390"/>
      <point x="180" y="433" type="curve" smooth="yes"/>
      <point x="177" y="470"/>
      <point x="203" y="488"/>
      <point x="238" y="488" type="curve" smooth="yes"/>
      <point x="270" y="488"/>
      <point x="309" y="486"/>
      <point x="310" y="471" type="curve" smooth="yes"/>
      <point x="311" y="456"/>
      <point x="234" y="391"/>
      <point x="177" y="355" type="curve"/>
    </contour>
  </outline>
</glyph>
<glyph name="nine" format="2">
	<advance width="495"/>
	<unicode hex="0039"/>
	<outline>
		<contour>
			<point x="428" y="529" type="line" smooth="yes"/>
			<point x="431" y="555"/>
			<point x="415" y="568"/>
			<point x="382" y="568" type="curve" smooth="yes"/>
			<point x="330" y="568" type="line"/>
			<point x="275" y="43" type="line" smooth="yes"/>
			<point x="272" y="11"/>
			<point x="301" y="-5"/>
			<point x="323" y="-5" type="curve" smooth="yes"/>
			<point x="346" y="-5"/>
			<point x="372" y="10"/>
			<point x="375" y="36" type="curve" smooth="yes"/>
		</contour>
		<contour>
			<point x="314" y="253" type="curve"/>
			<point x="334" y="456" type="line"/>
			<point x="325" y="456" type="line"/>
			<point x="320" y="402"/>
			<point x="259" y="301"/>
			<point x="231" y="301" type="curve" smooth="yes"/>
			<point x="217" y="301"/>
			<point x="208" y="317"/>
			<point x="210" y="336" type="curve" smooth="yes"/>
			<point x="215" y="382"/>
			<point x="225" y="482"/>
			<point x="284" y="482" type="curve"/>
			<point x="335" y="482" type="line"/>
			<point x="344" y="568" type="line"/>
			<point x="291" y="568" type="line"/>
			<point x="161" y="568"/>
			<point x="133" y="451"/>
			<point x="121" y="338" type="curve" smooth="yes"/>
			<point x="110" y="242"/>
			<point x="172" y="214"/>
			<point x="221" y="214" type="curve" smooth="yes"/>
			<point x="255" y="214"/>
			<point x="287" y="229"/>
		</contour>
	</outline>
</glyph>
<glyph name="colon" format="2">
	<advance width="232"/>
	<unicode hex="003A"/>
	<outline>
		<contour>
			<point x="125" y="175" type="curve" smooth="yes"/>
			<point x="155" y="175"/>
			<point x="179" y="202"/>
			<point x="177" y="232" type="curve" smooth="yes"/>
			<point x="175" y="261"/>
			<point x="147" y="285"/>
			<point x="118" y="285" type="curve" smooth="yes"/>
			<point x="87" y="285"/>
			<point x="65" y="259"/>
			<point x="67" y="231" type="curve" smooth="yes"/>
			<point x="69" y="203"/>
			<point x="95" y="175"/>
		</contour>
		<contour>
			<point x="103" y="-30" type="curve" smooth="yes"/>
			<point x="133" y="-30"/>
			<point x="157" y="-4"/>
			<point x="155" y="26" type="curve" smooth="yes"/>
			<point x="153" y="56"/>
			<point x="125" y="80"/>
			<point x="95" y="80" type="curve" smooth="yes"/>
			<point x="64" y="80"/>
			<point x="43" y="55"/>
			<point x="45" y="26" type="curve" smooth="yes"/>
			<point x="47" y="-3"/>
			<point x="72" y="-30"/>
		</contour>
	</outline>
</glyph>
<glyph name="semicolon" format="2">
	<advance width="191"/>
	<unicode hex="003B"/>
	<outline>
		<contour>
			<point x="131" y="39" type="line" smooth="yes"/>
			<point x="135" y="71"/>
			<point x="112" y="91"/>
			<point x="84" y="94" type="curve" smooth="yes"/>
			<point x="59" y="97"/>
			<point x="33" y="83"/>
			<point x="30" y="54" type="curve" smooth="yes"/>
			<point x="20" y="-45" type="line" smooth="yes"/>
			<point x="16" y="-78"/>
			<point x="42" y="-100"/>
			<point x="69" y="-102" type="curve" smooth="yes"/>
			<point x="92" y="-104"/>
			<point x="117" y="-89"/>
			<point x="120" y="-60" type="curve" smooth="yes"/>
		</contour>
		<contour>
			<point x="105" y="175" type="curve" smooth="yes"/>
			<point x="134" y="175"/>
			<point x="158" y="203"/>
			<point x="156" y="231" type="curve" smooth="yes"/>
			<point x="154" y="262"/>
			<point x="126" y="285"/>
			<point x="97" y="285" type="curve" smooth="yes"/>
			<point x="66" y="285"/>
			<point x="45" y="260"/>
			<point x="47" y="231" type="curve" smooth="yes"/>
			<point x="49" y="204"/>
			<point x="74" y="175"/>
		</contour>
	</outline>
</glyph>
<glyph name="less" format="2">
	<advance width="455"/>
	<unicode hex="003C"/>
	<outline>
		<contour>
			<point x="142" y="148" type="line"/>
			<point x="358" y="266" type="line" smooth="yes"/>
			<point x="387" y="281"/>
			<point x="394" y="301"/>
			<point x="386" y="323" type="curve" smooth="yes"/>
			<point x="378" y="347"/>
			<point x="347" y="363"/>
			<point x="317" y="348" type="curve" smooth="yes"/>
			<point x="85" y="220" type="line"/>
		</contour>
		<contour>
			<point x="290" y="49" type="line" smooth="yes"/>
			<point x="316" y="34"/>
			<point x="344" y="38"/>
			<point x="357" y="56" type="curve" smooth="yes"/>
			<point x="372" y="78"/>
			<point x="365" y="102"/>
			<point x="339" y="121" type="curve"/>
			<point x="160" y="229" type="line"/>
			<point x="135" y="246"/>
			<point x="104" y="239"/>
			<point x="92" y="217" type="curve" smooth="yes"/>
			<point x="80" y="195"/>
			<point x="85" y="175"/>
			<point x="111" y="158" type="curve" smooth="yes"/>
		</contour>
	</outline>
</glyph>
<glyph name="equal" format="2">
	<advance width="441"/>
	<unicode hex="003D"/>
	<outline>
		<contour>
			<point x="345" y="248" type="line" smooth="yes"/>
			<point x="375" y="248"/>
			<point x="394" y="266"/>
			<point x="393" y="290" type="curve" smooth="yes"/>
			<point x="391" y="314"/>
			<point x="369" y="333"/>
			<point x="339" y="333" type="curve" smooth="yes"/>
			<point x="121" y="333" type="line" smooth="yes"/>
			<point x="91" y="333"/>
			<point x="71" y="314"/>
			<point x="73" y="290" type="curve" smooth="yes"/>
			<point x="74" y="266"/>
			<point x="97" y="248"/>
			<point x="127" y="248" type="curve" smooth="yes"/>
		</contour>
		<contour>
			<point x="329" y="97" type="line" smooth="yes"/>
			<point x="359" y="97"/>
			<point x="379" y="116"/>
			<point x="377" y="141" type="curve" smooth="yes"/>
			<point x="375" y="165"/>
			<point x="353" y="182"/>
			<point x="323" y="182" type="curve" smooth="yes"/>
			<point x="105" y="182" type="line" smooth="yes"/>
			<point x="75" y="182"/>
			<point x="55" y="165"/>
			<point x="57" y="141" type="curve" smooth="yes"/>
			<point x="59" y="117"/>
			<point x="81" y="97"/>
			<point x="111" y="97" type="curve" smooth="yes"/>
		</contour>
	</outline>
</glyph>
<glyph name="greater" format="2">
  <advance width="416"/>
  <unicode hex="003E"/>
  <outline>
    <contour>
      <point x="339" y="173" type="line"/>
      <point x="282" y="245" type="line"/>
      <point x="65" y="127" type="line" smooth="yes"/>
      <point x="36" y="112"/>
      <point x="30" y="92"/>
      <point x="37" y="70" type="curve" smooth="yes"/>
      <point x="46" y="46"/>
      <point x="77" y="30"/>
      <point x="107" y="45" type="curve" smooth="yes"/>
    </contour>
    <contour>
      <point x="264" y="164" type="line"/>
      <point x="289" y="147"/>
      <point x="319" y="154"/>
      <point x="332" y="176" type="curve" smooth="yes"/>
      <point x="343" y="198"/>
      <point x="339" y="218"/>
      <point x="313" y="235" type="curve" smooth="yes"/>
      <point x="134" y="344" type="line" smooth="yes"/>
      <point x="108" y="359"/>
      <point x="79" y="355"/>
      <point x="66" y="337" type="curve" smooth="yes"/>
      <point x="52" y="315"/>
      <point x="59" y="291"/>
      <point x="85" y="272" type="curve"/>
    </contour>
  </outline>
</glyph>
<glyph name="question" format="2">
	<advance width="487"/>
	<unicode hex="003F"/>
	<outline>
		<contour>
			<point x="209" y="267" type="line"/>
			<point x="385" y="256"/>
			<point x="453" y="353"/>
			<point x="470" y="492" type="curve" smooth="yes"/>
			<point x="479" y="577"/>
			<point x="399" y="654"/>
			<point x="302" y="654" type="curve" smooth="yes"/>
			<point x="185" y="654"/>
			<point x="123" y="586"/>
			<point x="113" y="493" type="curve" smooth="yes"/>
			<point x="108" y="458"/>
			<point x="124" y="439"/>
			<point x="146" y="434" type="curve" smooth="yes"/>
			<point x="171" y="427"/>
			<point x="205" y="443"/>
			<point x="208" y="476" type="curve" smooth="yes"/>
			<point x="212" y="524"/>
			<point x="234" y="565"/>
			<point x="296" y="565" type="curve" smooth="yes"/>
			<point x="347" y="565"/>
			<point x="379" y="545"/>
			<point x="374" y="504" type="curve" smooth="yes"/>
			<point x="370" y="459"/>
			<point x="357" y="345"/>
			<point x="224" y="356" type="curve"/>
		</contour>
		<contour>
			<point x="197" y="-24" type="curve" smooth="yes"/>
			<point x="226" y="-24"/>
			<point x="252" y="2"/>
			<point x="250" y="32" type="curve" smooth="yes"/>
			<point x="248" y="61"/>
			<point x="220" y="86"/>
			<point x="190" y="86" type="curve" smooth="yes"/>
			<point x="159" y="86"/>
			<point x="138" y="60"/>
			<point x="140" y="32" type="curve" smooth="yes"/>
			<point x="142" y="4"/>
			<point x="167" y="-24"/>
		</contour>
		<contour>
			<point x="276" y="313" type="line" smooth="yes"/>
			<point x="279" y="338"/>
			<point x="254" y="356"/>
			<point x="225" y="356" type="curve" smooth="yes"/>
			<point x="204" y="356"/>
			<point x="183" y="342"/>
			<point x="181" y="321" type="curve" smooth="yes"/>
			<point x="171" y="233" type="line" smooth="yes"/>
			<point x="168" y="207"/>
			<point x="184" y="182"/>
			<point x="214" y="176" type="curve" smooth="yes"/>
			<point x="240" y="171"/>
			<point x="263" y="193"/>
			<point x="266" y="225" type="curve" smooth="yes"/>
		</contour>
	</outline>
</glyph>
<glyph name="at" format="2">
  <advance width="689"/>
  <unicode hex="0040"/>
  <outline>
    <contour>
      <point x="221" y="-2" type="curve" smooth="yes"/>
      <point x="284" y="-2"/>
      <point x="341" y="54"/>
      <point x="374" y="101" type="curve" smooth="yes"/>
      <point x="413" y="156"/>
      <point x="450" y="223"/>
      <point x="472" y="307" type="curve"/>
      <point x="416" y="307" type="line"/>
      <point x="391" y="258"/>
      <point x="365" y="211"/>
      <point x="331" y="163" type="curve" smooth="yes"/>
      <point x="282" y="97"/>
      <point x="261" y="86"/>
      <point x="256" y="86" type="curve" smooth="yes"/>
      <point x="251" y="86"/>
      <point x="249" y="104"/>
      <point x="249" y="110" type="curve" smooth="yes"/>
      <point x="249" y="133"/>
      <point x="258" y="195"/>
      <point x="274" y="225" type="curve" smooth="yes"/>
      <point x="294" y="264"/>
      <point x="326" y="271"/>
      <point x="350" y="271" type="curve" smooth="yes"/>
      <point x="428" y="271" type="line"/>
      <point x="438" y="350" type="line"/>
      <point x="345" y="350" type="line" smooth="yes"/>
      <point x="290" y="350"/>
      <point x="228" y="335"/>
      <point x="194" y="276" type="curve" smooth="yes"/>
      <point x="167" y="229"/>
      <point x="153" y="139"/>
      <point x="157" y="85" type="curve" smooth="yes"/>
      <point x="161" y="25"/>
      <point x="180" y="-2"/>
    </contour>
    <contour>
      <point x="236.0" y="-128.0" type="curve" smooth="yes"/>
      <point x="285" y="-128"/>
      <point x="329" y="-116"/>
      <point x="360" y="-96" type="curve" smooth="yes"/>
      <point x="407" y="-65"/>
      <point x="403" y="-43"/>
      <point x="388" y="-23" type="curve" smooth="yes"/>
      <point x="374" y="-4"/>
      <point x="353" y="5"/>
      <point x="323" y="-16" type="curve" smooth="yes"/>
      <point x="290" y="-40"/>
      <point x="253" y="-44"/>
      <point x="226.0" y="-44" type="curve" smooth="yes"/>
      <point x="143" y="-44"/>
      <point x="99" y="28"/>
      <point x="109" y="123" type="curve" smooth="yes"/>
      <point x="115" y="186"/>
      <point x="132" y="295"/>
      <point x="200" y="349" type="curve" smooth="yes"/>
      <point x="249" y="389"/>
      <point x="326" y="397"/>
      <point x="400.0" y="397.0" type="curve" smooth="yes"/>
      <point x="525" y="397"/>
      <point x="559" y="348"/>
      <point x="549" y="245" type="curve" smooth="yes"/>
      <point x="539" y="141.0"/>
      <point x="497.0" y="93.0"/>
      <point x="475.0" y="93.0" type="curve" smooth="yes"/>
      <point x="462" y="93"/>
      <point x="463" y="118"/>
      <point x="467" y="153" type="curve" smooth="yes"/>
      <point x="486" y="301" type="line" smooth="yes"/>
      <point x="490" y="333"/>
      <point x="471" y="352"/>
      <point x="446" y="350" type="curve" smooth="yes"/>
      <point x="403" y="346" type="line"/>
      <point x="377" y="149" type="line" smooth="yes"/>
      <point x="375" y="132"/>
      <point x="375" y="106"/>
      <point x="376" y="83" type="curve" smooth="yes"/>
      <point x="380" y="27"/>
      <point x="414" y="-1"/>
      <point x="460.0" y="-1" type="curve" smooth="yes"/>
      <point x="545" y="-1"/>
      <point x="636" y="120"/>
      <point x="643" y="224" type="curve" smooth="yes"/>
      <point x="655" y="391"/>
      <point x="575" y="487"/>
      <point x="396.0" y="487" type="curve" smooth="yes"/>
      <point x="310" y="487"/>
      <point x="207" y="473"/>
      <point x="142" y="422" type="curve" smooth="yes"/>
      <point x="53" y="353"/>
      <point x="28" y="227"/>
      <point x="18" y="130" type="curve" smooth="yes"/>
      <point x="4" y="-4"/>
      <point x="54" y="-128"/>
    </contour>
  </outline>
</glyph>
<glyph name="A" format="2">
	<advance width="510"/>
	<unicode hex="0041"/>
	<outline>
		<contour>
			<point x="312" y="492" type="line"/>
			<point x="376" y="604" type="line"/>
			<point x="379" y="630"/>
			<point x="357" y="650"/>
			<point x="326" y="650" type="curve" smooth="yes"/>
			<point x="292" y="650"/>
			<point x="285" y="636"/>
			<point x="277" y="616" type="curve"/>
			<point x="26" y="60" type="line" smooth="yes"/>
			<point x="9" y="24"/>
			<point x="37" y="0"/>
			<point x="67" y="0" type="curve" smooth="yes"/>
			<point x="94" y="0"/>
			<point x="109" y="8"/>
			<point x="120" y="33" type="curve" smooth="yes"/>
		</contour>
		<contour>
			<point x="214" y="292" type="line"/>
			<point x="345" y="292" type="line"/>
			<point x="331" y="372" type="line"/>
			<point x="248" y="372" type="line"/>
		</contour>
		<contour>
			<point x="375" y="619" type="line"/>
			<point x="306" y="506" type="line"/>
			<point x="370" y="40" type="line" smooth="yes"/>
			<point x="374" y="16"/>
			<point x="391" y="0"/>
			<point x="422" y="0" type="curve" smooth="yes"/>
			<point x="450" y="0"/>
			<point x="469" y="15"/>
			<point x="464" y="46" type="curve" smooth="yes"/>
		</contour>
	</outline>
</glyph>
<glyph name="B" format="2">
  <advance width="565"/>
  <unicode hex="0042"/>
  <outline>
    <contour>
      <point x="159" y="282" type="line"/>
      <point x="459" y="282"/>
      <point x="483" y="384"/>
      <point x="492" y="462" type="curve" smooth="yes"/>
      <point x="501" y="548"/>
      <point x="457" y="650"/>
      <point x="154" y="650" type="curve"/>
      <point x="143" y="559" type="line"/>
      <point x="420" y="559"/>
      <point x="401" y="494"/>
      <point x="397" y="467" type="curve" smooth="yes"/>
      <point x="392" y="435"/>
      <point x="367" y="358"/>
      <point x="167" y="358" type="curve"/>
    </contour>
    <contour>
      <point x="95" y="0" type="line"/>
      <point x="388" y="0"/>
      <point x="481" y="21"/>
      <point x="495" y="151" type="curve" smooth="yes"/>
      <point x="509" y="285"/>
      <point x="349" y="358"/>
      <point x="162" y="358" type="curve"/>
      <point x="153" y="282" type="line"/>
      <point x="330" y="282"/>
      <point x="408" y="241"/>
      <point x="401" y="168" type="curve" smooth="yes"/>
      <point x="394" y="99"/>
      <point x="321" y="96"/>
      <point x="103" y="96" type="curve"/>
    </contour>
    <contour>
      <point x="207" y="599" type="line" smooth="yes"/>
      <point x="212" y="643"/>
      <point x="180" y="650"/>
      <point x="156" y="650" type="curve" smooth="yes"/>
      <point x="132" y="650"/>
      <point x="111" y="642"/>
      <point x="107" y="609" type="curve" smooth="yes"/>
      <point x="48" y="53" type="line" smooth="yes"/>
      <point x="45" y="23"/>
      <point x="69" y="0"/>
      <point x="99" y="0" type="curve" smooth="yes"/>
      <point x="122" y="0"/>
      <point x="144" y="11"/>
      <point x="148" y="44" type="curve" smooth="yes"/>
    </contour>
  </outline>
</glyph>
<glyph name="C" format="2">
  <advance width="490"/>
  <unicode hex="0043"/>
  <outline>
    <contour>
      <point x="226" y="-4" type="curve" smooth="yes"/>
      <point x="335" y="-4"/>
      <point x="417" y="52"/>
      <point x="452" y="116" type="curve" smooth="yes"/>
      <point x="475" y="158"/>
      <point x="460" y="191"/>
      <point x="435" y="204" type="curve" smooth="yes"/>
      <point x="410" y="217"/>
      <point x="384" y="207"/>
      <point x="372" y="181" type="curve" smooth="yes"/>
      <point x="349" y="132"/>
      <point x="305" y="96"/>
      <point x="228" y="96" type="curve" smooth="yes"/>
      <point x="153" y="96"/>
      <point x="123" y="171"/>
      <point x="143" y="331" type="curve" smooth="yes"/>
      <point x="161" y="477"/>
      <point x="222" y="550"/>
      <point x="330" y="550" type="curve" smooth="yes"/>
      <point x="369" y="550"/>
      <point x="409" y="531"/>
      <point x="430" y="519" type="curve" smooth="yes"/>
      <point x="452" y="507"/>
      <point x="478" y="509"/>
      <point x="494" y="537" type="curve" smooth="yes"/>
      <point x="512" y="569"/>
      <point x="498" y="597"/>
      <point x="480" y="610" type="curve" smooth="yes"/>
      <point x="457" y="627"/>
      <point x="374" y="650"/>
      <point x="323" y="650" type="curve" smooth="yes"/>
      <point x="167" y="650"/>
      <point x="72" y="546"/>
      <point x="42" y="343" type="curve" smooth="yes"/>
      <point x="11" y="132"/>
      <point x="64" y="-4"/>
    </contour>
  </outline>
</glyph>
<glyph name="D" format="2">
  <advance width="555"/>
  <unicode hex="0044"/>
  <outline>
    <contour>
      <point x="96" y="0" type="line"/>
      <point x="174" y="0" type="line" smooth="yes"/>
      <point x="367" y="0"/>
      <point x="493" y="129"/>
      <point x="516" y="351" type="curve" smooth="yes"/>
      <point x="534" y="523"/>
      <point x="398" y="650"/>
      <point x="206" y="650" type="curve" smooth="yes"/>
      <point x="156" y="650" type="line"/>
      <point x="154" y="562" type="line"/>
      <point x="217" y="562" type="line" smooth="yes"/>
      <point x="355" y="562"/>
      <point x="433" y="473"/>
      <point x="420" y="350" type="curve" smooth="yes"/>
      <point x="401" y="177"/>
      <point x="311" y="89"/>
      <point x="168" y="89" type="curve" smooth="yes"/>
      <point x="108" y="89" type="line"/>
    </contour>
    <contour>
      <point x="207" y="600" type="line" smooth="yes"/>
      <point x="211" y="641"/>
      <point x="185" y="650"/>
      <point x="157" y="650" type="curve" smooth="yes"/>
      <point x="125" y="650"/>
      <point x="110" y="636"/>
      <point x="107" y="609" type="curve" smooth="yes"/>
      <point x="48" y="49" type="line" smooth="yes"/>
      <point x="45" y="21"/>
      <point x="66" y="0"/>
      <point x="98" y="0" type="curve" smooth="yes"/>
      <point x="125" y="0"/>
      <point x="145" y="15"/>
      <point x="148" y="41" type="curve" smooth="yes"/>
    </contour>
  </outline>
</glyph>
<glyph name="E" format="2">
  <advance width="575"/>
  <unicode hex="0045"/>
  <outline>
    <contour>
      <point x="206" y="597" type="line" smooth="yes"/>
      <point x="210" y="638"/>
      <point x="186" y="650"/>
      <point x="158" y="650" type="curve" smooth="yes"/>
      <point x="127" y="650"/>
      <point x="110" y="639"/>
      <point x="107" y="611" type="curve" smooth="yes"/>
      <point x="48" y="50" type="line" smooth="yes"/>
      <point x="45" y="22"/>
      <point x="58" y="0"/>
      <point x="88" y="0" type="curve" smooth="yes"/>
      <point x="120" y="0"/>
      <point x="145" y="18"/>
      <point x="147" y="40" type="curve" smooth="yes"/>
    </contour>
    <contour>
      <point x="95" y="0" type="line"/>
      <point x="436" y="0" type="line" smooth="yes"/>
      <point x="466" y="0"/>
      <point x="483" y="26"/>
      <point x="483" y="52" type="curve" smooth="yes"/>
      <point x="483" y="76"/>
      <point x="464" y="95"/>
      <point x="432" y="95" type="curve" smooth="yes"/>
      <point x="103" y="95" type="line"/>
    </contour>
    <contour>
      <point x="127" y="288" type="line"/>
      <point x="439" y="288" type="line" smooth="yes"/>
      <point x="471" y="288"/>
      <point x="490" y="307"/>
      <point x="490" y="331" type="curve" smooth="yes"/>
      <point x="490" y="357"/>
      <point x="468" y="373"/>
      <point x="438" y="373" type="curve" smooth="yes"/>
      <point x="137" y="373" type="line"/>
    </contour>
    <contour>
      <point x="155" y="555" type="line"/>
      <point x="495" y="555" type="line" smooth="yes"/>
      <point x="525" y="555"/>
      <point x="543" y="580"/>
      <point x="543" y="606" type="curve" smooth="yes"/>
      <point x="543" y="631"/>
      <point x="522" y="650"/>
      <point x="491" y="650" type="curve" smooth="yes"/>
      <point x="165" y="650" type="line"/>
    </contour>
  </outline>
</glyph>
<glyph name="F" format="2">
  <advance width="545"/>
  <unicode hex="0046"/>
  <outline>
    <contour>
      <point x="206" y="597" type="line" smooth="yes"/>
      <point x="210" y="638"/>
      <point x="184" y="650"/>
      <point x="156" y="650" type="curve" smooth="yes"/>
      <point x="125" y="650"/>
      <point x="110" y="638"/>
      <point x="107" y="610" type="curve" smooth="yes"/>
      <point x="48" y="54" type="line" smooth="yes"/>
      <point x="45" y="27"/>
      <point x="59" y="0"/>
      <point x="87" y="0" type="curve" smooth="yes"/>
      <point x="128" y="0"/>
      <point x="145" y="21"/>
      <point x="148" y="51" type="curve" smooth="yes"/>
    </contour>
    <contour>
      <point x="118" y="290" type="line"/>
      <point x="438" y="290" type="line" smooth="yes"/>
      <point x="470" y="290"/>
      <point x="484" y="309"/>
      <point x="484" y="333" type="curve" smooth="yes"/>
      <point x="484" y="359"/>
      <point x="463" y="375"/>
      <point x="433" y="375" type="curve" smooth="yes"/>
      <point x="127" y="375" type="line"/>
    </contour>
    <contour>
      <point x="146" y="555" type="line"/>
      <point x="492" y="555" type="line" smooth="yes"/>
      <point x="522" y="555"/>
      <point x="543" y="575"/>
      <point x="543" y="604" type="curve" smooth="yes"/>
      <point x="543" y="632"/>
      <point x="522" y="650"/>
      <point x="491" y="650" type="curve" smooth="yes"/>
      <point x="159" y="650" type="line"/>
    </contour>
  </outline>
</glyph>
<glyph name="G" format="2">
	<advance width="581"/>
	<unicode hex="0047"/>
	<outline>
		<contour>
			<point x="468" y="370" type="line"/>
			<point x="430" y="370"/>
			<point x="425" y="361"/>
			<point x="373" y="271" type="curve" smooth="yes"/>
			<point x="342" y="217"/>
			<point x="264" y="85"/>
			<point x="225" y="85" type="curve" smooth="yes"/>
			<point x="197" y="85"/>
			<point x="191" y="114"/>
			<point x="188" y="155" type="curve" smooth="yes"/>
			<point x="184" y="214"/>
			<point x="194" y="304"/>
			<point x="199" y="354" type="curve" smooth="yes"/>
			<point x="209" y="445"/>
			<point x="225" y="560"/>
			<point x="390" y="560" type="curve" smooth="yes"/>
			<point x="413" y="560"/>
			<point x="435" y="536"/>
			<point x="439" y="519" type="curve" smooth="yes"/>
			<point x="447" y="487"/>
			<point x="483" y="480"/>
			<point x="507" y="486" type="curve" smooth="yes"/>
			<point x="534" y="494"/>
			<point x="541" y="521"/>
			<point x="534" y="546" type="curve" smooth="yes"/>
			<point x="516" y="617"/>
			<point x="451" y="650"/>
			<point x="383" y="650" type="curve" smooth="yes"/>
			<point x="148" y="650"/>
			<point x="113" y="487"/>
			<point x="97" y="341" type="curve" smooth="yes"/>
			<point x="95" y="321"/>
			<point x="84" y="212"/>
			<point x="88" y="151" type="curve" smooth="yes"/>
			<point x="93" y="79"/>
			<point x="123" y="-4"/>
			<point x="219" y="-4" type="curve" smooth="yes"/>
			<point x="314" y="-4"/>
			<point x="402" y="153"/>
			<point x="465" y="265" type="curve"/>
		</contour>
		<contour>
			<point x="516" y="320" type="line" smooth="yes"/>
			<point x="519" y="351"/>
			<point x="498" y="370"/>
			<point x="467" y="370" type="curve" smooth="yes"/>
			<point x="428" y="370"/>
			<point x="417" y="343"/>
			<point x="415" y="327" type="curve" smooth="yes"/>
			<point x="386" y="49" type="line" smooth="yes"/>
			<point x="383" y="18"/>
			<point x="404" y="0"/>
			<point x="438" y="0" type="curve" smooth="yes"/>
			<point x="473" y="0"/>
			<point x="483" y="18"/>
			<point x="486" y="42" type="curve" smooth="yes"/>
		</contour>
	</outline>
</glyph>
<glyph name="H" format="2">
	<advance width="516"/>
	<unicode hex="0048"/>
	<outline>
		<contour>
			<point x="184" y="597" type="line" smooth="yes"/>
			<point x="188" y="632"/>
			<point x="170" y="650"/>
			<point x="141" y="650" type="curve" smooth="yes"/>
			<point x="114" y="650"/>
			<point x="88" y="637"/>
			<point x="85" y="609" type="curve" smooth="yes"/>
			<point x="27" y="49" type="line" smooth="yes"/>
			<point x="24" y="21"/>
			<point x="45" y="0"/>
			<point x="77" y="0" type="curve" smooth="yes"/>
			<point x="111" y="0"/>
			<point x="125" y="20"/>
			<point x="127" y="40" type="curve" smooth="yes"/>
		</contour>
		<contour>
			<point x="133" y="292" type="line"/>
			<point x="407" y="292" type="line"/>
			<point x="415" y="372" type="line"/>
			<point x="141" y="372" type="line"/>
		</contour>
		<contour>
			<point x="520" y="599" type="line" smooth="yes"/>
			<point x="523" y="631"/>
			<point x="502" y="650"/>
			<point x="471" y="650" type="curve" smooth="yes"/>
			<point x="443" y="650"/>
			<point x="423" y="635"/>
			<point x="421" y="613" type="curve" smooth="yes"/>
			<point x="362" y="49" type="line" smooth="yes"/>
			<point x="359" y="20"/>
			<point x="377" y="0"/>
			<point x="410" y="0" type="curve" smooth="yes"/>
			<point x="439" y="0"/>
			<point x="459" y="17"/>
			<point x="461" y="37" type="curve" smooth="yes"/>
		</contour>
	</outline>
</glyph>
<glyph name="I" format="2">
	<advance width="299"/>
	<unicode hex="0049"/>
	<outline>
		<contour>
			<point x="243" y="597" type="line" smooth="yes"/>
			<point x="247" y="639"/>
			<point x="222" y="650"/>
			<point x="197" y="650" type="curve" smooth="yes"/>
			<point x="168" y="650"/>
			<point x="147" y="637"/>
			<point x="144" y="609" type="curve" smooth="yes"/>
			<point x="85" y="49" type="line" smooth="yes"/>
			<point x="82" y="21"/>
			<point x="98" y="0"/>
			<point x="128" y="0" type="curve" smooth="yes"/>
			<point x="162" y="0"/>
			<point x="182" y="18"/>
			<point x="184" y="39" type="curve" smooth="yes"/>
		</contour>
	</outline>
</glyph>
<glyph name="J" format="2">
	<advance width="496"/>
	<unicode hex="004A"/>
	<outline>
		<contour>
			<point x="362" y="609" type="curve" smooth="yes"/>
			<point x="327" y="276" type="line" smooth="yes"/>
			<point x="320" y="213"/>
			<point x="321" y="152"/>
			<point x="292" y="122" type="curve" smooth="yes"/>
			<point x="275" y="103"/>
			<point x="243" y="94"/>
			<point x="222" y="94" type="curve" smooth="yes"/>
			<point x="186" y="94"/>
			<point x="161" y="118"/>
			<point x="151" y="127" type="curve" smooth="yes"/>
			<point x="131" y="146"/>
			<point x="94" y="147"/>
			<point x="76" y="119" type="curve" smooth="yes"/>
			<point x="66" y="105"/>
			<point x="70" y="78"/>
			<point x="84" y="63" type="curve" smooth="yes"/>
			<point x="102" y="44"/>
			<point x="141" y="-4"/>
			<point x="231" y="-4" type="curve" smooth="yes"/>
			<point x="286" y="-4"/>
			<point x="336" y="20"/>
			<point x="372" y="59" type="curve" smooth="yes"/>
			<point x="417" y="107"/>
			<point x="416" y="184"/>
			<point x="425" y="268" type="curve" smooth="yes"/>
			<point x="460" y="597" type="line" smooth="yes"/>
			<point x="464" y="639"/>
			<point x="440" y="650"/>
			<point x="415" y="650" type="curve" smooth="yes"/>
			<point x="386" y="650"/>
			<point x="365" y="637"/>
		</contour>
	</outline>
</glyph>
<glyph name="K" format="2">
	<advance width="516"/>
	<unicode hex="004B"/>
	<outline>
		<contour>
			<point x="217" y="320" type="line"/>
			<point x="496" y="562" type="line" smooth="yes"/>
			<point x="509" y="574"/>
			<point x="520" y="587"/>
			<point x="521" y="602" type="curve" smooth="yes"/>
			<point x="522" y="625"/>
			<point x="503" y="650"/>
			<point x="474" y="650" type="curve" smooth="yes"/>
			<point x="458" y="650"/>
			<point x="438" y="644"/>
			<point x="423" y="631" type="curve" smooth="yes"/>
			<point x="120" y="368" type="line"/>
			<point x="123" y="326" type="line"/>
		</contour>
		<contour>
			<point x="220" y="368" type="line"/>
			<point x="119" y="382" type="line"/>
			<point x="122" y="338" type="line"/>
			<point x="362" y="25" type="line" smooth="yes"/>
			<point x="374" y="9"/>
			<point x="393" y="0"/>
			<point x="412" y="0" type="curve" smooth="yes"/>
			<point x="432" y="0"/>
			<point x="454" y="10"/>
			<point x="457" y="31" type="curve" smooth="yes"/>
			<point x="459" y="44"/>
			<point x="457" y="60"/>
			<point x="446" y="74" type="curve" smooth="yes"/>
		</contour>
		<contour>
			<point x="185" y="597" type="line" smooth="yes"/>
			<point x="189" y="636"/>
			<point x="163" y="650"/>
			<point x="139" y="650" type="curve" smooth="yes"/>
			<point x="113" y="650"/>
			<point x="89" y="637"/>
			<point x="86" y="609" type="curve" smooth="yes"/>
			<point x="26" y="54" type="line" smooth="yes"/>
			<point x="23" y="24"/>
			<point x="46" y="0"/>
			<point x="78" y="0" type="curve" smooth="yes"/>
			<point x="109" y="0"/>
			<point x="123" y="19"/>
			<point x="126" y="45" type="curve" smooth="yes"/>
		</contour>
	</outline>
</glyph>
<glyph name="L" format="2">
	<advance width="516"/>
	<unicode hex="004C"/>
	<outline>
		<contour>
			<point x="184" y="597" type="line" smooth="yes"/>
			<point x="188" y="639"/>
			<point x="163" y="650"/>
			<point x="138" y="650" type="curve" smooth="yes"/>
			<point x="109" y="650"/>
			<point x="88" y="637"/>
			<point x="85" y="609" type="curve" smooth="yes"/>
			<point x="26" y="49" type="line" smooth="yes"/>
			<point x="23" y="21"/>
			<point x="39" y="0"/>
			<point x="69" y="0" type="curve" smooth="yes"/>
			<point x="103" y="0"/>
			<point x="123" y="18"/>
			<point x="125" y="39" type="curve" smooth="yes"/>
		</contour>
		<contour>
			<point x="70" y="0" type="line"/>
			<point x="415" y="0" type="line" smooth="yes"/>
			<point x="445" y="0"/>
			<point x="462" y="22"/>
			<point x="462" y="46" type="curve" smooth="yes"/>
			<point x="462" y="70"/>
			<point x="439" y="91"/>
			<point x="409" y="91" type="curve" smooth="yes"/>
			<point x="80" y="91" type="line"/>
		</contour>
	</outline>
</glyph>
<glyph name="M" format="2">
	<advance width="850"/>
	<unicode hex="004D"/>
	<outline>
		<contour>
			<point x="424" y="100" type="line"/>
			<point x="233" y="620" type="line" smooth="yes"/>
			<point x="225" y="641"/>
			<point x="199" y="650"/>
			<point x="173" y="650" type="curve"/>
			<point x="177" y="491" type="line"/>
			<point x="345" y="35" type="line" smooth="yes"/>
			<point x="353" y="13"/>
			<point x="382" y="0"/>
			<point x="418" y="0" type="curve"/>
		</contour>
		<contour>
			<point x="213" y="498" type="line"/>
			<point x="176" y="650" type="line"/>
			<point x="144" y="650"/>
			<point x="127" y="636"/>
			<point x="124" y="609" type="curve" smooth="yes"/>
			<point x="66" y="49" type="line" smooth="yes"/>
			<point x="63" y="21"/>
			<point x="83" y="0"/>
			<point x="112" y="0" type="curve" smooth="yes"/>
			<point x="145" y="0"/>
			<point x="164" y="19"/>
			<point x="166" y="42" type="curve" smooth="yes"/>
		</contour>
		<contour>
			<point x="711" y="0" type="curve"/>
			<point x="745" y="0"/>
			<point x="754" y="19"/>
			<point x="756" y="40" type="curve" smooth="yes"/>
			<point x="814" y="597" type="line" smooth="yes"/>
			<point x="817" y="629"/>
			<point x="801" y="650"/>
			<point x="768" y="650" type="curve"/>
			<point x="700" y="464" type="line"/>
			<point x="656" y="45" type="line" smooth="yes"/>
			<point x="653" y="19"/>
			<point x="681" y="0"/>
		</contour>
		<contour>
			<point x="405" y="103" type="line"/>
			<point x="412" y="0" type="line"/>
			<point x="448" y="0"/>
			<point x="465" y="13"/>
			<point x="478" y="35" type="curve" smooth="yes"/>
			<point x="728" y="462" type="line"/>
			<point x="770" y="650" type="line"/>
			<point x="734" y="650"/>
			<point x="720" y="641"/>
			<point x="708" y="620" type="curve" smooth="yes"/>
		</contour>
	</outline>
</glyph>
<glyph name="N" format="2">
	<advance width="558"/>
	<unicode hex="004E"/>
	<outline>
		<contour>
			<point x="462" y="126" type="line"/>
			<point x="189" y="620" type="line" smooth="yes"/>
			<point x="177" y="641"/>
			<point x="160" y="650"/>
			<point x="134" y="650" type="curve"/>
			<point x="109" y="569" type="line"/>
			<point x="409" y="28" type="line" smooth="yes"/>
			<point x="419" y="10"/>
			<point x="434" y="0"/>
			<point x="460" y="0" type="curve"/>
		</contour>
		<contour>
			<point x="184" y="592" type="line"/>
			<point x="137" y="650" type="line"/>
			<point x="105" y="650"/>
			<point x="88" y="636"/>
			<point x="85" y="609" type="curve" smooth="yes"/>
			<point x="27" y="49" type="line" smooth="yes"/>
			<point x="24" y="21"/>
			<point x="44" y="0"/>
			<point x="73" y="0" type="curve" smooth="yes"/>
			<point x="106" y="0"/>
			<point x="125" y="19"/>
			<point x="127" y="42" type="curve" smooth="yes"/>
		</contour>
		<contour>
			<point x="459" y="0" type="line"/>
			<point x="493" y="0"/>
			<point x="502" y="19"/>
			<point x="504" y="40" type="curve" smooth="yes"/>
			<point x="562" y="597" type="line" smooth="yes"/>
			<point x="565" y="629"/>
			<point x="548" y="653"/>
			<point x="515" y="653" type="curve" smooth="yes"/>
			<point x="487" y="653"/>
			<point x="466" y="637"/>
			<point x="463" y="609" type="curve" smooth="yes"/>
			<point x="410" y="105" type="line"/>
		</contour>
	</outline>
</glyph>
<glyph name="O" format="2">
  <advance width="548"/>
  <unicode hex="004F"/>
  <outline>
    <contour>
      <point x="201" y="-4" type="curve" smooth="yes"/>
      <point x="342" y="-4"/>
      <point x="482" y="212"/>
      <point x="504" y="429" type="curve" smooth="yes"/>
      <point x="516" y="548"/>
      <point x="427" y="652"/>
      <point x="299" y="652" type="curve" smooth="yes"/>
      <point x="155" y="652"/>
      <point x="54" y="521"/>
      <point x="54" y="274" type="curve" smooth="yes"/>
      <point x="54" y="120"/>
      <point x="82" y="-4"/>
    </contour>
    <contour>
      <point x="211" y="86" type="curve" smooth="yes"/>
      <point x="160" y="86"/>
      <point x="154" y="187"/>
      <point x="154" y="276" type="curve" smooth="yes"/>
      <point x="154" y="438"/>
      <point x="208" y="562"/>
      <point x="301" y="562" type="curve" smooth="yes"/>
      <point x="390" y="562"/>
      <point x="411" y="507"/>
      <point x="403" y="427" type="curve" smooth="yes"/>
      <point x="389" y="281"/>
      <point x="279" y="86"/>
    </contour>
  </outline>
</glyph>
<glyph name="P" format="2">
	<advance width="468"/>
	<unicode hex="0050"/>
	<outline>
		<contour>
			<point x="127" y="268" type="line"/>
			<point x="261" y="269"/>
			<point x="449" y="289"/>
			<point x="468" y="467" type="curve" smooth="yes"/>
			<point x="483" y="602"/>
			<point x="342" y="656"/>
			<point x="131" y="652" type="curve"/>
			<point x="138" y="561" type="line"/>
			<point x="320" y="564"/>
			<point x="385" y="535"/>
			<point x="378" y="472" type="curve" smooth="yes"/>
			<point x="368" y="382"/>
			<point x="229" y="359"/>
			<point x="136" y="358" type="curve"/>
		</contour>
		<contour>
			<point x="184" y="597" type="line" smooth="yes"/>
			<point x="188" y="639"/>
			<point x="160" y="652"/>
			<point x="135" y="652" type="curve" smooth="yes"/>
			<point x="105" y="652"/>
			<point x="88" y="637"/>
			<point x="85" y="609" type="curve" smooth="yes"/>
			<point x="26" y="48" type="line" smooth="yes"/>
			<point x="23" y="21"/>
			<point x="43" y="-6"/>
			<point x="76" y="-6" type="curve" smooth="yes"/>
			<point x="110" y="-6"/>
			<point x="124" y="17"/>
			<point x="126" y="39" type="curve" smooth="yes"/>
		</contour>
	</outline>
</glyph>
<glyph name="Q" format="2">
	<advance width="508"/>
	<unicode hex="0051"/>
	<outline>
		<contour>
			<point x="285" y="158" type="line"/>
			<point x="257" y="180"/>
			<point x="222" y="179"/>
			<point x="209" y="161" type="curve" smooth="yes"/>
			<point x="194" y="143"/>
			<point x="193" y="117"/>
			<point x="218" y="94" type="curve" smooth="yes"/>
			<point x="348" y="-30" type="line" smooth="yes"/>
			<point x="372" y="-52"/>
			<point x="405" y="-54"/>
			<point x="423" y="-38" type="curve" smooth="yes"/>
			<point x="444" y="-20"/>
			<point x="439" y="9"/>
			<point x="418" y="30" type="curve" smooth="yes"/>
		</contour>
		<contour>
			<point x="190" y="-4" type="curve" smooth="yes"/>
			<point x="360" y="-4"/>
			<point x="485" y="242"/>
			<point x="504" y="429" type="curve" smooth="yes"/>
			<point x="516" y="548"/>
			<point x="427" y="652"/>
			<point x="299" y="652" type="curve" smooth="yes"/>
			<point x="171" y="652"/>
			<point x="100" y="555"/>
			<point x="68" y="410" type="curve" smooth="yes"/>
			<point x="60" y="370"/>
			<point x="54" y="325"/>
			<point x="54" y="283" type="curve" smooth="yes"/>
			<point x="52" y="150"/>
			<point x="70" y="-4"/>
		</contour>
		<contour>
			<point x="200" y="86" type="curve" smooth="yes"/>
			<point x="158" y="86"/>
			<point x="153" y="187"/>
			<point x="154" y="269" type="curve" smooth="yes"/>
			<point x="154" y="308"/>
			<point x="158" y="348"/>
			<point x="164" y="378" type="curve" smooth="yes"/>
			<point x="190" y="505"/>
			<point x="224" y="562"/>
			<point x="301" y="562" type="curve" smooth="yes"/>
			<point x="405" y="562"/>
			<point x="409" y="482"/>
			<point x="403" y="425" type="curve" smooth="yes"/>
			<point x="387" y="279"/>
			<point x="277" y="86"/>
		</contour>
	</outline>
</glyph>
<glyph name="R" format="2">
	<advance width="507"/>
	<unicode hex="0052"/>
	<outline>
		<contour>
			<point x="133" y="274" type="line"/>
			<point x="299" y="274"/>
			<point x="487" y="289"/>
			<point x="506" y="467" type="curve" smooth="yes"/>
			<point x="521" y="602"/>
			<point x="381" y="650"/>
			<point x="134" y="650" type="curve"/>
			<point x="140" y="559" type="line"/>
			<point x="356" y="562"/>
			<point x="416" y="533"/>
			<point x="409" y="470" type="curve" smooth="yes"/>
			<point x="400" y="382"/>
			<point x="269" y="359"/>
			<point x="142" y="359" type="curve"/>
		</contour>
		<contour>
			<point x="257" y="289" type="line"/>
			<point x="136" y="285" type="line"/>
			<point x="370" y="23" type="line" smooth="yes"/>
			<point x="388" y="2"/>
			<point x="404" y="0"/>
			<point x="417" y="0" type="curve" smooth="yes"/>
			<point x="436" y="0"/>
			<point x="456" y="11"/>
			<point x="460" y="29" type="curve" smooth="yes"/>
			<point x="463" y="42"/>
			<point x="464" y="57"/>
			<point x="453" y="69" type="curve" smooth="yes"/>
		</contour>
		<contour>
			<point x="184" y="597" type="line" smooth="yes"/>
			<point x="188" y="638"/>
			<point x="166" y="650"/>
			<point x="138" y="650" type="curve" smooth="yes"/>
			<point x="107" y="650"/>
			<point x="88" y="637"/>
			<point x="85" y="609" type="curve" smooth="yes"/>
			<point x="26" y="54" type="line" smooth="yes"/>
			<point x="23" y="24"/>
			<point x="37" y="0"/>
			<point x="69" y="0" type="curve" smooth="yes"/>
			<point x="108" y="0"/>
			<point x="123" y="23"/>
			<point x="126" y="53" type="curve" smooth="yes"/>
		</contour>
	</outline>
</glyph>
<glyph name="S" format="2">
	<advance width="522"/>
	<unicode hex="0053"/>
	<outline>
		<contour>
			<point x="251" y="94" type="curve" smooth="yes"/>
			<point x="189" y="94"/>
			<point x="172" y="103"/>
			<point x="166" y="124" type="curve" smooth="yes"/>
			<point x="158" y="153"/>
			<point x="124" y="160"/>
			<point x="103" y="154" type="curve" smooth="yes"/>
			<point x="78" y="148"/>
			<point x="69" y="126"/>
			<point x="76" y="102" type="curve" smooth="yes"/>
			<point x="93" y="34"/>
			<point x="140" y="0"/>
			<point x="214" y="0" type="curve" smooth="yes"/>
			<point x="351" y="0"/>
			<point x="458" y="51"/>
			<point x="472" y="174" type="curve" smooth="yes"/>
			<point x="483" y="285"/>
			<point x="398" y="341"/>
			<point x="333" y="385" type="curve" smooth="yes"/>
			<point x="280" y="421"/>
			<point x="213" y="456"/>
			<point x="211" y="484" type="curve" smooth="yes"/>
			<point x="208" y="522"/>
			<point x="271" y="556"/>
			<point x="349" y="556" type="curve" smooth="yes"/>
			<point x="393" y="556"/>
			<point x="410" y="549"/>
			<point x="415" y="526" type="curve" smooth="yes"/>
			<point x="422" y="496"/>
			<point x="460" y="489"/>
			<point x="481" y="495" type="curve" smooth="yes"/>
			<point x="506" y="503"/>
			<point x="513" y="524"/>
			<point x="508" y="548" type="curve" smooth="yes"/>
			<point x="489" y="621"/>
			<point x="438" y="650"/>
			<point x="358" y="650" type="curve" smooth="yes"/>
			<point x="201" y="650"/>
			<point x="108" y="573"/>
			<point x="114" y="480" type="curve" smooth="yes"/>
			<point x="121" y="392"/>
			<point x="214" y="352"/>
			<point x="271" y="313" type="curve" smooth="yes"/>
			<point x="338" y="266"/>
			<point x="380" y="227"/>
			<point x="376" y="184" type="curve" smooth="yes"/>
			<point x="370" y="122"/>
			<point x="322" y="94"/>
		</contour>
	</outline>
</glyph>
<glyph name="T" format="2">
	<advance width="596"/>
	<unicode hex="0054"/>
	<outline>
		<contour>
			<point x="391" y="576" type="line"/>
			<point x="290" y="576" type="line"/>
			<point x="234" y="49" type="line" smooth="yes"/>
			<point x="231" y="21"/>
			<point x="252" y="-2"/>
			<point x="283" y="-2" type="curve" smooth="yes"/>
			<point x="316" y="-2"/>
			<point x="331" y="22"/>
			<point x="334" y="43" type="curve" smooth="yes"/>
		</contour>
		<contour>
			<point x="514" y="563" type="line" smooth="yes"/>
			<point x="546" y="563"/>
			<point x="562" y="583"/>
			<point x="561" y="607" type="curve" smooth="yes"/>
			<point x="559" y="633"/>
			<point x="537" y="653"/>
			<point x="507" y="653" type="curve" smooth="yes"/>
			<point x="172" y="653" type="line" smooth="yes"/>
			<point x="142" y="653"/>
			<point x="124" y="633"/>
			<point x="126" y="607" type="curve" smooth="yes"/>
			<point x="127" y="583"/>
			<point x="147" y="563"/>
			<point x="179" y="563" type="curve" smooth="yes"/>
		</contour>
	</outline>
</glyph>
<glyph name="U" format="2">
  <advance width="580"/>
  <unicode hex="0055"/>
  <outline>
    <contour>
      <point x="152" y="-4" type="curve" smooth="yes"/>
      <point x="237" y="-4"/>
      <point x="326" y="107"/>
      <point x="411" y="273" type="curve"/>
      <point x="445" y="549" type="line"/>
      <point x="422" y="549" type="line"/>
      <point x="402" y="343"/>
      <point x="209" y="86"/>
      <point x="166" y="86" type="curve" smooth="yes"/>
      <point x="143" y="86"/>
      <point x="141" y="125"/>
      <point x="149" y="195" type="curve" smooth="yes"/>
      <point x="194" y="600" type="line" smooth="yes"/>
      <point x="197" y="629"/>
      <point x="175" y="650"/>
      <point x="146" y="650" type="curve" smooth="yes"/>
      <point x="113" y="651"/>
      <point x="96" y="624"/>
      <point x="94" y="606" type="curve" smooth="yes"/>
      <point x="48" y="195" type="line" smooth="yes"/>
      <point x="33" y="57"/>
      <point x="67" y="-4"/>
    </contour>
    <contour>
      <point x="418" y="0" type="curve" smooth="yes"/>
      <point x="443" y="0"/>
      <point x="465" y="12"/>
      <point x="468" y="44" type="curve" smooth="yes"/>
      <point x="528" y="602" type="line" smooth="yes"/>
      <point x="531" y="630"/>
      <point x="512" y="650"/>
      <point x="478" y="650" type="curve" smooth="yes"/>
      <point x="450" y="650"/>
      <point x="430" y="635"/>
      <point x="428" y="612" type="curve" smooth="yes"/>
      <point x="369" y="49" type="line" smooth="yes"/>
      <point x="366" y="16"/>
      <point x="390" y="0"/>
    </contour>
  </outline>
</glyph>
<glyph name="V" format="2">
  <advance width="472"/>
  <unicode hex="0056"/>
  <outline>
    <contour>
      <point x="206" y="-2" type="line"/>
      <point x="235" y="-2"/>
      <point x="248" y="15"/>
      <point x="256" y="34" type="curve" smooth="yes"/>
      <point x="477" y="591" type="line" smooth="yes"/>
      <point x="491" y="625"/>
      <point x="469" y="650"/>
      <point x="437" y="650" type="curve" smooth="yes"/>
      <point x="408" y="650"/>
      <point x="388" y="638"/>
      <point x="380" y="618" type="curve" smooth="yes"/>
      <point x="175" y="98" type="line"/>
    </contour>
    <contour>
      <point x="247" y="98" type="line"/>
      <point x="165" y="610" type="line" smooth="yes"/>
      <point x="161" y="633"/>
      <point x="140" y="650"/>
      <point x="108" y="650" type="curve" smooth="yes"/>
      <point x="79" y="650"/>
      <point x="60" y="634"/>
      <point x="65" y="604" type="curve" smooth="yes"/>
      <point x="154" y="44" type="line" smooth="yes"/>
      <point x="158" y="19"/>
      <point x="178" y="-1"/>
      <point x="208" y="-2" type="curve"/>
    </contour>
  </outline>
</glyph>
<glyph name="W" format="2">
	<advance width="817"/>
	<unicode hex="0057"/>
	<outline>
		<contour>
			<point x="548" y="0" type="line"/>
			<point x="579" y="0"/>
			<point x="591" y="12"/>
			<point x="600" y="33" type="curve" smooth="yes"/>
			<point x="840" y="591" type="line" smooth="yes"/>
			<point x="850" y="615"/>
			<point x="835" y="650"/>
			<point x="797" y="650" type="curve" smooth="yes"/>
			<point x="765" y="650"/>
			<point x="748" y="630"/>
			<point x="742" y="616" type="curve" smooth="yes"/>
			<point x="550" y="171" type="line"/>
		</contour>
		<contour>
			<point x="241" y="139" type="line"/>
			<point x="166" y="610" type="line" smooth="yes"/>
			<point x="162" y="633"/>
			<point x="142" y="650"/>
			<point x="110" y="650" type="curve" smooth="yes"/>
			<point x="81" y="650"/>
			<point x="61" y="634"/>
			<point x="66" y="604" type="curve" smooth="yes"/>
			<point x="155" y="44" type="line" smooth="yes"/>
			<point x="160" y="15"/>
			<point x="179" y="0"/>
			<point x="213" y="0" type="curve"/>
		</contour>
		<contour>
			<point x="212" y="0" type="line"/>
			<point x="243" y="0"/>
			<point x="265" y="14"/>
			<point x="273" y="34" type="curve" smooth="yes"/>
			<point x="452" y="479" type="line"/>
			<point x="453" y="650" type="line"/>
			<point x="420" y="650"/>
			<point x="408" y="631"/>
			<point x="403" y="619" type="curve" smooth="yes"/>
			<point x="213" y="147" type="line"/>
		</contour>
		<contour>
			<point x="574" y="171" type="line"/>
			<point x="509" y="610" type="line" smooth="yes"/>
			<point x="505" y="635"/>
			<point x="487" y="650"/>
			<point x="452" y="650" type="curve"/>
			<point x="429" y="483" type="line"/>
			<point x="496" y="32" type="line" smooth="yes"/>
			<point x="499" y="15"/>
			<point x="517" y="0"/>
			<point x="547" y="0" type="curve"/>
		</contour>
	</outline>
</glyph>
<glyph name="X" format="2">
	<advance width="498"/>
	<unicode hex="0058"/>
	<outline>
		<contour>
			<point x="494" y="578" type="line" smooth="yes"/>
			<point x="510" y="602"/>
			<point x="503" y="623"/>
			<point x="484" y="639" type="curve" smooth="yes"/>
			<point x="465" y="655"/>
			<point x="426" y="656"/>
			<point x="409" y="631" type="curve" smooth="yes"/>
			<point x="34" y="69" type="line" smooth="yes"/>
			<point x="20" y="48"/>
			<point x="24" y="29"/>
			<point x="43" y="13" type="curve" smooth="yes"/>
			<point x="63" y="-3"/>
			<point x="103" y="-8"/>
			<point x="119" y="16" type="curve" smooth="yes"/>
		</contour>
		<contour>
			<point x="188" y="623" type="line" smooth="yes"/>
			<point x="175" y="651"/>
			<point x="140" y="654"/>
			<point x="118" y="647" type="curve" smooth="yes"/>
			<point x="92" y="637"/>
			<point x="83" y="617"/>
			<point x="97" y="586" type="curve" smooth="yes"/>
			<point x="346" y="28" type="line" smooth="yes"/>
			<point x="359" y="-1"/>
			<point x="399" y="-6"/>
			<point x="422" y="6" type="curve" smooth="yes"/>
			<point x="442" y="17"/>
			<point x="450" y="36"/>
			<point x="439" y="61" type="curve" smooth="yes"/>
		</contour>
	</outline>
</glyph>
<glyph name="Y" format="2">
  <advance width="450"/>
  <unicode hex="0059"/>
  <outline>
    <contour>
      <point x="54" y="653" type="curve" smooth="yes"/>
      <point x="23" y="643"/>
      <point x="19" y="614"/>
      <point x="30" y="590" type="curve" smooth="yes"/>
      <point x="201" y="223" type="line"/>
      <point x="260" y="314" type="line"/>
      <point x="123" y="627" type="line" smooth="yes"/>
      <point x="113" y="650"/>
      <point x="85" y="664"/>
    </contour>
    <contour>
      <point x="61" y="9" type="curve" smooth="yes"/>
      <point x="81" y="-7"/>
      <point x="123" y="-2"/>
      <point x="137" y="22" type="curve" smooth="yes"/>
      <point x="469" y="578" type="line" smooth="yes"/>
      <point x="483" y="602"/>
      <point x="476" y="630"/>
      <point x="450" y="645" type="curve" smooth="yes"/>
      <point x="429" y="656"/>
      <point x="396" y="650"/>
      <point x="380" y="624" type="curve" smooth="yes"/>
      <point x="50" y="75" type="line" smooth="yes"/>
      <point x="37" y="54"/>
      <point x="42" y="25"/>
    </contour>
  </outline>
</glyph>
<glyph name="Z" format="2">
	<advance width="579"/>
	<unicode hex="005A"/>
	<outline>
		<contour>
			<point x="534" y="577" type="line" smooth="yes"/>
			<point x="546" y="595"/>
			<point x="548" y="614"/>
			<point x="539" y="629" type="curve" smooth="yes"/>
			<point x="530" y="644"/>
			<point x="512" y="653"/>
			<point x="488" y="653" type="curve" smooth="yes"/>
			<point x="474" y="653"/>
			<point x="458" y="644"/>
			<point x="451" y="633" type="curve" smooth="yes"/>
			<point x="73" y="70" type="line" smooth="yes"/>
			<point x="64" y="57"/>
			<point x="60" y="39"/>
			<point x="69" y="23" type="curve" smooth="yes"/>
			<point x="76" y="11"/>
			<point x="95" y="0"/>
			<point x="124" y="0" type="curve" smooth="yes"/>
			<point x="140" y="0"/>
			<point x="153" y="10"/>
			<point x="158" y="17" type="curve" smooth="yes"/>
		</contour>
		<contour>
			<point x="121" y="0" type="line"/>
			<point x="436" y="0" type="line" smooth="yes"/>
			<point x="468" y="0"/>
			<point x="485" y="19"/>
			<point x="483" y="43" type="curve" smooth="yes"/>
			<point x="481" y="69"/>
			<point x="460" y="90"/>
			<point x="430" y="90" type="curve" smooth="yes"/>
			<point x="194" y="90" type="line"/>
		</contour>
		<contour>
			<point x="417" y="563" type="line"/>
			<point x="490" y="653" type="line"/>
			<point x="172" y="653" type="line" smooth="yes"/>
			<point x="142" y="653"/>
			<point x="124" y="633"/>
			<point x="126" y="607" type="curve" smooth="yes"/>
			<point x="127" y="583"/>
			<point x="147" y="563"/>
			<point x="179" y="563" type="curve" smooth="yes"/>
		</contour>
	</outline>
</glyph>
<glyph name="bracketleft" format="2">
	<advance width="397"/>
	<unicode hex="005B"/>
	<outline>
		<contour>
			<point x="225" y="600" type="line" smooth="yes"/>
			<point x="229" y="640"/>
			<point x="204" y="650"/>
			<point x="177" y="650" type="curve" smooth="yes"/>
			<point x="147" y="650"/>
			<point x="127" y="637"/>
			<point x="124" y="609" type="curve" smooth="yes"/>
			<point x="33" y="-251" type="line" smooth="yes"/>
			<point x="30" y="-279"/>
			<point x="51" y="-300"/>
			<point x="85" y="-300" type="curve" smooth="yes"/>
			<point x="118" y="-300"/>
			<point x="131" y="-278"/>
			<point x="134" y="-255" type="curve" smooth="yes"/>
		</contour>
		<contour>
			<point x="83" y="-300" type="line"/>
			<point x="221" y="-300" type="line" smooth="yes"/>
			<point x="251" y="-300"/>
			<point x="267" y="-284"/>
			<point x="270" y="-258" type="curve" smooth="yes"/>
			<point x="273" y="-230"/>
			<point x="246" y="-215"/>
			<point x="215" y="-215" type="curve" smooth="yes"/>
			<point x="89" y="-215" type="line"/>
		</contour>
		<contour>
			<point x="170" y="565" type="line"/>
			<point x="313" y="565" type="line" smooth="yes"/>
			<point x="341" y="565"/>
			<point x="359" y="582"/>
			<point x="362" y="605" type="curve" smooth="yes"/>
			<point x="365" y="633"/>
			<point x="337" y="650"/>
			<point x="308" y="650" type="curve" smooth="yes"/>
			<point x="175" y="650" type="line"/>
		</contour>
	</outline>
</glyph>
<glyph name="backslash" format="2">
  <advance width="596"/>
  <unicode hex="005C"/>
  <outline>
    <contour>
      <point x="204" y="614" type="line" smooth="yes"/>
      <point x="187" y="648"/>
      <point x="155" y="655"/>
      <point x="131" y="646" type="curve" smooth="yes"/>
      <point x="109" y="638"/>
      <point x="97" y="608"/>
      <point x="115" y="574" type="curve" smooth="yes"/>
      <point x="388" y="32" type="line" smooth="yes"/>
      <point x="403" y="1"/>
      <point x="437" y="-6"/>
      <point x="462" y="4" type="curve" smooth="yes"/>
      <point x="482" y="13"/>
      <point x="492" y="41"/>
      <point x="478" y="69" type="curve" smooth="yes"/>
    </contour>
  </outline>
</glyph>
<glyph name="bracketright" format="2">
	<advance width="396"/>
	<unicode hex="005D"/>
	<outline>
		<contour>
			<point x="361" y="601" type="line" smooth="yes"/>
			<point x="364" y="629"/>
			<point x="343" y="650"/>
			<point x="309" y="650" type="curve" smooth="yes"/>
			<point x="275" y="650"/>
			<point x="263" y="632"/>
			<point x="260" y="610" type="curve" smooth="yes"/>
			<point x="169" y="-246" type="line" smooth="yes"/>
			<point x="164" y="-291"/>
			<point x="190" y="-300"/>
			<point x="217" y="-300" type="curve" smooth="yes"/>
			<point x="248" y="-300"/>
			<point x="266" y="-287"/>
			<point x="269" y="-259" type="curve" smooth="yes"/>
		</contour>
		<contour>
			<point x="218" y="-300" type="line"/>
			<point x="226" y="-215" type="line"/>
			<point x="81" y="-215" type="line" smooth="yes"/>
			<point x="55" y="-215"/>
			<point x="35" y="-233"/>
			<point x="33" y="-257" type="curve" smooth="yes"/>
			<point x="31" y="-281"/>
			<point x="53" y="-300"/>
			<point x="87" y="-300" type="curve" smooth="yes"/>
		</contour>
		<contour>
			<point x="299" y="565" type="line"/>
			<point x="310" y="650" type="line"/>
			<point x="174" y="650" type="line" smooth="yes"/>
			<point x="143" y="650"/>
			<point x="128" y="634"/>
			<point x="125" y="607" type="curve" smooth="yes"/>
			<point x="122" y="583"/>
			<point x="148" y="565"/>
			<point x="179" y="565" type="curve" smooth="yes"/>
		</contour>
	</outline>
</glyph>
<glyph name="asciicircum" format="2">
	<advance width="489"/>
	<unicode hex="005E"/>
	<outline>
		<contour>
			<point x="325" y="569" type="line" smooth="yes"/>
			<point x="350" y="590"/>
			<point x="346" y="617"/>
			<point x="327" y="635" type="curve" smooth="yes"/>
			<point x="308" y="653"/>
			<point x="274" y="657"/>
			<point x="252" y="638" type="curve" smooth="yes"/>
			<point x="127" y="527" type="line" smooth="yes"/>
			<point x="105" y="507"/>
			<point x="110" y="481"/>
			<point x="125" y="464" type="curve" smooth="yes"/>
			<point x="144" y="442"/>
			<point x="179" y="439"/>
			<point x="202" y="459" type="curve" smooth="yes"/>
		</contour>
		<contour>
			<point x="327" y="635" type="line"/>
			<point x="256" y="573" type="line"/>
			<point x="356" y="464" type="line" smooth="yes"/>
			<point x="376" y="441"/>
			<point x="411" y="443"/>
			<point x="428" y="460" type="curve" smooth="yes"/>
			<point x="446" y="477"/>
			<point x="448" y="502"/>
			<point x="427" y="525" type="curve" smooth="yes"/>
		</contour>
	</outline>
</glyph>
<glyph name="underscore" format="2">
	<advance width="515"/>
	<unicode hex="005F"/>
	<outline>
		<contour>
			<point x="381" y="-99" type="line" smooth="yes"/>
			<point x="412" y="-99"/>
			<point x="432" y="-79"/>
			<point x="430" y="-54" type="curve" smooth="yes"/>
			<point x="428" y="-30"/>
			<point x="406" y="-10"/>
			<point x="375" y="-10" type="curve" smooth="yes"/>
			<point x="86" y="-10" type="line" smooth="yes"/>
			<point x="54" y="-10"/>
			<point x="35" y="-30"/>
			<point x="37" y="-55" type="curve" smooth="yes"/>
			<point x="39" y="-79"/>
			<point x="62" y="-99"/>
			<point x="92" y="-99" type="curve" smooth="yes"/>
		</contour>
	</outline>
</glyph>
<glyph name="grave" format="2">
	<advance width="246"/>
	<unicode hex="0060"/>
	<outline>
		<contour>
			<point x="190" y="669" type="line" smooth="yes"/>
			<point x="180" y="690"/>
			<point x="155" y="700"/>
			<point x="135" y="700" type="curve" smooth="yes"/>
			<point x="102" y="698"/>
			<point x="74" y="669"/>
			<point x="102" y="630" type="curve" smooth="yes"/>
			<point x="165" y="542" type="line" smooth="yes"/>
			<point x="185" y="515"/>
			<point x="210" y="508"/>
			<point x="229" y="519" type="curve" smooth="yes"/>
			<point x="247" y="530"/>
			<point x="249" y="547"/>
			<point x="236" y="573" type="curve" smooth="yes"/>
		</contour>
	</outline>
</glyph>
<glyph name="a" format="2">
  <advance width="369"/>
  <unicode hex="0061"/>
  <outline>
    <contour>
      <point x="91" y="-4" type="curve" smooth="yes"/>
      <point x="141" y="-4"/>
      <point x="179" y="34"/>
      <point x="205" y="67" type="curve"/>
      <point x="215" y="180" type="line"/>
      <point x="176" y="114"/>
      <point x="144" y="83"/>
      <point x="110" y="83" type="curve" smooth="yes"/>
      <point x="92" y="83"/>
      <point x="85" y="101"/>
      <point x="85" y="130" type="curve" smooth="yes"/>
      <point x="85" y="184"/>
      <point x="107" y="267"/>
      <point x="199" y="267" type="curve"/>
      <point x="226" y="267" type="line"/>
      <point x="235" y="350" type="line"/>
      <point x="195" y="350" type="line"/>
      <point x="39" y="350"/>
      <point x="-4" y="231"/>
      <point x="-4" y="120" type="curve" smooth="yes"/>
      <point x="-4" y="48"/>
      <point x="39" y="-4"/>
    </contour>
    <contour>
      <point x="227" y="0" type="curve" smooth="yes"/>
      <point x="263" y="0"/>
      <point x="273" y="22"/>
      <point x="275" y="37" type="curve" smooth="yes"/>
      <point x="302" y="295" type="line" smooth="yes"/>
      <point x="305" y="325"/>
      <point x="286" y="350"/>
      <point x="261" y="350" type="curve" smooth="yes"/>
      <point x="215" y="350" type="line"/>
      <point x="180" y="44" type="line" smooth="yes"/>
      <point x="177" y="21"/>
      <point x="195" y="0"/>
    </contour>
  </outline>
</glyph>
<glyph name="b" format="2">
  <advance width="372"/>
  <unicode hex="0062"/>
  <outline>
    <contour>
      <point x="-1" y="44" type="line" smooth="yes"/>
      <point x="-4" y="18"/>
      <point x="15" y="0"/>
      <point x="42" y="0" type="curve" smooth="yes"/>
      <point x="87" y="0" type="line"/>
      <point x="152" y="599" type="line" smooth="yes"/>
      <point x="156" y="632"/>
      <point x="137" y="650"/>
      <point x="110" y="650" type="curve" smooth="yes"/>
      <point x="90" y="650"/>
      <point x="63" y="640"/>
      <point x="59" y="607" type="curve" smooth="yes"/>
    </contour>
    <contour>
      <point x="312" y="245" type="curve" smooth="yes"/>
      <point x="312" y="312"/>
      <point x="271" y="354"/>
      <point x="216" y="354" type="curve" smooth="yes"/>
      <point x="174" y="354"/>
      <point x="120" y="312"/>
      <point x="94" y="277" type="curve"/>
      <point x="80" y="153" type="line"/>
      <point x="127" y="239"/>
      <point x="179" y="267"/>
      <point x="198" y="267" type="curve" smooth="yes"/>
      <point x="216" y="267"/>
      <point x="226" y="249"/>
      <point x="226" y="221" type="curve" smooth="yes"/>
      <point x="226" y="172"/>
      <point x="217" y="82"/>
      <point x="104" y="82" type="curve" smooth="yes"/>
      <point x="55" y="82" type="line"/>
      <point x="45" y="0" type="line"/>
      <point x="107" y="0" type="line" smooth="yes"/>
      <point x="252" y="0"/>
      <point x="312" y="116"/>
    </contour>
  </outline>
</glyph>
<glyph name="c" format="2">
	<advance width="341"/>
	<unicode hex="0063"/>
	<outline>
		<contour>
			<point x="294" y="121" type="curve" smooth="yes"/>
			<point x="300" y="132"/>
			<point x="299" y="159"/>
			<point x="273" y="172" type="curve" smooth="yes"/>
			<point x="247" y="185"/>
			<point x="221" y="179"/>
			<point x="213" y="164" type="curve" smooth="yes"/>
			<point x="191" y="122"/>
			<point x="161" y="83"/>
			<point x="144" y="83" type="curve" smooth="yes"/>
			<point x="130" y="83"/>
			<point x="121" y="99"/>
			<point x="123" y="118" type="curve" smooth="yes"/>
			<point x="128" y="164"/>
			<point x="138" y="264"/>
			<point x="197" y="264" type="curve" smooth="yes"/>
			<point x="208" y="264"/>
			<point x="237" y="264"/>
			<point x="259" y="259" type="curve" smooth="yes"/>
			<point x="270" y="256"/>
			<point x="294" y="257"/>
			<point x="309" y="290" type="curve" smooth="yes"/>
			<point x="323" y="321"/>
			<point x="311" y="332"/>
			<point x="298" y="337" type="curve" smooth="yes"/>
			<point x="276" y="346"/>
			<point x="235" y="350"/>
			<point x="204" y="350" type="curve" smooth="yes"/>
			<point x="74" y="350"/>
			<point x="46" y="233"/>
			<point x="34" y="120" type="curve" smooth="yes"/>
			<point x="23" y="24"/>
			<point x="85" y="-4"/>
			<point x="134" y="-4" type="curve" smooth="yes"/>
			<point x="202" y="-4"/>
			<point x="259" y="56"/>
		</contour>
	</outline>
</glyph>
<glyph name="d" format="2">
	<advance width="353"/>
	<unicode hex="0064"/>
	<outline>
		<contour>
			<point x="358" y="599" type="line" smooth="yes"/>
			<point x="361" y="631"/>
			<point x="339" y="650"/>
			<point x="311" y="650" type="curve" smooth="yes"/>
			<point x="289" y="650"/>
			<point x="267" y="640"/>
			<point x="264" y="612" type="curve" smooth="yes"/>
			<point x="204" y="50" type="line" smooth="yes"/>
			<point x="200" y="15"/>
			<point x="226" y="0"/>
			<point x="249" y="0" type="curve" smooth="yes"/>
			<point x="271" y="0"/>
			<point x="296" y="15"/>
			<point x="299" y="44" type="curve" smooth="yes"/>
		</contour>
		<contour>
			<point x="226" y="47" type="curve"/>
			<point x="240" y="195" type="line"/>
			<point x="191" y="112"/>
			<point x="155" y="83"/>
			<point x="133" y="83" type="curve" smooth="yes"/>
			<point x="115" y="83"/>
			<point x="105" y="101"/>
			<point x="108" y="130" type="curve" smooth="yes"/>
			<point x="113" y="175"/>
			<point x="109" y="263"/>
			<point x="222" y="263" type="curve" smooth="yes"/>
			<point x="228" y="263"/>
			<point x="242" y="263"/>
			<point x="249" y="263" type="curve"/>
			<point x="258" y="350" type="line"/>
			<point x="250" y="350"/>
			<point x="225" y="350"/>
			<point x="218" y="350" type="curve" smooth="yes"/>
			<point x="62" y="350"/>
			<point x="34" y="261"/>
			<point x="19" y="120" type="curve" smooth="yes"/>
			<point x="8" y="21"/>
			<point x="70" y="-4"/>
			<point x="127" y="-4" type="curve" smooth="yes"/>
			<point x="157" y="-4"/>
			<point x="195" y="17"/>
		</contour>
	</outline>
</glyph>
<glyph name="e" format="2">
	<advance width="347"/>
	<unicode hex="0065"/>
	<outline>
		<contour>
			<point x="86" y="136" type="line"/>
			<point x="192" y="136"/>
			<point x="282" y="180"/>
			<point x="311" y="251" type="curve" smooth="yes"/>
			<point x="332" y="303"/>
			<point x="301" y="350"/>
			<point x="217" y="351" type="curve" smooth="yes"/>
			<point x="87" y="352"/>
			<point x="38" y="247"/>
			<point x="36" y="117" type="curve" smooth="yes"/>
			<point x="35" y="19"/>
			<point x="81" y="-4"/>
			<point x="124" y="-4" type="curve" smooth="yes"/>
			<point x="213" y="-4"/>
			<point x="255" y="45"/>
			<point x="274" y="71" type="curve" smooth="yes"/>
			<point x="297" y="102"/>
			<point x="283" y="130"/>
			<point x="268" y="141" type="curve" smooth="yes"/>
			<point x="247" y="155"/>
			<point x="226" y="145"/>
			<point x="207" y="120" type="curve" smooth="yes"/>
			<point x="196" y="106"/>
			<point x="173" y="81"/>
			<point x="135" y="81" type="curve" smooth="yes"/>
			<point x="122" y="81"/>
			<point x="121" y="102"/>
			<point x="122" y="118" type="curve" smooth="yes"/>
			<point x="125" y="177"/>
			<point x="149" y="281"/>
			<point x="204" y="281" type="curve" smooth="yes"/>
			<point x="218" y="281"/>
			<point x="233" y="278"/>
			<point x="230" y="270" type="curve" smooth="yes"/>
			<point x="220" y="235"/>
			<point x="129" y="210"/>
			<point x="94" y="210" type="curve"/>
		</contour>
	</outline>
</glyph>
<glyph name="f" format="2">
	<advance width="340"/>
	<unicode hex="0066"/>
	<outline>
		<contour>
			<point x="329" y="553" type="curve" smooth="yes"/>
			<point x="343" y="548"/>
			<point x="363" y="550"/>
			<point x="377" y="578" type="curve" smooth="yes"/>
			<point x="390" y="604"/>
			<point x="386" y="624"/>
			<point x="366" y="634" type="curve" smooth="yes"/>
			<point x="339" y="648"/>
			<point x="317" y="650"/>
			<point x="276" y="650" type="curve" smooth="yes"/>
			<point x="225" y="650"/>
			<point x="165" y="614"/>
			<point x="155" y="519" type="curve" smooth="yes"/>
			<point x="105" y="49" type="line" smooth="yes"/>
			<point x="103" y="26"/>
			<point x="124" y="-2"/>
			<point x="158" y="-2" type="curve" smooth="yes"/>
			<point x="185" y="-2"/>
			<point x="202" y="18"/>
			<point x="205" y="42" type="curve" smooth="yes"/>
			<point x="254" y="502" type="line" smooth="yes"/>
			<point x="258" y="541"/>
			<point x="272" y="560"/>
			<point x="290" y="560" type="curve" smooth="yes"/>
			<point x="310" y="560"/>
			<point x="321" y="556"/>
		</contour>
		<contour>
			<point x="279" y="265" type="line" smooth="yes"/>
			<point x="309" y="265"/>
			<point x="327" y="281"/>
			<point x="326" y="307" type="curve" smooth="yes"/>
			<point x="324" y="331"/>
			<point x="306" y="350"/>
			<point x="274" y="350" type="curve" smooth="yes"/>
			<point x="91" y="350" type="line" smooth="yes"/>
			<point x="60" y="350"/>
			<point x="43" y="331"/>
			<point x="45" y="307" type="curve" smooth="yes"/>
			<point x="46" y="283"/>
			<point x="65" y="265"/>
			<point x="96" y="265" type="curve" smooth="yes"/>
		</contour>
	</outline>
</glyph>
<glyph name="g" format="2">
  <advance width="372"/>
  <unicode hex="0067"/>
  <outline>
    <contour>
      <point x="-7" y="120" type="curve" smooth="yes"/>
      <point x="-18" y="21"/>
      <point x="48" y="-4"/>
      <point x="93" y="-4" type="curve" smooth="yes"/>
      <point x="135" y="-4"/>
      <point x="175" y="32"/>
      <point x="205" y="63" type="curve"/>
      <point x="215" y="176" type="line"/>
      <point x="168" y="98"/>
      <point x="133" y="83"/>
      <point x="111" y="83" type="curve" smooth="yes"/>
      <point x="93" y="83"/>
      <point x="79" y="101"/>
      <point x="82" y="130" type="curve" smooth="yes"/>
      <point x="87" y="175"/>
      <point x="87" y="263"/>
      <point x="200" y="263" type="curve" smooth="yes"/>
      <point x="227" y="263" type="line"/>
      <point x="236" y="350" type="line"/>
      <point x="196" y="350" type="line" smooth="yes"/>
      <point x="40" y="350"/>
      <point x="8" y="261"/>
    </contour>
    <contour>
      <point x="-35" y="-211" type="curve" smooth="yes"/>
      <point x="-54" y="-243"/>
      <point x="-37" y="-268"/>
      <point x="-21" y="-278" type="curve" smooth="yes"/>
      <point x="-7" y="-287"/>
      <point x="35" y="-300"/>
      <point x="83" y="-300" type="curve" smooth="yes"/>
      <point x="138" y="-300"/>
      <point x="177" y="-276"/>
      <point x="214" y="-237" type="curve" smooth="yes"/>
      <point x="258" y="-189"/>
      <point x="259" y="-112"/>
      <point x="268" y="-28" type="curve" smooth="yes"/>
      <point x="305" y="305" type="line"/>
      <point x="307" y="335"/>
      <point x="279" y="350"/>
      <point x="252" y="350" type="curve" smooth="yes"/>
      <point x="213" y="350" type="line"/>
      <point x="174" y="-20" type="line" smooth="yes"/>
      <point x="167" y="-83"/>
      <point x="163" y="-144"/>
      <point x="134" y="-174" type="curve" smooth="yes"/>
      <point x="116" y="-193"/>
      <point x="95" y="-202"/>
      <point x="74" y="-202" type="curve" smooth="yes"/>
      <point x="61" y="-202"/>
      <point x="43" y="-199"/>
      <point x="36" y="-196" type="curve" smooth="yes"/>
      <point x="13" y="-185"/>
      <point x="-17" y="-181"/>
    </contour>
  </outline>
</glyph>
<glyph name="h" format="2">
	<advance width="451"/>
	<unicode hex="0068"/>
	<outline>
		<contour>
			<point x="176" y="315" type="curve"/>
			<point x="163" y="173" type="line"/>
			<point x="203" y="236"/>
			<point x="238" y="266"/>
			<point x="261" y="266" type="curve" smooth="yes"/>
			<point x="277" y="266"/>
			<point x="277" y="239"/>
			<point x="274" y="214" type="curve" smooth="yes"/>
			<point x="256" y="46" type="line" smooth="yes"/>
			<point x="253" y="22"/>
			<point x="271" y="0"/>
			<point x="303" y="0" type="curve" smooth="yes"/>
			<point x="339" y="0"/>
			<point x="354" y="23"/>
			<point x="356" y="38" type="curve" smooth="yes"/>
			<point x="374" y="206" type="line" smooth="yes"/>
			<point x="384" y="301"/>
			<point x="351" y="354"/>
			<point x="273" y="354" type="curve" smooth="yes"/>
			<point x="234" y="354"/>
			<point x="202" y="332"/>
		</contour>
		<contour>
			<point x="226" y="601" type="line" smooth="yes"/>
			<point x="229" y="633"/>
			<point x="204" y="653"/>
			<point x="177" y="653" type="curve" smooth="yes"/>
			<point x="153" y="653"/>
			<point x="129" y="637"/>
			<point x="126" y="609" type="curve" smooth="yes"/>
			<point x="67" y="45" type="line" smooth="yes"/>
			<point x="64" y="17"/>
			<point x="87" y="-2"/>
			<point x="114" y="-2" type="curve" smooth="yes"/>
			<point x="138" y="-2"/>
			<point x="164" y="11"/>
			<point x="167" y="37" type="curve" smooth="yes"/>
		</contour>
	</outline>
</glyph>
<glyph name="i" format="2">
	<advance width="221"/>
	<unicode hex="0069"/>
	<outline>
		<contour>
			<point x="173" y="294" type="line" smooth="yes"/>
			<point x="176" y="327"/>
			<point x="150" y="350"/>
			<point x="125" y="350" type="curve" smooth="yes"/>
			<point x="101" y="350"/>
			<point x="77" y="332"/>
			<point x="74" y="305" type="curve" smooth="yes"/>
			<point x="47" y="49" type="line" smooth="yes"/>
			<point x="44" y="19"/>
			<point x="68" y="0"/>
			<point x="94" y="0" type="curve" smooth="yes"/>
			<point x="116" y="0"/>
			<point x="143" y="10"/>
			<point x="146" y="37" type="curve" smooth="yes"/>
		</contour>
		<contour>
			<point x="144" y="417" type="curve" smooth="yes"/>
			<point x="171" y="417"/>
			<point x="191" y="439"/>
			<point x="191" y="466" type="curve" smooth="yes"/>
			<point x="191" y="493"/>
			<point x="171" y="515"/>
			<point x="144" y="515" type="curve" smooth="yes"/>
			<point x="118" y="515"/>
			<point x="93" y="493"/>
			<point x="93" y="466" type="curve" smooth="yes"/>
			<point x="93" y="439"/>
			<point x="118" y="417"/>
		</contour>
	</outline>
</glyph>
<glyph name="j" format="2">
  <advance width="219"/>
  <unicode hex="006A"/>
  <outline>
    <contour>
      <point x="-180" y="-208" type="curve" smooth="yes"/>
      <point x="-203" y="-243"/>
      <point x="-184" y="-268"/>
      <point x="-168" y="-278" type="curve" smooth="yes"/>
      <point x="-154" y="-287"/>
      <point x="-112" y="-300"/>
      <point x="-64" y="-300" type="curve" smooth="yes"/>
      <point x="-9" y="-300"/>
      <point x="27" y="-276"/>
      <point x="63" y="-236" type="curve" smooth="yes"/>
      <point x="106" y="-189"/>
      <point x="116" y="-78"/>
      <point x="121" y="-28" type="curve" smooth="yes"/>
      <point x="156" y="305" type="line" smooth="yes"/>
      <point x="159" y="335"/>
      <point x="135" y="350"/>
      <point x="105" y="350" type="curve" smooth="yes"/>
      <point x="77" y="350"/>
      <point x="59" y="335"/>
      <point x="56" y="306" type="curve" smooth="yes"/>
      <point x="21" y="-20" type="line" smooth="yes"/>
      <point x="18" y="-51"/>
      <point x="9" y="-149"/>
      <point x="-15" y="-174" type="curve" smooth="yes"/>
      <point x="-33" y="-193"/>
      <point x="-52" y="-202"/>
      <point x="-73" y="-202" type="curve" smooth="yes"/>
      <point x="-86" y="-202"/>
      <point x="-104" y="-200"/>
      <point x="-111" y="-196" type="curve" smooth="yes"/>
      <point x="-124" y="-189"/>
      <point x="-162" y="-181"/>
    </contour>
    <contour>
      <point x="123" y="416" type="curve" smooth="yes"/>
      <point x="152" y="416"/>
      <point x="174.0" y="443"/>
      <point x="174.0" y="473" type="curve" smooth="yes"/>
      <point x="174.0" y="504"/>
      <point x="148" y="522.0"/>
      <point x="122" y="522.0" type="curve" smooth="yes"/>
      <point x="92" y="522.0"/>
      <point x="66" y="498"/>
      <point x="66" y="469" type="curve" smooth="yes"/>
      <point x="66" y="438"/>
      <point x="96" y="416"/>
    </contour>
  </outline>
</glyph>
<glyph name="k" format="2">
  <advance width="407"/>
  <unicode hex="006B"/>
  <outline>
    <contour>
      <point x="189" y="599" type="line" smooth="yes"/>
      <point x="193" y="633"/>
      <point x="167" y="653"/>
      <point x="139" y="653" type="curve" smooth="yes"/>
      <point x="114" y="653"/>
      <point x="92" y="638"/>
      <point x="89" y="608" type="curve" smooth="yes"/>
      <point x="31" y="48" type="line" smooth="yes"/>
      <point x="28" y="19"/>
      <point x="50" y="-2"/>
      <point x="77" y="-2" type="curve" smooth="yes"/>
      <point x="104" y="-2"/>
      <point x="128" y="11"/>
      <point x="131" y="40" type="curve" smooth="yes"/>
    </contour>
    <contour>
      <point x="206" y="164" type="line"/>
      <point x="92" y="153" type="line"/>
      <point x="213" y="27" type="line" smooth="yes"/>
      <point x="228" y="11"/>
      <point x="244" y="0"/>
      <point x="262" y="0" type="curve" smooth="yes"/>
      <point x="282" y="0"/>
      <point x="303" y="13"/>
      <point x="307" y="33" type="curve" smooth="yes"/>
      <point x="309" y="45"/>
      <point x="309" y="57"/>
      <point x="296" y="71" type="curve" smooth="yes"/>
    </contour>
    <contour>
      <point x="130" y="168" type="line"/>
      <point x="135" y="176"/>
      <point x="139" y="183"/>
      <point x="144" y="189" type="curve" smooth="yes"/>
      <point x="150" y="196"/>
      <point x="191" y="246"/>
      <point x="203" y="256" type="curve" smooth="yes"/>
      <point x="220" y="271"/>
      <point x="236" y="275"/>
      <point x="244" y="275" type="curve" smooth="yes"/>
      <point x="251" y="275"/>
      <point x="259" y="268"/>
      <point x="259" y="261" type="curve" smooth="yes"/>
      <point x="259" y="251"/>
      <point x="244" y="240"/>
      <point x="221" y="228" type="curve" smooth="yes"/>
      <point x="190" y="212"/>
      <point x="148" y="199"/>
      <point x="118" y="190" type="curve"/>
      <point x="186" y="128" type="line"/>
      <point x="198" y="131"/>
      <point x="244" y="146"/>
      <point x="261" y="157" type="curve" smooth="yes"/>
      <point x="294" y="177"/>
      <point x="333" y="207"/>
      <point x="337" y="242" type="curve" smooth="yes"/>
      <point x="341" y="279"/>
      <point x="323" y="353"/>
      <point x="253" y="353" type="curve" smooth="yes"/>
      <point x="217" y="353"/>
      <point x="183" y="346"/>
      <point x="157" y="323" type="curve" smooth="yes"/>
      <point x="138" y="308"/>
      <point x="123" y="279"/>
      <point x="107" y="266" type="curve"/>
    </contour>
  </outline>
</glyph>
<glyph name="l" format="2">
	<advance width="181"/>
	<unicode hex="006C"/>
	<outline>
		<contour>
			<point x="185" y="599" type="line" smooth="yes"/>
			<point x="188" y="631"/>
			<point x="161" y="650"/>
			<point x="133" y="650" type="curve" smooth="yes"/>
			<point x="111" y="650"/>
			<point x="89" y="640"/>
			<point x="86" y="612" type="curve" smooth="yes"/>
			<point x="27" y="50" type="line" smooth="yes"/>
			<point x="23" y="15"/>
			<point x="53" y="0"/>
			<point x="76" y="0" type="curve" smooth="yes"/>
			<point x="98" y="0"/>
			<point x="124" y="15"/>
			<point x="127" y="44" type="curve" smooth="yes"/>
		</contour>
	</outline>
</glyph>
<glyph name="m" format="2">
	<advance width="552"/>
	<unicode hex="006D"/>
	<outline>
		<contour>
			<point x="155" y="302" type="line" smooth="yes"/>
			<point x="158" y="331"/>
			<point x="140" y="350"/>
			<point x="111" y="350" type="curve" smooth="yes"/>
			<point x="82" y="350"/>
			<point x="60" y="337"/>
			<point x="54" y="309" type="curve"/>
			<point x="26" y="43" type="line" smooth="yes"/>
			<point x="23" y="15"/>
			<point x="42" y="0"/>
			<point x="71" y="0" type="curve" smooth="yes"/>
			<point x="108" y="0"/>
			<point x="124" y="23"/>
			<point x="126" y="37" type="curve" smooth="yes"/>
		</contour>
		<contour>
			<point x="136" y="315" type="curve"/>
			<point x="123" y="173" type="line"/>
			<point x="163" y="236"/>
			<point x="198" y="266"/>
			<point x="221" y="266" type="curve" smooth="yes"/>
			<point x="237" y="266"/>
			<point x="237" y="239"/>
			<point x="234" y="214" type="curve" smooth="yes"/>
			<point x="216" y="46" type="line" smooth="yes"/>
			<point x="213" y="22"/>
			<point x="231" y="0"/>
			<point x="263" y="0" type="curve" smooth="yes"/>
			<point x="299" y="0"/>
			<point x="314" y="23"/>
			<point x="316" y="38" type="curve" smooth="yes"/>
			<point x="334" y="206" type="line" smooth="yes"/>
			<point x="344" y="301"/>
			<point x="311" y="354"/>
			<point x="233" y="354" type="curve" smooth="yes"/>
			<point x="194" y="354"/>
			<point x="162" y="332"/>
		</contour>
		<contour>
			<point x="317" y="315" type="curve"/>
			<point x="304" y="173" type="line"/>
			<point x="344" y="236"/>
			<point x="379" y="266"/>
			<point x="402" y="266" type="curve" smooth="yes"/>
			<point x="418" y="266"/>
			<point x="418" y="239"/>
			<point x="415" y="214" type="curve" smooth="yes"/>
			<point x="397" y="46" type="line" smooth="yes"/>
			<point x="394" y="22"/>
			<point x="412" y="0"/>
			<point x="444" y="0" type="curve" smooth="yes"/>
			<point x="480" y="0"/>
			<point x="495" y="23"/>
			<point x="497" y="38" type="curve" smooth="yes"/>
			<point x="515" y="206" type="line" smooth="yes"/>
			<point x="525" y="301"/>
			<point x="492" y="354"/>
			<point x="414" y="354" type="curve" smooth="yes"/>
			<point x="375" y="354"/>
			<point x="343" y="332"/>
		</contour>
	</outline>
</glyph>
<glyph name="n" format="2">
  <advance width="411"/>
  <unicode hex="006E"/>
  <outline>
    <contour>
      <point x="158" y="302" type="line" smooth="yes"/>
      <point x="161" y="332"/>
      <point x="144" y="350"/>
      <point x="112" y="350" type="curve" smooth="yes"/>
      <point x="70" y="350"/>
      <point x="59" y="320"/>
      <point x="57" y="308" type="curve" smooth="yes"/>
      <point x="29" y="44" type="line" smooth="yes"/>
      <point x="27" y="20"/>
      <point x="39" y="0"/>
      <point x="73" y="0" type="curve" smooth="yes"/>
      <point x="110" y="0"/>
      <point x="127" y="22"/>
      <point x="129" y="37" type="curve" smooth="yes"/>
    </contour>
    <contour>
      <point x="139" y="315" type="curve"/>
      <point x="126" y="173" type="line"/>
      <point x="166" y="236"/>
      <point x="201" y="266"/>
      <point x="224" y="266" type="curve" smooth="yes"/>
      <point x="240" y="266"/>
      <point x="240" y="239"/>
      <point x="237" y="214" type="curve" smooth="yes"/>
      <point x="219" y="46" type="line" smooth="yes"/>
      <point x="216" y="22"/>
      <point x="234" y="0"/>
      <point x="266" y="0" type="curve" smooth="yes"/>
      <point x="302" y="0"/>
      <point x="317" y="23"/>
      <point x="319" y="38" type="curve" smooth="yes"/>
      <point x="337" y="206" type="line" smooth="yes"/>
      <point x="347" y="301"/>
      <point x="314" y="354"/>
      <point x="236" y="354" type="curve" smooth="yes"/>
      <point x="197" y="354"/>
      <point x="165" y="332"/>
    </contour>
  </outline>
</glyph>
<glyph name="o" format="2">
  <advance width="367"/>
  <unicode hex="006F"/>
  <outline>
    <contour>
      <point x="117" y="-4" type="curve" smooth="yes"/>
      <point x="226" y="-4"/>
      <point x="307" y="151"/>
      <point x="316" y="236" type="curve" smooth="yes"/>
      <point x="325" y="313"/>
      <point x="263" y="350"/>
      <point x="187" y="350" type="curve" smooth="yes"/>
      <point x="57" y="350"/>
      <point x="29" y="233"/>
      <point x="17" y="120" type="curve" smooth="yes"/>
      <point x="6" y="24"/>
      <point x="68" y="-4"/>
    </contour>
    <contour>
      <point x="127" y="83" type="curve" smooth="yes"/>
      <point x="113" y="83"/>
      <point x="104" y="99"/>
      <point x="106" y="118" type="curve" smooth="yes"/>
      <point x="111" y="164"/>
      <point x="121" y="264"/>
      <point x="180" y="264" type="curve" smooth="yes"/>
      <point x="200" y="264"/>
      <point x="223" y="254"/>
      <point x="221" y="235" type="curve" smooth="yes"/>
      <point x="216" y="184"/>
      <point x="155" y="83"/>
    </contour>
  </outline>
</glyph>
<glyph name="p" format="2">
	<advance width="347"/>
	<unicode hex="0070"/>
	<outline>
		<contour>
			<point x="154" y="299" type="line" smooth="yes"/>
			<point x="157" y="327"/>
			<point x="134" y="350"/>
			<point x="107" y="350" type="curve" smooth="yes"/>
			<point x="84" y="350"/>
			<point x="57" y="335"/>
			<point x="54" y="310" type="curve" smooth="yes"/>
			<point x="-5" y="-254" type="line" smooth="yes"/>
			<point x="-8" y="-283"/>
			<point x="18" y="-303"/>
			<point x="45" y="-303" type="curve" smooth="yes"/>
			<point x="68" y="-303"/>
			<point x="92" y="-288"/>
			<point x="95" y="-263" type="curve" smooth="yes"/>
		</contour>
		<contour>
			<point x="126" y="303" type="curve"/>
			<point x="112" y="155" type="line"/>
			<point x="161" y="238"/>
			<point x="200" y="267"/>
			<point x="219" y="267" type="curve" smooth="yes"/>
			<point x="237" y="267"/>
			<point x="245" y="249"/>
			<point x="242" y="220" type="curve" smooth="yes"/>
			<point x="237" y="175"/>
			<point x="243" y="87"/>
			<point x="130" y="87" type="curve" smooth="yes"/>
			<point x="124" y="87"/>
			<point x="110" y="87"/>
			<point x="103" y="87" type="curve"/>
			<point x="94" y="0" type="line"/>
			<point x="102" y="0"/>
			<point x="127" y="0"/>
			<point x="134" y="0" type="curve" smooth="yes"/>
			<point x="290" y="0"/>
			<point x="318" y="89"/>
			<point x="333" y="230" type="curve" smooth="yes"/>
			<point x="344" y="329"/>
			<point x="282" y="354"/>
			<point x="225" y="354" type="curve" smooth="yes"/>
			<point x="195" y="354"/>
			<point x="157" y="333"/>
		</contour>
	</outline>
</glyph>
<glyph name="q" format="2">
  <advance width="364"/>
  <unicode hex="0071"/>
  <outline>
    <contour>
      <point x="230" y="350" type="line"/>
      <point x="185" y="-62" type="line" smooth="yes"/>
      <point x="172" y="-188"/>
      <point x="165" y="-300"/>
      <point x="274" y="-300" type="curve" smooth="yes"/>
      <point x="338" y="-300"/>
      <point x="397" y="-242"/>
      <point x="393" y="-187" type="curve" smooth="yes"/>
      <point x="391" y="-160"/>
      <point x="370" y="-147"/>
      <point x="348" y="-147" type="curve" smooth="yes"/>
      <point x="336" y="-147"/>
      <point x="325" y="-158"/>
      <point x="317" y="-171" type="curve" smooth="yes"/>
      <point x="301" y="-196"/>
      <point x="294" y="-201"/>
      <point x="286" y="-201" type="curve" smooth="yes"/>
      <point x="278" y="-201"/>
      <point x="272" y="-187"/>
      <point x="276" y="-154" type="curve" smooth="yes"/>
      <point x="325" y="306" type="line" smooth="yes"/>
      <point x="327" y="328"/>
      <point x="310" y="350"/>
      <point x="277" y="350" type="curve" smooth="yes"/>
    </contour>
    <contour>
      <point x="224" y="47" type="curve"/>
      <point x="238" y="195" type="line"/>
      <point x="189" y="112"/>
      <point x="153" y="83"/>
      <point x="131" y="83" type="curve" smooth="yes"/>
      <point x="113" y="83"/>
      <point x="103" y="101"/>
      <point x="106" y="130" type="curve" smooth="yes"/>
      <point x="111" y="175"/>
      <point x="107" y="263"/>
      <point x="220" y="263" type="curve" smooth="yes"/>
      <point x="226" y="263"/>
      <point x="240" y="263"/>
      <point x="247" y="263" type="curve"/>
      <point x="256" y="350" type="line"/>
      <point x="248" y="350"/>
      <point x="223" y="350"/>
      <point x="216" y="350" type="curve" smooth="yes"/>
      <point x="60" y="350"/>
      <point x="32" y="261"/>
      <point x="17" y="120" type="curve" smooth="yes"/>
      <point x="6" y="21"/>
      <point x="68" y="-4"/>
      <point x="125" y="-4" type="curve" smooth="yes"/>
      <point x="155" y="-4"/>
      <point x="193" y="17"/>
    </contour>
  </outline>
</glyph>
<glyph name="r" format="2">
  <advance width="360"/>
  <unicode hex="0072"/>
  <outline>
    <contour>
      <point x="156" y="297" type="line" smooth="yes"/>
      <point x="159" y="329"/>
      <point x="133" y="351"/>
      <point x="107" y="351" type="curve" smooth="yes"/>
      <point x="85" y="351"/>
      <point x="60" y="336"/>
      <point x="57" y="309" type="curve" smooth="yes"/>
      <point x="30" y="48" type="line" smooth="yes"/>
      <point x="27" y="18"/>
      <point x="53" y="-1"/>
      <point x="79" y="-1" type="curve" smooth="yes"/>
      <point x="102" y="-1"/>
      <point x="127" y="14"/>
      <point x="130" y="41" type="curve" smooth="yes"/>
    </contour>
    <contour>
      <point x="237" y="251" type="curve" smooth="yes"/>
      <point x="242" y="229"/>
      <point x="286" y="223"/>
      <point x="302" y="230" type="curve" smooth="yes"/>
      <point x="332" y="243"/>
      <point x="337" y="271"/>
      <point x="332" y="290" type="curve" smooth="yes"/>
      <point x="319" y="332"/>
      <point x="287" y="354"/>
      <point x="236" y="354" type="curve" smooth="yes"/>
      <point x="197" y="354"/>
      <point x="165" y="332"/>
      <point x="139" y="315" type="curve"/>
      <point x="126" y="173" type="line"/>
      <point x="166" y="236"/>
      <point x="201" y="266"/>
      <point x="224" y="266" type="curve" smooth="yes"/>
      <point x="232" y="266"/>
      <point x="235" y="260"/>
    </contour>
  </outline>
</glyph>
<glyph name="s" format="2">
	<advance width="333"/>
	<unicode hex="0073"/>
	<outline>
		<contour>
			<point x="162" y="82" type="curve" smooth="yes"/>
			<point x="139" y="82"/>
			<point x="115" y="103"/>
			<point x="105" y="108" type="curve" smooth="yes"/>
			<point x="81" y="120"/>
			<point x="46" y="117"/>
			<point x="34" y="94" type="curve" smooth="yes"/>
			<point x="22" y="68"/>
			<point x="37" y="42"/>
			<point x="80" y="20" type="curve" smooth="yes"/>
			<point x="107" y="6"/>
			<point x="140" y="-4"/>
			<point x="167" y="-4" type="curve" smooth="yes"/>
			<point x="217" y="-4"/>
			<point x="277" y="21"/>
			<point x="283" y="87" type="curve" smooth="yes"/>
			<point x="287" y="128"/>
			<point x="265" y="159"/>
			<point x="245" y="177" type="curve" smooth="yes"/>
			<point x="233" y="188"/>
			<point x="207" y="203"/>
			<point x="186" y="216" type="curve" smooth="yes"/>
			<point x="165" y="229"/>
			<point x="142" y="239"/>
			<point x="141" y="252" type="curve" smooth="yes"/>
			<point x="141" y="262"/>
			<point x="158" y="264"/>
			<point x="176" y="264" type="curve" smooth="yes"/>
			<point x="195" y="264"/>
			<point x="219" y="255"/>
			<point x="230" y="249" type="curve" smooth="yes"/>
			<point x="255" y="237"/>
			<point x="288" y="236"/>
			<point x="299" y="258" type="curve" smooth="yes"/>
			<point x="313" y="288"/>
			<point x="294" y="314"/>
			<point x="256" y="333" type="curve" smooth="yes"/>
			<point x="229" y="344"/>
			<point x="197" y="350"/>
			<point x="170" y="350" type="curve" smooth="yes"/>
			<point x="106" y="350"/>
			<point x="55" y="319"/>
			<point x="49" y="259" type="curve" smooth="yes"/>
			<point x="44" y="213"/>
			<point x="91" y="173"/>
			<point x="121" y="156" type="curve" smooth="yes"/>
			<point x="144" y="142"/>
			<point x="165" y="129"/>
			<point x="179" y="120" type="curve" smooth="yes"/>
			<point x="187" y="113"/>
			<point x="188" y="110"/>
			<point x="188" y="102" type="curve" smooth="yes"/>
			<point x="187" y="92"/>
			<point x="182" y="84"/>
		</contour>
	</outline>
</glyph>
<glyph name="t" format="2">
  <advance width="390"/>
  <unicode hex="0074"/>
  <outline>
    <contour>
      <point x="273" y="602" type="line" smooth="yes"/>
      <point x="276" y="631"/>
      <point x="253" y="650"/>
      <point x="225" y="650" type="curve" smooth="yes"/>
      <point x="197" y="650"/>
      <point x="175" y="631"/>
      <point x="173" y="611" type="curve" smooth="yes"/>
      <point x="115" y="44" type="line" smooth="yes"/>
      <point x="112" y="12"/>
      <point x="139" y="0"/>
      <point x="165" y="0" type="curve" smooth="yes"/>
      <point x="190" y="0"/>
      <point x="212" y="9"/>
      <point x="215" y="35" type="curve" smooth="yes"/>
    </contour>
    <contour>
      <point x="299" y="265" type="line" smooth="yes"/>
      <point x="331" y="265"/>
      <point x="347" y="283"/>
      <point x="347" y="307" type="curve" smooth="yes"/>
      <point x="347" y="332"/>
      <point x="326" y="350"/>
      <point x="294" y="350" type="curve" smooth="yes"/>
      <point x="84" y="350" type="line" smooth="yes"/>
      <point x="52" y="350"/>
      <point x="37" y="332"/>
      <point x="37" y="307" type="curve" smooth="yes"/>
      <point x="37" y="283"/>
      <point x="57" y="265"/>
      <point x="89" y="265" type="curve" smooth="yes"/>
    </contour>
  </outline>
</glyph>
<glyph name="u" format="2">
  <advance width="411"/>
  <unicode hex="0075"/>
  <outline>
    <contour>
      <point x="219" y="48" type="line" smooth="yes"/>
      <point x="216" y="18"/>
      <point x="233" y="0"/>
      <point x="265" y="0" type="curve" smooth="yes"/>
      <point x="307" y="0"/>
      <point x="318" y="30"/>
      <point x="320" y="42" type="curve" smooth="yes"/>
      <point x="348" y="306" type="line" smooth="yes"/>
      <point x="350" y="330"/>
      <point x="338" y="350"/>
      <point x="304" y="350" type="curve" smooth="yes"/>
      <point x="267" y="350"/>
      <point x="250" y="328"/>
      <point x="248" y="313" type="curve" smooth="yes"/>
    </contour>
    <contour>
      <point x="238" y="35" type="curve"/>
      <point x="251" y="177" type="line"/>
      <point x="211" y="114"/>
      <point x="176" y="84"/>
      <point x="153" y="84" type="curve" smooth="yes"/>
      <point x="137" y="84"/>
      <point x="137" y="111"/>
      <point x="140" y="136" type="curve" smooth="yes"/>
      <point x="158" y="304" type="line" smooth="yes"/>
      <point x="161" y="328"/>
      <point x="143" y="350"/>
      <point x="111" y="350" type="curve" smooth="yes"/>
      <point x="75" y="350"/>
      <point x="60" y="327"/>
      <point x="58" y="312" type="curve" smooth="yes"/>
      <point x="40" y="144" type="line" smooth="yes"/>
      <point x="30" y="49"/>
      <point x="63" y="-4"/>
      <point x="141" y="-4" type="curve" smooth="yes"/>
      <point x="180" y="-4"/>
      <point x="212" y="18"/>
    </contour>
  </outline>
</glyph>
<glyph name="v" format="2">
  <advance width="370"/>
  <unicode hex="0076"/>
  <outline>
    <contour>
      <point x="89" y="-4" type="curve" smooth="yes"/>
      <point x="202" y="-4"/>
      <point x="264" y="92"/>
      <point x="330" y="289" type="curve" smooth="yes"/>
      <point x="343" y="329"/>
      <point x="322" y="350"/>
      <point x="287" y="350" type="curve" smooth="yes"/>
      <point x="260" y="350"/>
      <point x="246" y="337"/>
      <point x="236" y="308" type="curve" smooth="yes"/>
      <point x="174" y="125"/>
      <point x="125" y="79"/>
      <point x="117" y="79" type="curve" smooth="yes"/>
      <point x="109" y="79"/>
      <point x="107" y="90"/>
      <point x="115" y="157" type="curve" smooth="yes"/>
      <point x="131" y="298" type="line" smooth="yes"/>
      <point x="135" y="331"/>
      <point x="111" y="350"/>
      <point x="84" y="350" type="curve" smooth="yes"/>
      <point x="62" y="350"/>
      <point x="34" y="335"/>
      <point x="31" y="308" type="curve" smooth="yes"/>
      <point x="11" y="115" type="line" smooth="yes"/>
      <point x="4" y="47"/>
      <point x="31" y="-4"/>
    </contour>
  </outline>
</glyph>
<glyph name="w" format="2">
	<advance width="670"/>
	<unicode hex="0077"/>
	<outline>
		<contour>
			<point x="194" y="298" type="line" smooth="yes"/>
			<point x="198" y="331"/>
			<point x="174" y="350"/>
			<point x="147" y="350" type="curve" smooth="yes"/>
			<point x="125" y="350"/>
			<point x="97" y="335"/>
			<point x="94" y="308" type="curve" smooth="yes"/>
			<point x="74" y="115" type="line" smooth="yes"/>
			<point x="68" y="56"/>
			<point x="89" y="-4"/>
			<point x="152" y="-4" type="curve" smooth="yes"/>
			<point x="238" y="-4"/>
			<point x="291" y="54"/>
			<point x="328" y="129" type="curve" smooth="yes"/>
			<point x="340" y="153" type="line"/>
			<point x="353" y="350" type="line"/>
			<point x="326" y="350"/>
			<point x="311" y="337"/>
			<point x="299" y="308" type="curve" smooth="yes"/>
			<point x="293" y="293"/>
			<point x="283" y="262"/>
			<point x="267" y="223" type="curve" smooth="yes"/>
			<point x="253" y="188"/>
			<point x="229" y="125"/>
			<point x="201" y="96" type="curve" smooth="yes"/>
			<point x="161" y="53"/>
			<point x="173" y="99"/>
			<point x="179" y="157" type="curve" smooth="yes"/>
		</contour>
		<contour>
			<point x="401" y="298" type="line" smooth="yes"/>
			<point x="405" y="331"/>
			<point x="379" y="350"/>
			<point x="352" y="350" type="curve"/>
			<point x="284" y="148" type="line"/>
			<point x="281" y="115" type="line" smooth="yes"/>
			<point x="276" y="56"/>
			<point x="296" y="-4"/>
			<point x="359" y="-4" type="curve" smooth="yes"/>
			<point x="445" y="-4"/>
			<point x="496" y="55"/>
			<point x="535" y="129" type="curve" smooth="yes"/>
			<point x="558" y="173"/>
			<point x="587" y="248"/>
			<point x="600" y="289" type="curve" smooth="yes"/>
			<point x="616" y="340"/>
			<point x="579" y="350"/>
			<point x="557" y="350" type="curve" smooth="yes"/>
			<point x="530" y="350"/>
			<point x="518" y="337"/>
			<point x="506" y="308" type="curve" smooth="yes"/>
			<point x="500" y="293"/>
			<point x="490" y="262"/>
			<point x="474" y="223" type="curve" smooth="yes"/>
			<point x="460" y="188"/>
			<point x="436" y="125"/>
			<point x="408" y="96" type="curve" smooth="yes"/>
			<point x="368" y="53"/>
			<point x="380" y="99"/>
			<point x="386" y="157" type="curve" smooth="yes"/>
		</contour>
	</outline>
</glyph>
<glyph name="x" format="2">
	<advance width="345"/>
	<unicode hex="0078"/>
	<outline>
		<contour>
			<point x="306" y="277" type="line" smooth="yes"/>
			<point x="313" y="285"/>
			<point x="319" y="294"/>
			<point x="318" y="309" type="curve" smooth="yes"/>
			<point x="318" y="321"/>
			<point x="313" y="331"/>
			<point x="303" y="340" type="curve" smooth="yes"/>
			<point x="295" y="348"/>
			<point x="280" y="350"/>
			<point x="267" y="350" type="curve" smooth="yes"/>
			<point x="256" y="350"/>
			<point x="239" y="345"/>
			<point x="232" y="337" type="curve" smooth="yes"/>
			<point x="29" y="76" type="line" smooth="yes"/>
			<point x="19" y="64"/>
			<point x="14" y="52"/>
			<point x="17" y="38" type="curve" smooth="yes"/>
			<point x="19" y="29"/>
			<point x="24" y="21"/>
			<point x="31" y="12" type="curve" smooth="yes"/>
			<point x="39" y="4"/>
			<point x="53" y="0"/>
			<point x="66" y="0" type="curve" smooth="yes"/>
			<point x="80" y="0"/>
			<point x="96" y="7"/>
			<point x="103" y="16" type="curve" smooth="yes"/>
		</contour>
		<contour>
			<point x="134" y="331" type="line"/>
			<point x="123" y="345"/>
			<point x="108" y="350"/>
			<point x="94" y="350" type="curve" smooth="yes"/>
			<point x="82" y="350"/>
			<point x="71" y="347"/>
			<point x="61" y="339" type="curve" smooth="yes"/>
			<point x="53" y="332"/>
			<point x="48" y="321"/>
			<point x="47" y="310" type="curve" smooth="yes"/>
			<point x="48" y="299"/>
			<point x="55" y="288"/>
			<point x="59" y="281" type="curve" smooth="yes"/>
			<point x="207" y="18" type="line" smooth="yes"/>
			<point x="216" y="2"/>
			<point x="239" y="0"/>
			<point x="249" y="0" type="curve" smooth="yes"/>
			<point x="261" y="0"/>
			<point x="272" y="7"/>
			<point x="278" y="14" type="curve" smooth="yes"/>
			<point x="284" y="22"/>
			<point x="291" y="33"/>
			<point x="290" y="45" type="curve" smooth="yes"/>
			<point x="289" y="54"/>
			<point x="284" y="62"/>
			<point x="279" y="71" type="curve" smooth="yes"/>
		</contour>
	</outline>
</glyph>
<glyph name="y" format="2">
	<advance width="410"/>
	<unicode hex="0079"/>
	<outline>
		<contour>
			<point x="268" y="177" type="line"/>
			<point x="228" y="114"/>
			<point x="193" y="84"/>
			<point x="170" y="84" type="curve" smooth="yes"/>
			<point x="154" y="84"/>
			<point x="154" y="111"/>
			<point x="157" y="136" type="curve" smooth="yes"/>
			<point x="175" y="304" type="line" smooth="yes"/>
			<point x="178" y="328"/>
			<point x="160" y="350"/>
			<point x="128" y="350" type="curve" smooth="yes"/>
			<point x="92" y="350"/>
			<point x="77" y="327"/>
			<point x="75" y="312" type="curve" smooth="yes"/>
			<point x="57" y="144" type="line" smooth="yes"/>
			<point x="47" y="49"/>
			<point x="80" y="-4"/>
			<point x="158" y="-4" type="curve" smooth="yes"/>
			<point x="197" y="-4"/>
			<point x="229" y="18"/>
			<point x="255" y="35" type="curve"/>
		</contour>
		<contour>
			<point x="364" y="305" type="line" smooth="yes"/>
			<point x="367" y="335"/>
			<point x="343" y="350"/>
			<point x="313" y="350" type="curve" smooth="yes"/>
			<point x="285" y="350"/>
			<point x="267" y="335"/>
			<point x="264" y="306" type="curve" smooth="yes"/>
			<point x="229" y="-20" type="line" smooth="yes"/>
			<point x="226" y="-51"/>
			<point x="217" y="-149"/>
			<point x="193" y="-174" type="curve" smooth="yes"/>
			<point x="175" y="-193"/>
			<point x="156" y="-202"/>
			<point x="135" y="-202" type="curve" smooth="yes"/>
			<point x="122" y="-202"/>
			<point x="104" y="-200"/>
			<point x="97" y="-196" type="curve" smooth="yes"/>
			<point x="84" y="-189"/>
			<point x="46" y="-181"/>
			<point x="28" y="-208" type="curve" smooth="yes"/>
			<point x="5" y="-243"/>
			<point x="24" y="-268"/>
			<point x="40" y="-278" type="curve" smooth="yes"/>
			<point x="54" y="-287"/>
			<point x="96" y="-300"/>
			<point x="144" y="-300" type="curve" smooth="yes"/>
			<point x="199" y="-300"/>
			<point x="235" y="-276"/>
			<point x="271" y="-236" type="curve" smooth="yes"/>
			<point x="314" y="-189"/>
			<point x="324" y="-78"/>
			<point x="329" y="-28" type="curve" smooth="yes"/>
		</contour>
	</outline>
</glyph>
<glyph name="z" format="2">
  <advance width="400"/>
  <unicode hex="007A"/>
  <outline>
    <contour>
      <point x="323" y="277" type="line" smooth="yes"/>
      <point x="338" y="296"/>
      <point x="338" y="321"/>
      <point x="320" y="340" type="curve" smooth="yes"/>
      <point x="311" y="348"/>
      <point x="297" y="350"/>
      <point x="284" y="350" type="curve" smooth="yes"/>
      <point x="272" y="350"/>
      <point x="258" y="345"/>
      <point x="251" y="337" type="curve" smooth="yes"/>
      <point x="41" y="75" type="line" smooth="yes"/>
      <point x="26" y="57"/>
      <point x="25" y="34"/>
      <point x="43" y="12" type="curve" smooth="yes"/>
      <point x="51" y="4"/>
      <point x="65" y="0"/>
      <point x="78" y="0" type="curve" smooth="yes"/>
      <point x="92" y="0"/>
      <point x="107" y="7"/>
      <point x="115" y="16" type="curve" smooth="yes"/>
    </contour>
    <contour>
      <point x="77" y="0" type="line"/>
      <point x="263" y="0" type="line" smooth="yes"/>
      <point x="293" y="0"/>
      <point x="310" y="19"/>
      <point x="308" y="43" type="curve" smooth="yes"/>
      <point x="306" y="67"/>
      <point x="287" y="85"/>
      <point x="257" y="85" type="curve" smooth="yes"/>
      <point x="147" y="85" type="line"/>
    </contour>
    <contour>
      <point x="219" y="260" type="line"/>
      <point x="285" y="350" type="line"/>
      <point x="102" y="350" type="line" smooth="yes"/>
      <point x="72" y="350"/>
      <point x="55" y="329"/>
      <point x="57" y="305" type="curve" smooth="yes"/>
      <point x="58" y="281"/>
      <point x="78" y="260"/>
      <point x="108" y="260" type="curve" smooth="yes"/>
    </contour>
  </outline>
</glyph>
<glyph name="braceleft" format="2">
	<advance width="364"/>
	<unicode hex="007B"/>
	<outline>
		<contour>
			<point x="156" y="173" type="line"/>
			<point x="205" y="219"/>
			<point x="217" y="255"/>
			<point x="223" y="302" type="curve" smooth="yes"/>
			<point x="228" y="357"/>
			<point x="207" y="459"/>
			<point x="221" y="511" type="curve" smooth="yes"/>
			<point x="234" y="552"/>
			<point x="267" y="567"/>
			<point x="296" y="576" type="curve" smooth="yes"/>
			<point x="318" y="585"/>
			<point x="329" y="605"/>
			<point x="317" y="628" type="curve" smooth="yes"/>
			<point x="305" y="656"/>
			<point x="272" y="652"/>
			<point x="250" y="642" type="curve" smooth="yes"/>
			<point x="222" y="629"/>
			<point x="158" y="599"/>
			<point x="141" y="540" type="curve" smooth="yes"/>
			<point x="124" y="475"/>
			<point x="142" y="369"/>
			<point x="137" y="316" type="curve" smooth="yes"/>
			<point x="133" y="291"/>
			<point x="124" y="273"/>
			<point x="106" y="254" type="curve" smooth="yes"/>
			<point x="87" y="235"/>
			<point x="76" y="225"/>
			<point x="85" y="187" type="curve"/>
		</contour>
		<contour>
			<point x="84" y="224" type="line"/>
			<point x="75" y="182"/>
			<point x="88" y="172"/>
			<point x="99" y="153" type="curve" smooth="yes"/>
			<point x="114" y="126"/>
			<point x="120" y="103"/>
			<point x="118" y="79" type="curve" smooth="yes"/>
			<point x="115" y="26"/>
			<point x="77" y="-75"/>
			<point x="85" y="-143" type="curve" smooth="yes"/>
			<point x="92" y="-203"/>
			<point x="133" y="-256"/>
			<point x="162" y="-285" type="curve" smooth="yes"/>
			<point x="187" y="-311"/>
			<point x="218" y="-308"/>
			<point x="230" y="-289" type="curve" smooth="yes"/>
			<point x="246" y="-268"/>
			<point x="233" y="-252"/>
			<point x="216" y="-235" type="curve" smooth="yes"/>
			<point x="191" y="-211"/>
			<point x="174" y="-187"/>
			<point x="169" y="-139" type="curve" smooth="yes"/>
			<point x="164" y="-83"/>
			<point x="203" y="12"/>
			<point x="204" y="66" type="curve" smooth="yes"/>
			<point x="207" y="114"/>
			<point x="198" y="155"/>
			<point x="163" y="216" type="curve"/>
		</contour>
	</outline>
</glyph>
<glyph name="bar" format="2">
	<advance width="182"/>
	<unicode hex="007C"/>
	<outline>
		<contour>
			<point x="191" y="645" type="line" smooth="yes"/>
			<point x="194" y="681"/>
			<point x="170" y="702"/>
			<point x="142" y="702" type="curve" smooth="yes"/>
			<point x="120" y="702"/>
			<point x="95" y="685"/>
			<point x="92" y="657" type="curve" smooth="yes"/>
			<point x="-6" y="-250" type="line" smooth="yes"/>
			<point x="-10" y="-278"/>
			<point x="14" y="-302"/>
			<point x="46" y="-302" type="curve" smooth="yes"/>
			<point x="80" y="-302"/>
			<point x="91" y="-281"/>
			<point x="94" y="-260" type="curve"/>
		</contour>
	</outline>
</glyph>
<glyph name="braceright" format="2">
	<advance width="286"/>
	<unicode hex="007D"/>
	<outline>
		<contour>
			<point x="169" y="187" type="line"/>
			<point x="119" y="139"/>
			<point x="104" y="101"/>
			<point x="97" y="55" type="curve" smooth="yes"/>
			<point x="89" y="0"/>
			<point x="101" y="-99"/>
			<point x="86" y="-151" type="curve" smooth="yes"/>
			<point x="71" y="-195"/>
			<point x="52" y="-213"/>
			<point x="24" y="-227" type="curve" smooth="yes"/>
			<point x="0" y="-240"/>
			<point x="-12" y="-254"/>
			<point x="-4" y="-275" type="curve" smooth="yes"/>
			<point x="5" y="-300"/>
			<point x="39" y="-309"/>
			<point x="65" y="-291" type="curve"/>
			<point x="98" y="-273"/>
			<point x="147" y="-235"/>
			<point x="166" y="-179" type="curve" smooth="yes"/>
			<point x="187" y="-116"/>
			<point x="175" y="-10"/>
			<point x="182" y="40" type="curve" smooth="yes"/>
			<point x="187" y="66"/>
			<point x="196" y="85"/>
			<point x="217" y="107" type="curve" smooth="yes"/>
			<point x="229" y="122"/>
			<point x="245" y="130"/>
			<point x="245" y="175" type="curve"/>
		</contour>
		<contour>
			<point x="237" y="132" type="line"/>
			<point x="253" y="171"/>
			<point x="244" y="182"/>
			<point x="230" y="205" type="curve" smooth="yes"/>
			<point x="215" y="231"/>
			<point x="210" y="253"/>
			<point x="211" y="278" type="curve"/>
			<point x="217" y="332"/>
			<point x="257" y="430"/>
			<point x="251" y="497" type="curve" smooth="yes"/>
			<point x="246" y="558"/>
			<point x="194" y="607"/>
			<point x="167" y="630" type="curve" smooth="yes"/>
			<point x="145" y="648"/>
			<point x="113" y="662"/>
			<point x="96" y="637" type="curve" smooth="yes"/>
			<point x="83" y="618"/>
			<point x="86" y="598"/>
			<point x="109" y="580" type="curve" smooth="yes"/>
			<point x="134" y="562"/>
			<point x="163" y="536"/>
			<point x="168" y="493" type="curve" smooth="yes"/>
			<point x="170" y="437"/>
			<point x="130" y="343"/>
			<point x="124" y="289" type="curve" smooth="yes"/>
			<point x="120" y="241"/>
			<point x="127" y="202"/>
			<point x="164" y="143" type="curve"/>
		</contour>
	</outline>
</glyph>
<glyph name="asciitilde" format="2">
	<advance width="482"/>
	<unicode hex="007E"/>
	<outline>
		<contour>
			<point x="288" y="139" type="curve" smooth="yes"/>
			<point x="325" y="139"/>
			<point x="349" y="151"/>
			<point x="367" y="159" type="curve" smooth="yes"/>
			<point x="394" y="172"/>
			<point x="405" y="183"/>
			<point x="404" y="203" type="curve" smooth="yes"/>
			<point x="402" y="231"/>
			<point x="368" y="261"/>
			<point x="337" y="245" type="curve" smooth="yes"/>
			<point x="314" y="233"/>
			<point x="309" y="226"/>
			<point x="290" y="226" type="curve" smooth="yes"/>
			<point x="273" y="226"/>
			<point x="229" y="262"/>
			<point x="190" y="262" type="curve" smooth="yes"/>
			<point x="159" y="262"/>
			<point x="137" y="252"/>
			<point x="122" y="245" type="curve" smooth="yes"/>
			<point x="96" y="234"/>
			<point x="82" y="223"/>
			<point x="84" y="203" type="curve" smooth="yes"/>
			<point x="86" y="171"/>
			<point x="120" y="144"/>
			<point x="150" y="159" type="curve" smooth="yes"/>
			<point x="167" y="168"/>
			<point x="175" y="175"/>
			<point x="188" y="175" type="curve" smooth="yes"/>
			<point x="208" y="175"/>
			<point x="251" y="139"/>
		</contour>
	</outline>
</glyph>
<glyph name="exclamdown" format="2">
	<advance width="270"/>
	<unicode hex="00A1"/>
	<outline>
		<contour>
			<point x="209" y="399" type="line" smooth="yes"/>
			<point x="213" y="433"/>
			<point x="186" y="450"/>
			<point x="162" y="452" type="curve" smooth="yes"/>
			<point x="138" y="454"/>
			<point x="111" y="437"/>
			<point x="109" y="407" type="curve" smooth="yes"/>
			<point x="70" y="47" type="line" smooth="yes"/>
			<point x="67" y="17"/>
			<point x="93" y="-2"/>
			<point x="121" y="0" type="curve" smooth="yes"/>
			<point x="143" y="0"/>
			<point x="168" y="14"/>
			<point x="170" y="39" type="curve" smooth="yes"/>
		</contour>
		<contour>
			<point x="184" y="540" type="curve" smooth="yes"/>
			<point x="215" y="540"/>
			<point x="235" y="566"/>
			<point x="233" y="594" type="curve" smooth="yes"/>
			<point x="231" y="623"/>
			<point x="208" y="650"/>
			<point x="177" y="650" type="curve" smooth="yes"/>
			<point x="147" y="650"/>
			<point x="121" y="623"/>
			<point x="123" y="594" type="curve" smooth="yes"/>
			<point x="125" y="566"/>
			<point x="154" y="540"/>
		</contour>
	</outline>
</glyph>
<glyph name="brokenbar" format="2">
	<advance width="182"/>
	<unicode hex="00A6"/>
	<outline>
		<contour>
			<point x="134" y="111" type="line" smooth="yes"/>
			<point x="137" y="141"/>
			<point x="114" y="163"/>
			<point x="87" y="163" type="curve" smooth="yes"/>
			<point x="64" y="163"/>
			<point x="38" y="146"/>
			<point x="35" y="119" type="curve" smooth="yes"/>
			<point x="-5" y="-248" type="line" smooth="yes"/>
			<point x="-8" y="-276"/>
			<point x="15" y="-300"/>
			<point x="47" y="-300" type="curve" smooth="yes"/>
			<point x="81" y="-300"/>
			<point x="93" y="-279"/>
			<point x="95" y="-258" type="curve" smooth="yes"/>
		</contour>
		<contour>
			<point x="191" y="643" type="line" smooth="yes"/>
			<point x="195" y="679"/>
			<point x="170" y="700"/>
			<point x="142" y="700" type="curve" smooth="yes"/>
			<point x="120" y="700"/>
			<point x="95" y="683"/>
			<point x="92" y="655" type="curve" smooth="yes"/>
			<point x="53" y="290" type="line" smooth="yes"/>
			<point x="49" y="259"/>
			<point x="74" y="236"/>
			<point x="102" y="238" type="curve" smooth="yes"/>
			<point x="125" y="239"/>
			<point x="149" y="256"/>
			<point x="152" y="282" type="curve" smooth="yes"/>
		</contour>
	</outline>
</glyph>
<glyph name="degree" format="2">
  <advance width="332"/>
  <unicode hex="00B0"/>
  <outline>
    <contour>
      <point x="168" y="398" type="curve" smooth="yes"/>
      <point x="247" y="398"/>
      <point x="310" y="508"/>
      <point x="306" y="577" type="curve" smooth="yes"/>
      <point x="302" y="625"/>
      <point x="268" y="654"/>
      <point x="212" y="654" type="curve" smooth="yes"/>
      <point x="163" y="654"/>
      <point x="134" y="621"/>
      <point x="120" y="593" type="curve" smooth="yes"/>
      <point x="109" y="573"/>
      <point x="95" y="528"/>
      <point x="99" y="478" type="curve" smooth="yes"/>
      <point x="103" y="410"/>
      <point x="140" y="398"/>
    </contour>
    <contour>
      <point x="180" y="476" type="curve" smooth="yes"/>
      <point x="176" y="476"/>
      <point x="173" y="492"/>
      <point x="173" y="504" type="curve" smooth="yes"/>
      <point x="174" y="524"/>
      <point x="179" y="543"/>
      <point x="188" y="562" type="curve" smooth="yes"/>
      <point x="195" y="577"/>
      <point x="204" y="580"/>
      <point x="214" y="580" type="curve" smooth="yes"/>
      <point x="225" y="580"/>
      <point x="226" y="571"/>
      <point x="226" y="555" type="curve" smooth="yes"/>
      <point x="226" y="523"/>
      <point x="198" y="476"/>
    </contour>
  </outline>
</glyph>
<glyph name="plusminus" format="2">
	<advance width="415"/>
	<unicode hex="00B1"/>
	<outline>
		<contour>
			<point x="274" y="357" type="line" smooth="yes"/>
			<point x="278" y="390"/>
			<point x="251" y="411"/>
			<point x="225" y="411" type="curve" smooth="yes"/>
			<point x="204" y="411"/>
			<point x="184" y="398"/>
			<point x="181" y="371" type="curve" smooth="yes"/>
			<point x="164" y="222" type="line" smooth="yes"/>
			<point x="161" y="188"/>
			<point x="187" y="167"/>
			<point x="213" y="167" type="curve" smooth="yes"/>
			<point x="234" y="167"/>
			<point x="254" y="181"/>
			<point x="258" y="207" type="curve" smooth="yes"/>
		</contour>
		<contour>
			<point x="298" y="57" type="line" smooth="yes"/>
			<point x="328" y="57"/>
			<point x="348" y="74"/>
			<point x="346" y="99" type="curve" smooth="yes"/>
			<point x="344" y="122"/>
			<point x="322" y="142"/>
			<point x="292" y="142" type="curve" smooth="yes"/>
			<point x="102" y="142" type="line" smooth="yes"/>
			<point x="72" y="142"/>
			<point x="53" y="122"/>
			<point x="55" y="99" type="curve" smooth="yes"/>
			<point x="57" y="75"/>
			<point x="78" y="57"/>
			<point x="108" y="57" type="curve" smooth="yes"/>
		</contour>
		<contour>
			<point x="316" y="248" type="line" smooth="yes"/>
			<point x="346" y="248"/>
			<point x="364" y="266"/>
			<point x="363" y="290" type="curve" smooth="yes"/>
			<point x="361" y="313"/>
			<point x="340" y="333"/>
			<point x="310" y="333" type="curve" smooth="yes"/>
			<point x="120" y="333" type="line" smooth="yes"/>
			<point x="90" y="333"/>
			<point x="71" y="313"/>
			<point x="73" y="290" type="curve" smooth="yes"/>
			<point x="74" y="266"/>
			<point x="96" y="248"/>
			<point x="126" y="248" type="curve" smooth="yes"/>
		</contour>
	</outline>
</glyph>
<glyph name="periodcentered" format="2">
	<advance width="191"/>
	<unicode hex="00B7"/>
	<outline>
		<contour>
			<point x="99" y="121" type="curve" smooth="yes"/>
			<point x="128" y="121"/>
			<point x="153" y="149"/>
			<point x="151" y="178" type="curve" smooth="yes"/>
			<point x="148" y="209"/>
			<point x="120" y="231"/>
			<point x="91" y="231" type="curve" smooth="yes"/>
			<point x="60" y="231"/>
			<point x="39" y="207"/>
			<point x="41" y="178" type="curve" smooth="yes"/>
			<point x="42" y="151"/>
			<point x="68" y="121"/>
		</contour>
	</outline>
</glyph>
<glyph name="questiondown" format="2">
	<advance width="486"/>
	<unicode hex="00BF"/>
	<outline>
		<contour>
			<point x="342" y="386" type="line"/>
			<point x="167" y="398"/>
			<point x="93" y="296"/>
			<point x="78" y="160" type="curve" smooth="yes"/>
			<point x="70" y="76"/>
			<point x="146" y="1"/>
			<point x="241" y="1" type="curve" smooth="yes"/>
			<point x="356" y="1"/>
			<point x="423" y="67"/>
			<point x="434" y="159" type="curve" smooth="yes"/>
			<point x="436" y="194"/>
			<point x="422" y="212"/>
			<point x="401" y="217" type="curve" smooth="yes"/>
			<point x="376" y="224"/>
			<point x="342" y="208"/>
			<point x="339" y="175" type="curve" smooth="yes"/>
			<point x="335" y="128"/>
			<point x="313" y="89"/>
			<point x="253" y="89" type="curve" smooth="yes"/>
			<point x="203" y="89"/>
			<point x="173" y="108"/>
			<point x="178" y="148" type="curve" smooth="yes"/>
			<point x="182" y="192"/>
			<point x="198" y="300"/>
			<point x="320" y="289" type="curve"/>
		</contour>
		<contour>
			<point x="377" y="428" type="line" smooth="yes"/>
			<point x="380" y="454"/>
			<point x="360" y="473"/>
			<point x="336" y="479" type="curve" smooth="yes"/>
			<point x="309" y="484"/>
			<point x="280" y="470"/>
			<point x="277" y="435" type="curve" smooth="yes"/>
			<point x="266" y="333" type="line" smooth="yes"/>
			<point x="263" y="310"/>
			<point x="289" y="289"/>
			<point x="320" y="289" type="curve" smooth="yes"/>
			<point x="342" y="289"/>
			<point x="364" y="304"/>
			<point x="366" y="326" type="curve" smooth="yes"/>
		</contour>
		<contour>
			<point x="348" y="540" type="curve" smooth="yes"/>
			<point x="379" y="540"/>
			<point x="399" y="568"/>
			<point x="397" y="597" type="curve" smooth="yes"/>
			<point x="395" y="625"/>
			<point x="370" y="650"/>
			<point x="340" y="650" type="curve" smooth="yes"/>
			<point x="309" y="650"/>
			<point x="285" y="625"/>
			<point x="287" y="598" type="curve" smooth="yes"/>
			<point x="289" y="568"/>
			<point x="316" y="540"/>
		</contour>
	</outline>
</glyph>
<glyph name="multiply" format="2">
	<advance width="482"/>
	<unicode hex="00D7"/>
	<outline>
		<contour>
			<point x="400" y="270" type="line"/>
			<point x="422" y="292"/>
			<point x="419" y="319"/>
			<point x="398" y="336" type="curve" smooth="yes"/>
			<point x="379" y="351"/>
			<point x="348" y="355"/>
			<point x="326" y="337" type="curve" smooth="yes"/>
			<point x="86" y="122" type="line" smooth="yes"/>
			<point x="66" y="102"/>
			<point x="68" y="78"/>
			<point x="85" y="59" type="curve" smooth="yes"/>
			<point x="104" y="40"/>
			<point x="136" y="36"/>
			<point x="161" y="56" type="curve" smooth="yes"/>
		</contour>
		<contour>
			<point x="182" y="331" type="line"/>
			<point x="157" y="355"/>
			<point x="122" y="353"/>
			<point x="107" y="335" type="curve" smooth="yes"/>
			<point x="93" y="317"/>
			<point x="90" y="294"/>
			<point x="110" y="273" type="curve" smooth="yes"/>
			<point x="306" y="59" type="line"/>
			<point x="327" y="38"/>
			<point x="360" y="40"/>
			<point x="376" y="55" type="curve" smooth="yes"/>
			<point x="394" y="72"/>
			<point x="397" y="97"/>
			<point x="376" y="120" type="curve" smooth="yes"/>
		</contour>
	</outline>
</glyph>
<glyph name="divide" format="2">
	<advance width="440"/>
	<unicode hex="00F7"/>
	<outline>
		<contour>
			<point x="334" y="154" type="line" smooth="yes"/>
			<point x="400" y="154"/>
			<point x="397" y="241"/>
			<point x="328" y="241" type="curve" smooth="yes"/>
			<point x="111" y="241" type="line" smooth="yes"/>
			<point x="42" y="241"/>
			<point x="51" y="154"/>
			<point x="117" y="154" type="curve" smooth="yes"/>
		</contour>
		<contour>
			<point x="213" y="16" type="curve" smooth="yes"/>
			<point x="243" y="16"/>
			<point x="268" y="40"/>
			<point x="266" y="69" type="curve" smooth="yes"/>
			<point x="264" y="100"/>
			<point x="234" y="122"/>
			<point x="205" y="122" type="curve" smooth="yes"/>
			<point x="174" y="122"/>
			<point x="152" y="98"/>
			<point x="154" y="69" type="curve" smooth="yes"/>
			<point x="156" y="40"/>
			<point x="183" y="16"/>
		</contour>
		<contour>
			<point x="241" y="273" type="curve" smooth="yes"/>
			<point x="271" y="273"/>
			<point x="296" y="297"/>
			<point x="294" y="327" type="curve" smooth="yes"/>
			<point x="292" y="356"/>
			<point x="263" y="379"/>
			<point x="233" y="379" type="curve" smooth="yes"/>
			<point x="203" y="379"/>
			<point x="180" y="355"/>
			<point x="182" y="327" type="curve" smooth="yes"/>
			<point x="184" y="298"/>
			<point x="211" y="273"/>
		</contour>
	</outline>
</glyph>
<glyph name="tilde" format="2">
	<advance width="442"/>
	<unicode hex="02DC"/>
	<outline>
		<contour>
			<point x="268" y="139" type="curve" smooth="yes"/>
			<point x="305" y="139"/>
			<point x="329" y="151"/>
			<point x="347" y="159" type="curve" smooth="yes"/>
			<point x="374" y="172"/>
			<point x="385" y="183"/>
			<point x="384" y="203" type="curve" smooth="yes"/>
			<point x="382" y="231"/>
			<point x="348" y="261"/>
			<point x="317" y="245" type="curve" smooth="yes"/>
			<point x="294" y="233"/>
			<point x="289" y="226"/>
			<point x="270" y="226" type="curve" smooth="yes"/>
			<point x="253" y="226"/>
			<point x="209" y="262"/>
			<point x="170" y="262" type="curve" smooth="yes"/>
			<point x="139" y="262"/>
			<point x="117" y="252"/>
			<point x="102" y="245" type="curve" smooth="yes"/>
			<point x="76" y="234"/>
			<point x="62" y="223"/>
			<point x="64" y="203" type="curve" smooth="yes"/>
			<point x="66" y="171"/>
			<point x="100" y="144"/>
			<point x="130" y="159" type="curve" smooth="yes"/>
			<point x="147" y="168"/>
			<point x="155" y="175"/>
			<point x="168" y="175" type="curve" smooth="yes"/>
			<point x="188" y="175"/>
			<point x="231" y="139"/>
		</contour>
	</outline>
</glyph>
<glyph name="endash" format="2">
	<advance width="452"/>
	<unicode hex="2013"/>
	<outline>
		<contour>
			<point x="345" y="153" type="line" smooth="yes"/>
			<point x="376" y="153"/>
			<point x="396" y="174"/>
			<point x="394" y="199" type="curve" smooth="yes"/>
			<point x="392" y="223"/>
			<point x="370" y="242"/>
			<point x="339" y="242" type="curve" smooth="yes"/>
			<point x="112" y="242" type="line" smooth="yes"/>
			<point x="81" y="242"/>
			<point x="61" y="223"/>
			<point x="63" y="199" type="curve" smooth="yes"/>
			<point x="65" y="174"/>
			<point x="87" y="153"/>
			<point x="118" y="153" type="curve" smooth="yes"/>
		</contour>
	</outline>
</glyph>
<glyph name="emdash" format="2">
	<advance width="515"/>
	<unicode hex="2014"/>
	<outline>
		<contour>
			<point x="424" y="153" type="line" smooth="yes"/>
			<point x="457" y="153"/>
			<point x="479" y="174"/>
			<point x="477" y="199" type="curve" smooth="yes"/>
			<point x="475" y="222"/>
			<point x="452" y="242"/>
			<point x="418" y="242" type="curve" smooth="yes"/>
			<point x="95" y="242" type="line" smooth="yes"/>
			<point x="62" y="242"/>
			<point x="41" y="222"/>
			<point x="43" y="199" type="curve" smooth="yes"/>
			<point x="45" y="174"/>
			<point x="69" y="153"/>
			<point x="101" y="153" type="curve" smooth="yes"/>
		</contour>
	</outline>
</glyph>
<glyph name="bullet" format="2">
	<advance width="282"/>
	<unicode hex="2022"/>
	<outline>
		<contour>
			<point x="164" y="254" type="curve" smooth="yes"/>
			<point x="218" y="254"/>
			<point x="264" y="301"/>
			<point x="260" y="355" type="curve" smooth="yes"/>
			<point x="256" y="409"/>
			<point x="205" y="454"/>
			<point x="151" y="454" type="curve" smooth="yes"/>
			<point x="96" y="454"/>
			<point x="56" y="408"/>
			<point x="60" y="355" type="curve" smooth="yes"/>
			<point x="64" y="304"/>
			<point x="108" y="254"/>
		</contour>
	</outline>
</glyph>
<glyph name="ellipsis" format="2">
	<advance width="562"/>
	<unicode hex="2026"/>
	<outline>
		<contour>
			<point x="414" y="-31" type="curve" smooth="yes"/>
			<point x="442" y="-31"/>
			<point x="467" y="-6"/>
			<point x="465" y="25" type="curve" smooth="yes"/>
			<point x="463" y="56"/>
			<point x="434" y="79"/>
			<point x="405" y="79" type="curve" smooth="yes"/>
			<point x="377" y="79"/>
			<point x="353" y="57"/>
			<point x="355" y="25" type="curve" smooth="yes"/>
			<point x="357" y="-6"/>
			<point x="385" y="-31"/>
		</contour>
		<contour>
			<point x="124" y="-31" type="curve" smooth="yes"/>
			<point x="152" y="-31"/>
			<point x="177" y="-6"/>
			<point x="175" y="25" type="curve" smooth="yes"/>
			<point x="173" y="56"/>
			<point x="144" y="79"/>
			<point x="115" y="79" type="curve" smooth="yes"/>
			<point x="87" y="79"/>
			<point x="63" y="57"/>
			<point x="65" y="25" type="curve" smooth="yes"/>
			<point x="67" y="-6"/>
			<point x="95" y="-31"/>
		</contour>
		<contour>
			<point x="269" y="-30" type="curve" smooth="yes"/>
			<point x="297" y="-30"/>
			<point x="322" y="-6"/>
			<point x="320" y="25" type="curve" smooth="yes"/>
			<point x="318" y="56"/>
			<point x="289" y="79"/>
			<point x="261" y="79" type="curve" smooth="yes"/>
			<point x="232" y="79"/>
			<point x="208" y="56"/>
			<point x="210" y="25" type="curve" smooth="yes"/>
			<point x="212" y="-6"/>
			<point x="240" y="-30"/>
		</contour>
	</outline>
</glyph>
<glyph name="infinity" format="2">
	<advance width="656"/>
	<unicode hex="221E"/>
	<outline>
		<contour>
			<point x="272" y="204" type="line"/>
			<point x="289" y="179" type="line" smooth="yes"/>
			<point x="326" y="127"/>
			<point x="382" y="71"/>
			<point x="444" y="61" type="curve" smooth="yes"/>
			<point x="514" y="49"/>
			<point x="611" y="92"/>
			<point x="623" y="205" type="curve" smooth="yes"/>
			<point x="634" y="314"/>
			<point x="554" y="362"/>
			<point x="493" y="373" type="curve" smooth="yes"/>
			<point x="437" y="383"/>
			<point x="356" y="369"/>
			<point x="277" y="284" type="curve"/>
		</contour>
		<contour>
			<point x="265" y="272" type="line"/>
			<point x="223" y="221"/>
			<point x="149" y="151"/>
			<point x="134" y="154" type="curve" smooth="yes"/>
			<point x="119" y="156"/>
			<point x="121" y="195"/>
			<point x="125" y="227" type="curve" smooth="yes"/>
			<point x="129" y="261"/>
			<point x="149" y="284"/>
			<point x="187" y="278" type="curve" smooth="yes"/>
			<point x="229" y="271"/>
			<point x="253" y="220"/>
			<point x="271" y="198" type="curve"/>
			<point x="329" y="272" type="line"/>
			<point x="311" y="296"/>
			<point x="275" y="361"/>
			<point x="202" y="374" type="curve" smooth="yes"/>
			<point x="104" y="391"/>
			<point x="51" y="301"/>
			<point x="42" y="225" type="curve" smooth="yes"/>
			<point x="36" y="164"/>
			<point x="57" y="72"/>
			<point x="124" y="60" type="curve" smooth="yes"/>
			<point x="191" y="49"/>
			<point x="261" y="126"/>
			<point x="326" y="197" type="curve"/>
		</contour>
		<contour>
			<point x="364" y="233" type="line"/>
			<point x="410" y="277"/>
			<point x="447" y="284"/>
			<point x="475" y="279" type="curve" smooth="yes"/>
			<point x="516" y="272"/>
			<point x="541" y="247"/>
			<point x="537" y="215" type="curve" smooth="yes"/>
			<point x="533" y="175"/>
			<point x="497" y="150"/>
			<point x="463" y="156" type="curve" smooth="yes"/>
			<point x="420" y="163"/>
			<point x="379" y="212"/>
			<point x="368" y="227" type="curve" smooth="yes"/>
		</contour>
	</outline>
</glyph>
<glyph name="approxequal" format="2">
	<advance width="441"/>
	<unicode hex="2248"/>
	<outline>
		<contour>
			<point x="277" y="229" type="curve" smooth="yes"/>
			<point x="314" y="229"/>
			<point x="338" y="241"/>
			<point x="356" y="249" type="curve" smooth="yes"/>
			<point x="383" y="262"/>
			<point x="394" y="273"/>
			<point x="393" y="293" type="curve" smooth="yes"/>
			<point x="391" y="321"/>
			<point x="356" y="351"/>
			<point x="326" y="335" type="curve" smooth="yes"/>
			<point x="302" y="323"/>
			<point x="298" y="316"/>
			<point x="279" y="316" type="curve" smooth="yes"/>
			<point x="262" y="316"/>
			<point x="217" y="352"/>
			<point x="178" y="352" type="curve" smooth="yes"/>
			<point x="147" y="352"/>
			<point x="126" y="342"/>
			<point x="111" y="335" type="curve" smooth="yes"/>
			<point x="84" y="324"/>
			<point x="71" y="313"/>
			<point x="73" y="293" type="curve" smooth="yes"/>
			<point x="75" y="261"/>
			<point x="109" y="234"/>
			<point x="139" y="249" type="curve" smooth="yes"/>
			<point x="156" y="258"/>
			<point x="163" y="265"/>
			<point x="176" y="265" type="curve" smooth="yes"/>
			<point x="196" y="265"/>
			<point x="240" y="229"/>
		</contour>
		<contour>
			<point x="257" y="35" type="curve" smooth="yes"/>
			<point x="294" y="35"/>
			<point x="318" y="47"/>
			<point x="335" y="55" type="curve" smooth="yes"/>
			<point x="362" y="68"/>
			<point x="373" y="79"/>
			<point x="372" y="99" type="curve" smooth="yes"/>
			<point x="370" y="127"/>
			<point x="336" y="157"/>
			<point x="305" y="141" type="curve" smooth="yes"/>
			<point x="282" y="129"/>
			<point x="277" y="122"/>
			<point x="258" y="122" type="curve" smooth="yes"/>
			<point x="241" y="122"/>
			<point x="197" y="158"/>
			<point x="158" y="158" type="curve" smooth="yes"/>
			<point x="127" y="158"/>
			<point x="106" y="148"/>
			<point x="90" y="141" type="curve" smooth="yes"/>
			<point x="64" y="130"/>
			<point x="51" y="119"/>
			<point x="52" y="99" type="curve" smooth="yes"/>
			<point x="54" y="67"/>
			<point x="88" y="40"/>
			<point x="118" y="55" type="curve" smooth="yes"/>
			<point x="136" y="64"/>
			<point x="143" y="71"/>
			<point x="156" y="71" type="curve" smooth="yes"/>
			<point x="176" y="71"/>
			<point x="220" y="35"/>
		</contour>
	</outline>
</glyph>
<glyph name="notequal" format="2">
	<advance width="441"/>
	<unicode hex="2260"/>
	<outline>
		<contour>
			<point x="331" y="333" type="line" smooth="yes"/>
			<point x="348" y="376"/>
			<point x="318" y="401"/>
			<point x="289" y="401" type="curve" smooth="yes"/>
			<point x="272" y="401"/>
			<point x="251" y="391"/>
			<point x="243" y="372" type="curve" smooth="yes"/>
			<point x="120" y="60" type="line" smooth="yes"/>
			<point x="108" y="30"/>
			<point x="124" y="8"/>
			<point x="150" y="-1" type="curve" smooth="yes"/>
			<point x="170" y="-7"/>
			<point x="198" y="-1"/>
			<point x="207" y="22" type="curve" smooth="yes"/>
		</contour>
		<contour>
			<point x="329" y="97" type="line" smooth="yes"/>
			<point x="359" y="97"/>
			<point x="379" y="116"/>
			<point x="377" y="141" type="curve" smooth="yes"/>
			<point x="375" y="165"/>
			<point x="353" y="182"/>
			<point x="323" y="182" type="curve" smooth="yes"/>
			<point x="105" y="182" type="line" smooth="yes"/>
			<point x="75" y="182"/>
			<point x="55" y="165"/>
			<point x="57" y="141" type="curve" smooth="yes"/>
			<point x="59" y="117"/>
			<point x="81" y="97"/>
			<point x="111" y="97" type="curve" smooth="yes"/>
		</contour>
		<contour>
			<point x="345" y="248" type="line" smooth="yes"/>
			<point x="375" y="248"/>
			<point x="394" y="266"/>
			<point x="393" y="290" type="curve" smooth="yes"/>
			<point x="391" y="314"/>
			<point x="369" y="333"/>
			<point x="339" y="333" type="curve" smooth="yes"/>
			<point x="121" y="333" type="line" smooth="yes"/>
			<point x="91" y="333"/>
			<point x="71" y="314"/>
			<point x="73" y="290" type="curve" smooth="yes"/>
			<point x="74" y="266"/>
			<point x="97" y="248"/>
			<point x="127" y="248" type="curve" smooth="yes"/>
		</contour>
	</outline>
</glyph>
<glyph name="lessequal" format="2">
	<advance width="382"/>
	<unicode hex="2264"/>
	<outline>
		<contour>
			<point x="335" y="322" type="line" smooth="yes"/>
			<point x="362" y="337"/>
			<point x="369" y="362"/>
			<point x="350" y="386" type="curve" smooth="yes"/>
			<point x="337" y="403"/>
			<point x="310" y="408"/>
			<point x="283" y="393" type="curve" smooth="yes"/>
			<point x="73" y="281" type="line" smooth="yes"/>
			<point x="46" y="266"/>
			<point x="44" y="242"/>
			<point x="62" y="221" type="curve" smooth="yes"/>
			<point x="76" y="201"/>
			<point x="101" y="197"/>
			<point x="125" y="210" type="curve" smooth="yes"/>
		</contour>
		<contour>
			<point x="283" y="57" type="line" smooth="yes"/>
			<point x="313" y="57"/>
			<point x="333" y="75"/>
			<point x="331" y="98" type="curve" smooth="yes"/>
			<point x="329" y="122"/>
			<point x="307" y="142"/>
			<point x="277" y="142" type="curve" smooth="yes"/>
			<point x="81" y="142" type="line" smooth="yes"/>
			<point x="51" y="142"/>
			<point x="31" y="122"/>
			<point x="33" y="98" type="curve" smooth="yes"/>
			<point x="35" y="74"/>
			<point x="57" y="57"/>
			<point x="87" y="57" type="curve" smooth="yes"/>
		</contour>
		<contour>
			<point x="100" y="202" type="line"/>
			<point x="301" y="202" type="line" smooth="yes"/>
			<point x="329" y="202"/>
			<point x="349" y="222"/>
			<point x="348" y="245" type="curve" smooth="yes"/>
			<point x="348" y="272"/>
			<point x="321" y="287"/>
			<point x="289" y="287" type="curve" smooth="yes"/>
			<point x="96" y="287" type="line"/>
		</contour>
	</outline>
</glyph>
<glyph name="greaterequal" format="2">
	<advance width="461"/>
	<unicode hex="2265"/>
	<outline>
		<contour>
			<point x="317" y="212" type="line" smooth="yes"/>
			<point x="341" y="197"/>
			<point x="368" y="200"/>
			<point x="380" y="219" type="curve" smooth="yes"/>
			<point x="393" y="241"/>
			<point x="390" y="261"/>
			<point x="363" y="279" type="curve"/>
			<point x="178" y="393" type="line" smooth="yes"/>
			<point x="148" y="411"/>
			<point x="121" y="403"/>
			<point x="110" y="386" type="curve" smooth="yes"/>
			<point x="96" y="364"/>
			<point x="104" y="344"/>
			<point x="130" y="325" type="curve"/>
		</contour>
		<contour>
			<point x="323" y="57" type="line" smooth="yes"/>
			<point x="354" y="57"/>
			<point x="373" y="75"/>
			<point x="371" y="99" type="curve" smooth="yes"/>
			<point x="369" y="123"/>
			<point x="348" y="142"/>
			<point x="317" y="142" type="curve" smooth="yes"/>
			<point x="121" y="142" type="line" smooth="yes"/>
			<point x="91" y="142"/>
			<point x="71" y="122"/>
			<point x="73" y="98" type="curve" smooth="yes"/>
			<point x="75" y="75"/>
			<point x="97" y="57"/>
			<point x="127" y="57" type="curve" smooth="yes"/>
		</contour>
		<contour>
			<point x="349" y="202" type="line"/>
			<point x="341" y="287" type="line"/>
			<point x="142" y="287" type="line" smooth="yes"/>
			<point x="108" y="287"/>
			<point x="90" y="271"/>
			<point x="89" y="247" type="curve" smooth="yes"/>
			<point x="88" y="223"/>
			<point x="107" y="202"/>
			<point x="142" y="202" type="curve" smooth="yes"/>
		</contour>
	</outline>
</glyph>
<glyph name="K.ss01" format="2">
	<advance width="615"/>
	<outline>
		<contour>
			<point x="256" y="320" type="line"/>
			<point x="535" y="562" type="line" smooth="yes"/>
			<point x="548" y="574"/>
			<point x="559" y="587"/>
			<point x="560" y="602" type="curve" smooth="yes"/>
			<point x="561" y="625"/>
			<point x="542" y="650"/>
			<point x="513" y="650" type="curve" smooth="yes"/>
			<point x="497" y="650"/>
			<point x="477" y="644"/>
			<point x="462" y="631" type="curve" smooth="yes"/>
			<point x="159" y="368" type="line"/>
			<point x="162" y="326" type="line"/>
		</contour>
		<contour>
			<point x="161" y="338" type="line"/>
			<point x="402" y="24" type="line" smooth="yes"/>
			<point x="412" y="12"/>
			<point x="436" y="0"/>
			<point x="460" y="0" type="curve" smooth="yes"/>
			<point x="499" y="0"/>
			<point x="537" y="15"/>
			<point x="559" y="52" type="curve" smooth="yes"/>
			<point x="576" y="81"/>
			<point x="579" y="98"/>
			<point x="576" y="110" type="curve" smooth="yes"/>
			<point x="572" y="125"/>
			<point x="559" y="138"/>
			<point x="545" y="142" type="curve" smooth="yes"/>
			<point x="533" y="145"/>
			<point x="521" y="141"/>
			<point x="514" y="132" type="curve" smooth="yes"/>
			<point x="509" y="126" type="line" smooth="yes"/>
			<point x="503" y="119"/>
			<point x="491" y="93"/>
			<point x="486" y="93" type="curve" smooth="yes"/>
			<point x="480" y="93"/>
			<point x="467" y="96"/>
			<point x="458" y="108" type="curve" smooth="yes"/>
			<point x="259" y="368" type="line"/>
			<point x="158" y="382" type="line"/>
		</contour>
		<contour>
			<point x="224" y="597" type="line" smooth="yes"/>
			<point x="228" y="636"/>
			<point x="202" y="650"/>
			<point x="178" y="650" type="curve" smooth="yes"/>
			<point x="152" y="650"/>
			<point x="128" y="637"/>
			<point x="125" y="609" type="curve" smooth="yes"/>
			<point x="65" y="54" type="line" smooth="yes"/>
			<point x="62" y="24"/>
			<point x="85" y="0"/>
			<point x="117" y="0" type="curve" smooth="yes"/>
			<point x="148" y="0"/>
			<point x="162" y="19"/>
			<point x="165" y="45" type="curve" smooth="yes"/>
		</contour>
	</outline>
</glyph>
<glyph name="M.ss01" format="2">
	<advance width="952"/>
	<outline>
		<contour>
			<point x="424" y="100" type="line"/>
			<point x="233" y="620" type="line" smooth="yes"/>
			<point x="225" y="641"/>
			<point x="199" y="650"/>
			<point x="173" y="650" type="curve"/>
			<point x="177" y="491" type="line"/>
			<point x="345" y="35" type="line" smooth="yes"/>
			<point x="353" y="13"/>
			<point x="382" y="0"/>
			<point x="418" y="0" type="curve"/>
		</contour>
		<contour>
			<point x="213" y="498" type="line"/>
			<point x="176" y="650" type="line"/>
			<point x="144" y="650"/>
			<point x="127" y="636"/>
			<point x="124" y="609" type="curve" smooth="yes"/>
			<point x="66" y="49" type="line" smooth="yes"/>
			<point x="63" y="21"/>
			<point x="83" y="0"/>
			<point x="112" y="0" type="curve" smooth="yes"/>
			<point x="145" y="0"/>
			<point x="164" y="19"/>
			<point x="166" y="42" type="curve" smooth="yes"/>
		</contour>
		<contour>
			<point x="700" y="464" type="line"/>
			<point x="668" y="156" type="line" smooth="yes"/>
			<point x="659" y="72"/>
			<point x="680" y="0"/>
			<point x="759" y="0" type="curve" smooth="yes"/>
			<point x="798" y="0"/>
			<point x="825" y="15"/>
			<point x="847" y="52" type="curve" smooth="yes"/>
			<point x="864" y="81"/>
			<point x="865" y="94"/>
			<point x="862" y="106" type="curve" smooth="yes"/>
			<point x="858" y="121"/>
			<point x="847" y="134"/>
			<point x="833" y="138" type="curve" smooth="yes"/>
			<point x="821" y="141"/>
			<point x="807" y="141"/>
			<point x="800" y="132" type="curve" smooth="yes"/>
			<point x="795" y="126" type="line" smooth="yes"/>
			<point x="789" y="119"/>
			<point x="783" y="89"/>
			<point x="770" y="89" type="curve" smooth="yes"/>
			<point x="762" y="89"/>
			<point x="763" y="116"/>
			<point x="773" y="208" type="curve" smooth="yes"/>
			<point x="814" y="597" type="line" smooth="yes"/>
			<point x="817" y="629"/>
			<point x="801" y="650"/>
			<point x="768" y="650" type="curve"/>
		</contour>
		<contour>
			<point x="405" y="103" type="line"/>
			<point x="412" y="0" type="line"/>
			<point x="448" y="0"/>
			<point x="465" y="13"/>
			<point x="478" y="35" type="curve" smooth="yes"/>
			<point x="728" y="462" type="line"/>
			<point x="770" y="650" type="line"/>
			<point x="734" y="650"/>
			<point x="720" y="641"/>
			<point x="708" y="620" type="curve" smooth="yes"/>
		</contour>
	</outline>
</glyph>
<glyph name="Q.ss01" format="2">
	<advance width="606"/>
	<outline>
		<contour>
			<point x="258" y="94" type="curve" smooth="yes"/>
			<point x="381" y="-24" type="line" smooth="yes"/>
			<point x="395" y="-37"/>
			<point x="420" y="-48"/>
			<point x="439" y="-48" type="curve" smooth="yes"/>
			<point x="478" y="-48"/>
			<point x="505" y="-29"/>
			<point x="527" y="8" type="curve" smooth="yes"/>
			<point x="544" y="37"/>
			<point x="545" y="50"/>
			<point x="542" y="62" type="curve" smooth="yes"/>
			<point x="538" y="77"/>
			<point x="527" y="90"/>
			<point x="513" y="94" type="curve" smooth="yes"/>
			<point x="501" y="97"/>
			<point x="491" y="93"/>
			<point x="484" y="84" type="curve" smooth="yes"/>
			<point x="479" y="78" type="line" smooth="yes"/>
			<point x="473" y="71"/>
			<point x="464" y="36"/>
			<point x="458" y="36" type="curve" smooth="yes"/>
			<point x="452" y="36"/>
			<point x="446" y="42"/>
			<point x="435" y="52" type="curve" smooth="yes"/>
			<point x="325" y="158" type="line"/>
			<point x="297" y="180"/>
			<point x="262" y="179"/>
			<point x="249" y="161" type="curve" smooth="yes"/>
			<point x="234" y="143"/>
			<point x="233" y="118"/>
		</contour>
		<contour>
			<point x="230" y="-4" type="curve" smooth="yes"/>
			<point x="400" y="-4"/>
			<point x="525" y="242"/>
			<point x="544" y="429" type="curve" smooth="yes"/>
			<point x="556" y="548"/>
			<point x="467" y="652"/>
			<point x="339" y="652" type="curve" smooth="yes"/>
			<point x="211" y="652"/>
			<point x="140" y="555"/>
			<point x="108" y="410" type="curve" smooth="yes"/>
			<point x="100" y="370"/>
			<point x="94" y="325"/>
			<point x="94" y="283" type="curve" smooth="yes"/>
			<point x="92" y="150"/>
			<point x="110" y="-4"/>
		</contour>
		<contour>
			<point x="240" y="86" type="curve" smooth="yes"/>
			<point x="198" y="86"/>
			<point x="193" y="187"/>
			<point x="194" y="269" type="curve" smooth="yes"/>
			<point x="194" y="308"/>
			<point x="198" y="348"/>
			<point x="204" y="378" type="curve" smooth="yes"/>
			<point x="230" y="505"/>
			<point x="264" y="562"/>
			<point x="341" y="562" type="curve" smooth="yes"/>
			<point x="445" y="562"/>
			<point x="449" y="482"/>
			<point x="443" y="425" type="curve" smooth="yes"/>
			<point x="427" y="279"/>
			<point x="317" y="86"/>
		</contour>
	</outline>
</glyph>
<glyph name="R.ss01" format="2">
  <advance width="626"/>
  <outline>
    <contour>
      <point x="155" y="270" type="line"/>
      <point x="321" y="270"/>
      <point x="509" y="289"/>
      <point x="528" y="467" type="curve" smooth="yes"/>
      <point x="543" y="602"/>
      <point x="403" y="650"/>
      <point x="156" y="650" type="curve"/>
      <point x="162" y="559" type="line"/>
      <point x="378" y="562"/>
      <point x="435" y="533"/>
      <point x="428" y="470" type="curve" smooth="yes"/>
      <point x="419" y="382"/>
      <point x="291" y="359"/>
      <point x="164" y="359" type="curve"/>
    </contour>
    <contour>
      <point x="158" y="285" type="line"/>
      <point x="396" y="20" type="line" smooth="yes"/>
      <point x="407" y="8"/>
      <point x="430" y="-4"/>
      <point x="454" y="-4" type="curve" smooth="yes"/>
      <point x="493" y="-4"/>
      <point x="531" y="11"/>
      <point x="553" y="48" type="curve" smooth="yes"/>
      <point x="570" y="77"/>
      <point x="573" y="94"/>
      <point x="570" y="106" type="curve" smooth="yes"/>
      <point x="566" y="121"/>
      <point x="553" y="134"/>
      <point x="539" y="138" type="curve" smooth="yes"/>
      <point x="527" y="141"/>
      <point x="515" y="137"/>
      <point x="508" y="128" type="curve" smooth="yes"/>
      <point x="503" y="122" type="line" smooth="yes"/>
      <point x="497" y="115"/>
      <point x="486" y="89"/>
      <point x="481" y="89" type="curve" smooth="yes"/>
      <point x="474" y="89"/>
      <point x="462" y="93"/>
      <point x="452" y="104" type="curve" smooth="yes"/>
      <point x="287" y="291" type="line"/>
    </contour>
    <contour>
      <point x="206" y="597" type="line" smooth="yes"/>
      <point x="210" y="638"/>
      <point x="188" y="650"/>
      <point x="160" y="650" type="curve" smooth="yes"/>
      <point x="129" y="650"/>
      <point x="110" y="637"/>
      <point x="107" y="609" type="curve" smooth="yes"/>
      <point x="48" y="54" type="line" smooth="yes"/>
      <point x="45" y="24"/>
      <point x="59" y="0"/>
      <point x="91" y="0" type="curve" smooth="yes"/>
      <point x="130" y="0"/>
      <point x="145" y="23"/>
      <point x="148" y="53" type="curve" smooth="yes"/>
    </contour>
  </outline>
</glyph>
<glyph name="U.ss01" format="2">
	<advance width="698"/>
	<outline>
		<contour>
			<point x="452" y="385" type="line"/>
			<point x="475" y="543" type="line"/>
			<point x="456" y="543" type="line"/>
			<point x="450" y="510" type="line" smooth="yes"/>
			<point x="434" y="423"/>
			<point x="405" y="364"/>
			<point x="388" y="337" type="curve" smooth="yes"/>
			<point x="345" y="265"/>
			<point x="241" y="86"/>
			<point x="194" y="86" type="curve" smooth="yes"/>
			<point x="175" y="86"/>
			<point x="173" y="125"/>
			<point x="180" y="185" type="curve" smooth="yes"/>
			<point x="226" y="600" type="line" smooth="yes"/>
			<point x="229" y="629"/>
			<point x="207" y="650"/>
			<point x="178" y="650" type="curve" smooth="yes"/>
			<point x="145" y="651"/>
			<point x="128" y="624"/>
			<point x="126" y="606" type="curve" smooth="yes"/>
			<point x="80" y="195" type="line" smooth="yes"/>
			<point x="65" y="57"/>
			<point x="111" y="-4"/>
			<point x="184" y="-4" type="curve" smooth="yes"/>
			<point x="269" y="-4"/>
			<point x="352" y="76"/>
			<point x="436" y="215" type="curve"/>
		</contour>
		<contour>
			<point x="461" y="613" type="curve" smooth="yes"/>
			<point x="414" y="156" type="line" smooth="yes"/>
			<point x="405" y="73"/>
			<point x="426" y="0"/>
			<point x="505" y="0" type="curve" smooth="yes"/>
			<point x="544" y="0"/>
			<point x="571" y="15"/>
			<point x="593" y="52" type="curve" smooth="yes"/>
			<point x="610" y="81"/>
			<point x="611" y="94"/>
			<point x="608" y="106" type="curve" smooth="yes"/>
			<point x="604" y="121"/>
			<point x="593" y="134"/>
			<point x="579" y="138" type="curve" smooth="yes"/>
			<point x="567" y="141"/>
			<point x="555" y="139"/>
			<point x="546" y="132" type="curve"/>
			<point x="541" y="126" type="line" smooth="yes"/>
			<point x="535" y="119"/>
			<point x="529" y="89"/>
			<point x="516" y="89" type="curve" smooth="yes"/>
			<point x="508" y="89"/>
			<point x="509" y="115"/>
			<point x="519" y="208" type="curve" smooth="yes"/>
			<point x="560" y="600" type="line" smooth="yes"/>
			<point x="563" y="632"/>
			<point x="539" y="651"/>
			<point x="511" y="651" type="curve" smooth="yes"/>
			<point x="489" y="651"/>
			<point x="463" y="636"/>
		</contour>
	</outline>
</glyph>
<glyph name=".notdef" format="2">
	<advance width="639"/>
	<outline>
		<contour>
			<point x="497" y="0" type="line" smooth="yes"/>
			<point x="522" y="0"/>
			<point x="543" y="26"/>
			<point x="546" y="49" type="curve" smooth="yes"/>
			<point x="610" y="659" type="line" smooth="yes"/>
			<point x="613" y="687"/>
			<point x="597" y="700"/>
			<point x="560" y="700" type="curve"/>
			<point x="180" y="700" type="line"/>
			<point x="152" y="700"/>
			<point x="132" y="687"/>
			<point x="129" y="659" type="curve" smooth="yes"/>
			<point x="65" y="49" type="line" smooth="yes"/>
			<point x="62" y="21"/>
			<point x="77" y="0"/>
			<point x="116" y="0" type="curve" smooth="yes"/>
		</contour>
		<contour>
			<point x="171" y="95" type="line"/>
			<point x="226" y="605" type="line"/>
			<point x="503" y="605" type="line"/>
			<point x="448" y="95" type="line"/>
		</contour>
	</outline>
</glyph>
<glyph name="a.sc" format="2">
	<advance width="322"/>
	<outline>
		<contour>
			<point x="217" y="317" type="line"/>
			<point x="232" y="348" type="line"/>
			<point x="238" y="380"/>
			<point x="219" y="396"/>
			<point x="188" y="396" type="curve" smooth="yes"/>
			<point x="164" y="396"/>
			<point x="153" y="383"/>
			<point x="146" y="367" type="curve" smooth="yes"/>
			<point x="10" y="65" type="line" smooth="yes"/>
			<point x="-3" y="34"/>
			<point x="9" y="0"/>
			<point x="42" y="0" type="curve" smooth="yes"/>
			<point x="64" y="0"/>
			<point x="78" y="9"/>
			<point x="88" y="31" type="curve" smooth="yes"/>
		</contour>
		<contour>
			<point x="63" y="151" type="line"/>
			<point x="253" y="151" type="line"/>
			<point x="242" y="221" type="line"/>
			<point x="102" y="221" type="line"/>
		</contour>
		<contour>
			<point x="232" y="371" type="line"/>
			<point x="168" y="326" type="line"/>
			<point x="205" y="45" type="line" smooth="yes"/>
			<point x="209" y="18"/>
			<point x="222" y="0"/>
			<point x="250" y="0" type="curve" smooth="yes"/>
			<point x="277" y="0"/>
			<point x="292" y="21"/>
			<point x="287" y="50" type="curve" smooth="yes"/>
		</contour>
	</outline>
</glyph>
<glyph name="a.ss01" format="2">
	<advance width="445"/>
	<outline>
		<contour>
			<point x="241" y="47" type="curve"/>
			<point x="255" y="195" type="line"/>
			<point x="206" y="112"/>
			<point x="170" y="83"/>
			<point x="148" y="83" type="curve" smooth="yes"/>
			<point x="130" y="83"/>
			<point x="120" y="101"/>
			<point x="123" y="130" type="curve" smooth="yes"/>
			<point x="128" y="175"/>
			<point x="124" y="263"/>
			<point x="237" y="263" type="curve" smooth="yes"/>
			<point x="243" y="263"/>
			<point x="257" y="263"/>
			<point x="264" y="263" type="curve"/>
			<point x="273" y="350" type="line"/>
			<point x="265" y="350"/>
			<point x="240" y="350"/>
			<point x="233" y="350" type="curve" smooth="yes"/>
			<point x="77" y="350"/>
			<point x="49" y="261"/>
			<point x="34" y="120" type="curve" smooth="yes"/>
			<point x="23" y="21"/>
			<point x="85" y="-4"/>
			<point x="142" y="-4" type="curve" smooth="yes"/>
			<point x="172" y="-4"/>
			<point x="210" y="17"/>
		</contour>
		<contour>
			<point x="341" y="301" type="line" smooth="yes"/>
			<point x="344" y="337"/>
			<point x="329" y="350"/>
			<point x="250" y="350" type="curve"/>
			<point x="229" y="156" type="line" smooth="yes"/>
			<point x="220" y="72"/>
			<point x="238" y="0"/>
			<point x="317" y="0" type="curve" smooth="yes"/>
			<point x="356" y="0"/>
			<point x="383" y="15"/>
			<point x="405" y="52" type="curve" smooth="yes"/>
			<point x="422" y="81"/>
			<point x="423" y="94"/>
			<point x="420" y="106" type="curve" smooth="yes"/>
			<point x="416" y="121"/>
			<point x="405" y="134"/>
			<point x="391" y="138" type="curve" smooth="yes"/>
			<point x="379" y="141"/>
			<point x="367" y="139"/>
			<point x="358" y="132" type="curve"/>
			<point x="353" y="126" type="line" smooth="yes"/>
			<point x="347" y="119"/>
			<point x="341" y="89"/>
			<point x="328" y="89" type="curve" smooth="yes"/>
			<point x="320" y="89"/>
			<point x="323" y="116"/>
			<point x="332" y="208" type="curve" smooth="yes"/>
		</contour>
	</outline>
</glyph>
<glyph name="asciicircum.c2sc" format="2">
	<advance width="489"/>
	<outline>
		<contour>
			<point x="308" y="409" type="line" smooth="yes"/>
			<point x="333" y="430"/>
			<point x="329" y="457"/>
			<point x="310" y="475" type="curve" smooth="yes"/>
			<point x="291" y="493"/>
			<point x="257" y="497"/>
			<point x="235" y="478" type="curve" smooth="yes"/>
			<point x="110" y="367" type="line" smooth="yes"/>
			<point x="88" y="347"/>
			<point x="93" y="321"/>
			<point x="108" y="304" type="curve" smooth="yes"/>
			<point x="127" y="282"/>
			<point x="162" y="279"/>
			<point x="185" y="299" type="curve" smooth="yes"/>
		</contour>
		<contour>
			<point x="310" y="475" type="line"/>
			<point x="239" y="413" type="line"/>
			<point x="339" y="304" type="line" smooth="yes"/>
			<point x="359" y="281"/>
			<point x="394" y="283"/>
			<point x="411" y="300" type="curve" smooth="yes"/>
			<point x="429" y="317"/>
			<point x="431" y="342"/>
			<point x="410" y="365" type="curve" smooth="yes"/>
		</contour>
	</outline>
</glyph>
<glyph name="asterisk.c2sc" format="2">
	<advance width="377"/>
	<outline>
		<contour>
			<point x="295" y="386" type="line" smooth="yes"/>
			<point x="321" y="402"/>
			<point x="330" y="425"/>
			<point x="315" y="449" type="curve" smooth="yes"/>
			<point x="303" y="465"/>
			<point x="273" y="473"/>
			<point x="250" y="459" type="curve" smooth="yes"/>
			<point x="120" y="381" type="line"/>
			<point x="99" y="366"/>
			<point x="88" y="343"/>
			<point x="101" y="322" type="curve" smooth="yes"/>
			<point x="112" y="303"/>
			<point x="143" y="295"/>
			<point x="170" y="311" type="curve" smooth="yes"/>
		</contour>
		<contour>
			<point x="242" y="318" type="line"/>
			<point x="269" y="302"/>
			<point x="298" y="307"/>
			<point x="309" y="324" type="curve" smooth="yes"/>
			<point x="320" y="343"/>
			<point x="317" y="364"/>
			<point x="292" y="381" type="curve" smooth="yes"/>
			<point x="179" y="460" type="line" smooth="yes"/>
			<point x="156" y="476"/>
			<point x="127" y="471"/>
			<point x="115" y="454" type="curve" smooth="yes"/>
			<point x="102" y="435"/>
			<point x="107" y="413"/>
			<point x="132" y="395" type="curve" smooth="yes"/>
		</contour>
		<contour>
			<point x="263" y="456" type="line" smooth="yes"/>
			<point x="266" y="488"/>
			<point x="244" y="508"/>
			<point x="220" y="508" type="curve" smooth="yes"/>
			<point x="199" y="508"/>
			<point x="177" y="491"/>
			<point x="174" y="464" type="curve" smooth="yes"/>
			<point x="159" y="322" type="line" smooth="yes"/>
			<point x="156" y="293"/>
			<point x="174" y="276"/>
			<point x="195" y="271" type="curve" smooth="yes"/>
			<point x="217" y="266"/>
			<point x="245" y="283"/>
			<point x="248" y="314" type="curve" smooth="yes"/>
		</contour>
	</outline>
</glyph>
<glyph name="b.sc" format="2">
	<advance width="405"/>
	<outline>
		<contour>
			<point x="192" y="340" type="line" smooth="yes"/>
			<point x="196" y="374"/>
			<point x="172" y="396"/>
			<point x="143" y="396" type="curve" smooth="yes"/>
			<point x="118" y="396"/>
			<point x="100" y="380"/>
			<point x="97" y="352" type="curve" smooth="yes"/>
			<point x="65" y="54" type="line" smooth="yes"/>
			<point x="62" y="25"/>
			<point x="86" y="0"/>
			<point x="116" y="0" type="curve" smooth="yes"/>
			<point x="138" y="0"/>
			<point x="158" y="16"/>
			<point x="161" y="43" type="curve" smooth="yes"/>
		</contour>
		<contour>
			<point x="114" y="0" type="line"/>
			<point x="258" y="0"/>
			<point x="339" y="12"/>
			<point x="347" y="95" type="curve" smooth="yes"/>
			<point x="357" y="193"/>
			<point x="241" y="236"/>
			<point x="167" y="236" type="curve"/>
			<point x="159" y="153" type="line"/>
			<point x="219" y="153"/>
			<point x="260" y="141"/>
			<point x="258" y="115" type="curve" smooth="yes"/>
			<point x="256" y="91"/>
			<point x="206" y="80"/>
			<point x="122" y="80" type="curve"/>
		</contour>
		<contour>
			<point x="162" y="153" type="line"/>
			<point x="317" y="153"/>
			<point x="355" y="197"/>
			<point x="364" y="270" type="curve" smooth="yes"/>
			<point x="374" y="364"/>
			<point x="264" y="396"/>
			<point x="141" y="396" type="curve"/>
			<point x="130" y="317" type="line"/>
			<point x="225" y="317"/>
			<point x="278" y="302"/>
			<point x="275" y="280" type="curve" smooth="yes"/>
			<point x="272" y="253"/>
			<point x="262" y="236"/>
			<point x="170" y="236" type="curve"/>
		</contour>
	</outline>
</glyph>
<glyph name="c.sc" format="2">
	<advance width="407"/>
	<outline>
		<contour>
			<point x="350" y="121" type="curve" smooth="yes"/>
			<point x="356" y="132"/>
			<point x="355" y="159"/>
			<point x="329" y="172" type="curve" smooth="yes"/>
			<point x="303" y="185"/>
			<point x="278" y="178"/>
			<point x="270" y="163" type="curve" smooth="yes"/>
			<point x="248" y="121"/>
			<point x="211" y="86"/>
			<point x="193" y="86" type="curve" smooth="yes"/>
			<point x="174" y="86"/>
			<point x="166" y="138"/>
			<point x="171" y="183" type="curve" smooth="yes"/>
			<point x="175" y="218"/>
			<point x="190" y="302"/>
			<point x="249" y="302" type="curve" smooth="yes"/>
			<point x="260" y="302"/>
			<point x="300" y="301"/>
			<point x="310" y="299" type="curve" smooth="yes"/>
			<point x="332" y="296"/>
			<point x="355" y="299"/>
			<point x="370" y="332" type="curve" smooth="yes"/>
			<point x="384" y="363"/>
			<point x="370" y="372"/>
			<point x="346" y="382" type="curve" smooth="yes"/>
			<point x="335" y="386"/>
			<point x="298" y="392"/>
			<point x="256" y="392" type="curve" smooth="yes"/>
			<point x="126" y="392"/>
			<point x="91" y="275"/>
			<point x="81" y="185" type="curve" smooth="yes"/>
			<point x="68" y="66"/>
			<point x="124" y="-4"/>
			<point x="197" y="-4" type="curve" smooth="yes"/>
			<point x="241" y="-4"/>
			<point x="315" y="56"/>
		</contour>
	</outline>
</glyph>
<glyph name="d.sc" format="2">
	<advance width="395"/>
	<outline>
		<contour>
			<point x="115" y="0" type="line"/>
			<point x="148" y="0" type="line" smooth="yes"/>
			<point x="249" y="0"/>
			<point x="344" y="78"/>
			<point x="358" y="205" type="curve" smooth="yes"/>
			<point x="368" y="313"/>
			<point x="269" y="396"/>
			<point x="161" y="396" type="curve" smooth="yes"/>
			<point x="143" y="396" type="line"/>
			<point x="159" y="316" type="line"/>
			<point x="170" y="316" type="line" smooth="yes"/>
			<point x="227" y="316"/>
			<point x="268" y="270"/>
			<point x="262" y="216" type="curve" smooth="yes"/>
			<point x="255" y="129"/>
			<point x="200" y="74"/>
			<point x="143" y="74" type="curve" smooth="yes"/>
			<point x="133" y="74" type="line"/>
		</contour>
		<contour>
			<point x="192" y="336" type="line" smooth="yes"/>
			<point x="195" y="367"/>
			<point x="175" y="396"/>
			<point x="143" y="396" type="curve" smooth="yes"/>
			<point x="120" y="396"/>
			<point x="100" y="385"/>
			<point x="97" y="353" type="curve" smooth="yes"/>
			<point x="65" y="52" type="line" smooth="yes"/>
			<point x="62" y="24"/>
			<point x="85" y="0"/>
			<point x="116" y="0" type="curve" smooth="yes"/>
			<point x="143" y="0"/>
			<point x="158" y="17"/>
			<point x="160" y="38" type="curve" smooth="yes"/>
		</contour>
	</outline>
</glyph>
<glyph name="d.ss01" format="2">
	<advance width="451"/>
	<outline>
		<contour>
			<point x="264" y="69" type="curve"/>
			<point x="255" y="195" type="line"/>
			<point x="206" y="112"/>
			<point x="170" y="83"/>
			<point x="148" y="83" type="curve" smooth="yes"/>
			<point x="130" y="83"/>
			<point x="120" y="101"/>
			<point x="123" y="130" type="curve" smooth="yes"/>
			<point x="128" y="175"/>
			<point x="124" y="263"/>
			<point x="237" y="263" type="curve" smooth="yes"/>
			<point x="243" y="263"/>
			<point x="257" y="263"/>
			<point x="264" y="263" type="curve"/>
			<point x="273" y="350" type="line"/>
			<point x="265" y="350"/>
			<point x="240" y="350"/>
			<point x="233" y="350" type="curve" smooth="yes"/>
			<point x="77" y="350"/>
			<point x="46" y="261"/>
			<point x="34" y="120" type="curve" smooth="yes"/>
			<point x="26" y="21"/>
			<point x="85" y="-4"/>
			<point x="142" y="-4" type="curve" smooth="yes"/>
			<point x="196" y="-4"/>
			<point x="233" y="39"/>
		</contour>
		<contour>
			<point x="359" y="126" type="line" smooth="yes"/>
			<point x="353" y="119"/>
			<point x="347" y="89"/>
			<point x="334" y="89" type="curve" smooth="yes"/>
			<point x="326" y="89"/>
			<point x="327" y="116"/>
			<point x="337" y="208" type="curve" smooth="yes"/>
			<point x="379" y="598" type="line" smooth="yes"/>
			<point x="383" y="631"/>
			<point x="359" y="650"/>
			<point x="332" y="650" type="curve" smooth="yes"/>
			<point x="308" y="650"/>
			<point x="286" y="633"/>
			<point x="283" y="605" type="curve" smooth="yes"/>
			<point x="235" y="156" type="line" smooth="yes"/>
			<point x="226" y="72"/>
			<point x="244" y="0"/>
			<point x="323" y="0" type="curve" smooth="yes"/>
			<point x="362" y="0"/>
			<point x="389" y="15"/>
			<point x="411" y="52" type="curve" smooth="yes"/>
			<point x="428" y="81"/>
			<point x="429" y="94"/>
			<point x="426" y="106" type="curve" smooth="yes"/>
			<point x="422" y="121"/>
			<point x="411" y="134"/>
			<point x="397" y="138" type="curve" smooth="yes"/>
			<point x="385" y="141"/>
			<point x="373" y="139"/>
			<point x="364" y="132" type="curve"/>
		</contour>
	</outline>
</glyph>
<glyph name="degree.c2sc" format="2">
  <advance width="332"/>
  <outline>
    <contour>
      <point x="153" y="255" type="curve" smooth="yes"/>
      <point x="232" y="255"/>
      <point x="295" y="365"/>
      <point x="291" y="434" type="curve" smooth="yes"/>
      <point x="287" y="482"/>
      <point x="253" y="511"/>
      <point x="197" y="511" type="curve" smooth="yes"/>
      <point x="148" y="511"/>
      <point x="119" y="478"/>
      <point x="105" y="450" type="curve" smooth="yes"/>
      <point x="94" y="430"/>
      <point x="80" y="385"/>
      <point x="84" y="335" type="curve" smooth="yes"/>
      <point x="88" y="267"/>
      <point x="125" y="255"/>
    </contour>
    <contour>
      <point x="165" y="333" type="curve" smooth="yes"/>
      <point x="161" y="333"/>
      <point x="158" y="349"/>
      <point x="158" y="361" type="curve" smooth="yes"/>
      <point x="159" y="381"/>
      <point x="164" y="400"/>
      <point x="173" y="419" type="curve" smooth="yes"/>
      <point x="180" y="434"/>
      <point x="189" y="437"/>
      <point x="199" y="437" type="curve" smooth="yes"/>
      <point x="210" y="437"/>
      <point x="211" y="428"/>
      <point x="211" y="412" type="curve" smooth="yes"/>
      <point x="211" y="380"/>
      <point x="183" y="333"/>
    </contour>
  </outline>
</glyph>
<glyph name="e.sc" format="2">
	<advance width="415"/>
	<outline>
		<contour>
			<point x="196" y="339" type="line" smooth="yes"/>
			<point x="200" y="374"/>
			<point x="175" y="396"/>
			<point x="145" y="396" type="curve" smooth="yes"/>
			<point x="114" y="396"/>
			<point x="99" y="377"/>
			<point x="97" y="355" type="curve" smooth="yes"/>
			<point x="65" y="52" type="line" smooth="yes"/>
			<point x="62" y="25"/>
			<point x="79" y="0"/>
			<point x="111" y="0" type="curve" smooth="yes"/>
			<point x="141" y="0"/>
			<point x="162" y="19"/>
			<point x="164" y="39" type="curve" smooth="yes"/>
		</contour>
		<contour>
			<point x="111" y="0" type="line"/>
			<point x="295" y="0" type="line" smooth="yes"/>
			<point x="324" y="0"/>
			<point x="341" y="18"/>
			<point x="341" y="44" type="curve" smooth="yes"/>
			<point x="341" y="69"/>
			<point x="320" y="85"/>
			<point x="291" y="85" type="curve" smooth="yes"/>
			<point x="152" y="85" type="line"/>
		</contour>
		<contour>
			<point x="159" y="150" type="line"/>
			<point x="297" y="150" type="line" smooth="yes"/>
			<point x="327" y="150"/>
			<point x="346" y="169"/>
			<point x="346" y="194" type="curve" smooth="yes"/>
			<point x="346" y="220"/>
			<point x="322" y="238"/>
			<point x="294" y="238" type="curve" smooth="yes"/>
			<point x="170" y="238" type="line"/>
		</contour>
		<contour>
			<point x="175" y="303" type="line"/>
			<point x="328" y="303" type="line" smooth="yes"/>
			<point x="356" y="303"/>
			<point x="373" y="325"/>
			<point x="373" y="351" type="curve" smooth="yes"/>
			<point x="373" y="377"/>
			<point x="351" y="396"/>
			<point x="322" y="396" type="curve" smooth="yes"/>
			<point x="144" y="396" type="line"/>
		</contour>
	</outline>
</glyph>
<glyph name="eight.c2sc" format="2">
	<advance width="403"/>
	<outline>
		<contour>
			<point x="201" y="242" type="line"/>
			<point x="148" y="245" type="line"/>
			<point x="82" y="197"/>
			<point x="63" y="145"/>
			<point x="66" y="106" type="curve" smooth="yes"/>
			<point x="69" y="64"/>
			<point x="97" y="-3"/>
			<point x="177" y="-3" type="curve" smooth="yes"/>
			<point x="258" y="-3"/>
			<point x="296" y="66"/>
			<point x="293" y="117" type="curve" smooth="yes"/>
			<point x="290" y="160"/>
			<point x="249" y="197"/>
			<point x="219" y="225" type="curve" smooth="yes"/>
		</contour>
		<contour>
			<point x="175" y="162" type="line" smooth="yes"/>
			<point x="170" y="166"/>
			<point x="211" y="137"/>
			<point x="213" y="117" type="curve" smooth="yes"/>
			<point x="214" y="99"/>
			<point x="194" y="78"/>
			<point x="175" y="78" type="curve" smooth="yes"/>
			<point x="161" y="78"/>
			<point x="147" y="89"/>
			<point x="145" y="110" type="curve" smooth="yes"/>
			<point x="144" y="129"/>
			<point x="158" y="147"/>
			<point x="176" y="161" type="curve"/>
		</contour>
		<contour>
			<point x="199" y="187" type="line"/>
			<point x="250" y="223"/>
			<point x="317" y="267"/>
			<point x="314" y="317" type="curve" smooth="yes"/>
			<point x="310" y="369"/>
			<point x="245" y="396"/>
			<point x="200" y="396" type="curve" smooth="yes"/>
			<point x="146" y="396"/>
			<point x="79" y="361"/>
			<point x="84" y="290" type="curve" smooth="yes"/>
			<point x="87" y="243"/>
			<point x="124" y="212"/>
			<point x="153" y="186" type="curve"/>
			<point x="219" y="225" type="line"/>
			<point x="205" y="248"/>
			<point x="165" y="266"/>
			<point x="163" y="294" type="curve" smooth="yes"/>
			<point x="162" y="308"/>
			<point x="179" y="325"/>
			<point x="199" y="325" type="curve" smooth="yes"/>
			<point x="214" y="325"/>
			<point x="232" y="322"/>
			<point x="233" y="316" type="curve" smooth="yes"/>
			<point x="233" y="309"/>
			<point x="205" y="290"/>
			<point x="123" y="225" type="curve"/>
		</contour>
	</outline>
</glyph>
